<svg width="24" height="24" viewBox="0 0 24 24" fill="none" xmlns="http://www.w3.org/2000/svg">
<path fill-rule="evenodd" clip-rule="evenodd" d="M12 4C9.23858 4 7 6.23858 7 9C7 10.1613 7.39469 11.2277 8.05791 12.0761C8.93016 13.192 10 14.6976 10 16.5045V17.0002L14 17.0002V16.5045C14 14.6976 15.0698 13.192 15.9421 12.0761C16.6053 11.2277 17 10.1613 17 9C17 6.23858 14.7614 4 12 4ZM5 9C5 5.13401 8.13401 2 12 2C15.866 2 19 5.13401 19 9C19 10.6233 18.4462 12.1201 17.5178 13.3078C16.6314 14.4418 16 15.4556 16 16.5045V17.0002C16 18.1048 15.1046 19.0002 14 19.0002H10C8.89543 19.0002 8 18.1048 8 17.0002V16.5045C8 15.4556 7.3686 14.4418 6.48217 13.3078C5.55382 12.1201 5 10.6233 5 9ZM8 21C8 20.4477 8.44772 20 9 20H15C15.5523 20 16 20.4477 16 21C16 21.5523 15.5523 22 15 22H9C8.44772 22 8 21.5523 8 21Z" fill="white"/>
</svg>
