<svg width="24" height="24" viewBox="0 0 24 24" fill="none" xmlns="http://www.w3.org/2000/svg">
<path fill-rule="evenodd" clip-rule="evenodd" d="M5.12954 3.00772C5.48563 2.38457 6.14831 2 6.86603 2L17.134 2C17.8517 2 18.5144 2.38457 18.8704 3.00772L20.0133 5.00772C20.6641 6.14663 20.0565 7.52315 18.9084 7.90035C18.9127 7.98923 18.9111 8.07951 18.9033 8.1708L18.4829 13.0757C18.4823 13.083 18.4817 13.0901 18.481 13.0973L18.3115 15.0757C18.3109 15.083 18.3103 15.0901 18.3096 15.0973L17.8747 20.1708C17.7861 21.2054 16.9204 22 15.882 22H8.11794C7.07958 22 6.21393 21.2054 6.12525 20.1708L5.69038 15.0973C5.68969 15.0901 5.68907 15.083 5.68853 15.0757L5.51895 13.0973C5.51826 13.0901 5.51764 13.083 5.5171 13.0757L5.09668 8.1708C5.08885 8.07951 5.08727 7.98922 5.09156 7.90035C3.94344 7.52315 3.33588 6.14663 3.98668 5.00772L5.12954 3.00772ZM18.2768 6L17.134 4L6.86603 4L5.72317 6L18.2768 6ZM7.08937 8L7.43223 12H16.5678L16.9106 8L7.08937 8ZM16.2249 16H7.77509L8.11794 20H15.882L16.2249 16Z" fill="white"/>
</svg>
