<svg width="24" height="24" viewBox="0 0 24 24" fill="none" xmlns="http://www.w3.org/2000/svg">
<path fill-rule="evenodd" clip-rule="evenodd" d="M9.44721 2.10555C9.94119 2.35254 10.1414 2.95321 9.89443 3.44719L8.89443 5.44719C8.64744 5.94117 8.04676 6.14139 7.55279 5.8944C7.05881 5.64741 6.85858 5.04674 7.10557 4.55276L8.10557 2.55276C8.35256 2.05878 8.95324 1.85856 9.44721 2.10555ZM12.4472 2.10555C12.9412 2.35254 13.1414 2.95321 12.8944 3.44719L11.8944 5.44719C11.6474 5.94117 11.0468 6.14139 10.5528 5.8944C10.0588 5.64741 9.85858 5.04674 10.1056 4.55276L11.1056 2.55276C11.3526 2.05878 11.9532 1.85856 12.4472 2.10555ZM15.4472 2.10555C15.9412 2.35254 16.1414 2.95321 15.8944 3.44719L14.8944 5.44719C14.6474 5.94117 14.0468 6.14139 13.5528 5.8944C13.0588 5.64741 12.8586 5.04674 13.1056 4.55276L14.1056 2.55276C14.3526 2.05878 14.9532 1.85856 15.4472 2.10555ZM3 7.99997C3 7.44769 3.44772 6.99997 4 6.99997H19C21.2091 6.99997 23 8.79084 23 11C23 13.2091 21.2091 15 19 15H18.748C18.3432 16.5724 17.4725 17.9578 16.2916 19H18C18.5523 19 19 19.4477 19 20C19 20.5523 18.5523 21 18 21H4C3.44772 21 3 20.5523 3 20C3 19.4477 3.44772 19 4 19H5.70835C4.04751 17.5341 3 15.3894 3 13V7.99997ZM11 19C14.3137 19 17 16.3137 17 13V8.99997H5V13C5 16.3137 7.68629 19 11 19ZM19 13C20.1046 13 21 12.1045 21 11C21 9.89541 20.1046 8.99997 19 8.99997V13Z" fill="white"/>
</svg>
