<svg width="24" height="24" viewBox="0 0 24 24" fill="none" xmlns="http://www.w3.org/2000/svg">
<path fill-rule="evenodd" clip-rule="evenodd" d="M11.4414 2.39817C11.6367 2.13891 11.9458 1.99062 12.2703 2.00046C14.7332 2.07514 17.1774 3.04963 19.059 4.924C22.9803 8.83037 22.9803 15.1654 19.059 19.0718C15.1397 22.9761 8.78699 22.9761 4.86775 19.0718C3.23446 17.4448 2.28019 15.3934 2.00814 13.2727C1.96913 12.9686 2.07175 12.6634 2.28657 12.4447C2.50139 12.226 2.80466 12.1179 3.10939 12.1514C3.99222 12.2486 4.90451 11.9601 5.57773 11.2894C6.37903 10.4912 6.63518 9.35585 6.34334 8.34024C6.24299 7.99102 6.33996 7.61486 6.59662 7.35767C6.85329 7.10049 7.22926 7.00276 7.57868 7.1024C8.60262 7.39439 9.74579 7.13732 10.5476 6.33854C11.3713 5.51802 11.619 4.34101 11.2875 3.30462C11.1886 2.99541 11.246 2.65744 11.4414 2.39817ZM3.00001 3C3.00001 2.44772 3.44772 2 4.00001 2H4.00201C4.55429 2 5.00201 2.44772 5.00201 3V3.002C5.00201 3.55429 4.55429 4.002 4.00201 4.002H4.00001C3.44772 4.002 3.00001 3.55429 3.00001 3.002V3ZM7.00001 3C7.00001 2.44772 7.44772 2 8.00001 2H8.00201C8.55429 2 9.00201 2.44772 9.00201 3V3.002C9.00201 3.55429 8.55429 4.002 8.00201 4.002H8.00001C7.44772 4.002 7.00001 3.55429 7.00001 3.002V3ZM13.4288 4.12908C13.452 5.43836 12.9625 6.75594 11.9591 7.75546C10.9907 8.7202 9.72595 9.20694 8.45944 9.21849C8.44689 10.4817 7.95718 11.7421 6.98923 12.7064C6.20533 13.4873 5.22652 13.9551 4.21041 14.1112C4.56566 15.4087 5.25476 16.6343 6.27925 17.6549C9.41806 20.7817 14.5087 20.7817 17.6475 17.6549C20.7842 14.5302 20.7842 9.46563 17.6475 6.34092C16.4522 5.15022 14.975 4.41293 13.4288 4.12908ZM2.00001 7C2.00001 6.44772 2.44772 6 3.00001 6H3.00201C3.55429 6 4.00201 6.44772 4.00201 7V7.002C4.00201 7.55429 3.55429 8.002 3.00201 8.002H3.00001C2.44772 8.002 2.00001 7.55429 2.00001 7.002V7ZM15 10C15 9.44772 15.4477 9 16 9H16.002C16.5543 9 17.002 9.44772 17.002 10V10.002C17.002 10.5543 16.5543 11.002 16.002 11.002H16C15.4477 11.002 15 10.5543 15 10.002V10ZM10 12C10 11.4477 10.4477 11 11 11H11.002C11.5543 11 12.002 11.4477 12.002 12V12.002C12.002 12.5543 11.5543 13.002 11.002 13.002H11C10.4477 13.002 10 12.5543 10 12.002V12ZM14 15C14 14.4477 14.4477 14 15 14H15.002C15.5543 14 16.002 14.4477 16.002 15V15.002C16.002 15.5543 15.5543 16.002 15.002 16.002H15C14.4477 16.002 14 15.5543 14 15.002V15ZM9.00001 17C9.00001 16.4477 9.44772 16 10 16H10.002C10.5543 16 11.002 16.4477 11.002 17V17.002C11.002 17.5543 10.5543 18.002 10.002 18.002H10C9.44772 18.002 9.00001 17.5543 9.00001 17.002V17Z" fill="white"/>
</svg>
