<svg width="24" height="24" viewBox="0 0 24 24" fill="none" xmlns="http://www.w3.org/2000/svg">
<path fill-rule="evenodd" clip-rule="evenodd" d="M4.0002 7.99312C4.0284 4.59999 7.01046 2 10.5 2C11.8175 2 13.0507 2.36505 14.0821 2.99881C14.1579 3.04539 14.3449 3.0898 14.6055 3.02522C14.8924 2.95415 15.1924 2.91667 15.5 2.91667C17.2986 2.91667 18.9093 4.2349 18.9963 6.05337C20.7243 6.75638 22 8.37635 22 10.3333C22 11.824 21.355 13.6704 19.9206 14.6267L19.1126 20.2828C18.9718 21.2681 18.128 22 17.1327 22H6.8673C5.872 22 5.02815 21.2681 4.8874 20.2828L4.09577 14.7414C2.70484 14.1023 2 12.6688 2 11.25C2 9.84766 2.81408 8.66233 3.95589 8.02556C3.97233 8.01639 3.98569 8.00646 3.99574 7.99733C3.99736 7.99586 3.99884 7.99445 4.0002 7.99312ZM6.15301 15L6.8673 20H9V15H6.15301ZM11 15V20H13V15H11ZM5.13299 13C4.44864 12.7872 4 12.1311 4 11.25C4 10.66 4.34153 10.1005 4.93002 9.7723C5.49439 9.45755 6 8.83968 6 8.04167C6 5.88964 7.93103 4 10.5 4C11.4464 4 12.3173 4.26185 13.035 4.70283C13.703 5.11327 14.4827 5.11612 15.0865 4.96652C15.2166 4.9343 15.3551 4.91667 15.5 4.91667C16.4121 4.91667 17 5.57509 17 6.20833C17 6.92625 17.4477 7.60737 18.1595 7.87347C19.2842 8.29395 20 9.27065 20 10.3333C20 11.4542 19.4823 12.5454 18.7506 13H5.13299ZM15 15V20L17.1327 20L17.847 15H15Z" fill="white"/>
</svg>
