<svg width="24" height="24" viewBox="0 0 24 24" fill="none" xmlns="http://www.w3.org/2000/svg">
<path fill-rule="evenodd" clip-rule="evenodd" d="M7.00032 18.3233C8.66572 19.194 10.3064 19.5834 11.8553 19.4817C13.6278 19.3652 15.1992 18.6099 16.4632 17.3458C18.9601 14.8489 20.2107 10.4412 19.8475 4.99336C19.8142 4.49349 19.4161 4.09541 18.9163 4.06209C13.4684 3.69889 9.06065 4.94945 6.56375 7.44633C5.2997 8.71038 4.54434 10.2818 4.4279 12.0543C4.32615 13.6031 4.71549 15.2437 5.58618 16.909L4.29289 18.2023C3.90237 18.5928 3.90237 19.2259 4.29289 19.6165C4.68342 20.007 5.31658 20.007 5.70711 19.6165L7.00032 18.3233ZM8.49656 16.827L11.364 13.9596C11.7545 13.5691 11.7545 12.9359 11.364 12.5454C10.9734 12.1549 10.3403 12.1549 9.94975 12.5454L7.08243 15.4127C6.5554 14.2307 6.36045 13.1467 6.4236 12.1854C6.50603 10.9306 7.0323 9.80621 7.97796 8.86055C9.78849 7.05003 13.1967 5.85875 17.8963 6.01334C18.0508 10.7129 16.8595 14.1211 15.049 15.9316C14.1034 16.8773 12.9789 17.4035 11.7242 17.486C10.7628 17.5491 9.67873 17.3541 8.49656 16.827Z" fill="white"/>
</svg>
