<svg width="24" height="24" viewBox="0 0 24 24" fill="none" xmlns="http://www.w3.org/2000/svg">
<path fill-rule="evenodd" clip-rule="evenodd" d="M10.0927 2.67866C10.3536 2.93951 10.4496 3.32279 10.3426 3.67583C10.12 4.41018 10 5.19025 10 6.00016C10 10.4184 13.5817 14.0002 18 14.0002C18.8099 14.0002 19.59 13.8801 20.3243 13.6575C20.6774 13.5505 21.0606 13.6466 21.3215 13.9075C21.5823 14.1683 21.6784 14.5516 21.5714 14.9046C20.3271 19.01 16.5141 22.0002 12 22.0002C6.47715 22.0002 2 17.523 2 12.0002C2 7.48611 4.99017 3.67307 9.09554 2.42876C9.44858 2.32176 9.83186 2.41781 10.0927 2.67866ZM8.04517 5.04416C5.62856 6.42119 4 9.02138 4 12.0002C4 16.4184 7.58172 20.0002 12 20.0002C14.9788 20.0002 17.579 18.3716 18.956 15.955C18.6412 15.9849 18.3223 16.0002 18 16.0002C12.4772 16.0002 8 11.523 8 6.00016C8 5.67787 8.01528 5.35897 8.04517 5.04416Z" fill="white"/>
</svg>
