<svg width="24" height="24" viewBox="0 0 24 24" fill="none" xmlns="http://www.w3.org/2000/svg">
<path fill-rule="evenodd" clip-rule="evenodd" d="M12.0001 5C8.13407 5 5.00006 8.13401 5.00006 12C5.00006 13.9926 5.83259 15.7907 7.16876 17.0654C8.90436 16.608 10.945 15.7641 13.0265 14.5623C15.4685 13.1524 17.4559 11.5449 18.7353 10.0863C17.9027 7.15057 15.2025 5 12.0001 5ZM18.9646 12.7086C17.6256 13.952 15.9378 15.1909 14.0265 16.2944C12.4373 17.2119 10.8442 17.9488 9.3485 18.4804C10.1663 18.8153 11.0616 19 12.0001 19C15.6269 19 18.6095 16.2418 18.9646 12.7086ZM6.64894 19.2371C8.14466 20.3449 9.99586 21 12.0001 21C16.9706 21 21.0001 16.9706 21.0001 12C21.0001 11.5243 20.9632 11.0573 20.8921 10.6015C21.3996 9.92227 21.794 9.23872 22.0264 8.57556C22.3221 7.73171 22.3955 6.78989 21.9188 5.96423C21.4539 5.15892 20.6306 4.75121 19.7767 4.57823C18.9873 4.41831 18.0667 4.43321 17.0871 4.57457C15.64 3.58126 13.8879 3 12.0001 3C7.0295 3 3.00006 7.02944 3.00006 12C3.00006 12.1036 3.00181 12.2068 3.00529 12.3096C2.18797 13.2072 1.54649 14.1175 1.16976 14.9879C0.76029 15.934 0.590048 17.0217 1.13422 17.9642C1.61091 18.7899 2.46325 19.1972 3.34192 19.3631C4.22479 19.5297 5.26896 19.4836 6.37858 19.2876C6.46793 19.2718 6.55805 19.255 6.64894 19.2371ZM4.84273 17.4572C4.26242 16.6973 3.8004 15.8422 3.48413 14.9194C3.27972 15.2278 3.12011 15.5169 3.00523 15.7823C2.70804 16.469 2.78013 16.815 2.86627 16.9642C2.94186 17.0952 3.1488 17.2913 3.7128 17.3977C4.02287 17.4563 4.40109 17.4784 4.84273 17.4572ZM19.1222 6.49701C19.2129 6.50818 19.2987 6.52203 19.3796 6.53842C19.9149 6.64684 20.1129 6.83631 20.1868 6.96423C20.2624 7.09515 20.3288 7.37244 20.1389 7.9141C20.1236 7.95802 20.1067 8.00284 20.0885 8.04852C19.8187 7.49736 19.4943 6.97783 19.1222 6.49701Z" fill="white"/>
</svg>
