<svg width="24" height="24" viewBox="0 0 24 24" fill="none" xmlns="http://www.w3.org/2000/svg">
<path fill-rule="evenodd" clip-rule="evenodd" d="M10 6C10 3.79086 11.7909 2 14 2C16.2091 2 18 3.79086 18 6H20C21.1046 6 22 6.89543 22 8V11.1707C22 11.4953 21.8424 11.7997 21.5774 11.9872C21.3123 12.1746 20.9728 12.2217 20.6668 12.1135C20.4595 12.0403 20.2355 12 20 12C18.8954 12 18 12.8954 18 14C18 15.1046 18.8954 16 20 16C20.2355 16 20.4595 15.9597 20.6668 15.8865C20.9728 15.7783 21.3123 15.8254 21.5774 16.0128C21.8424 16.2003 22 16.5047 22 16.8293V20C22 21.1046 21.1046 22 20 22H8C6.89543 22 6 21.1046 6 20L6 18C3.79086 18 2 16.2091 2 14C2 11.7909 3.79086 10 6 10L6 8C6 6.89543 6.89543 6 8 6L10 6ZM14 4C12.8954 4 12 4.89543 12 6C12 6.23555 12.0403 6.45952 12.1135 6.66675C12.2217 6.97282 12.1746 7.31235 11.9872 7.57739C11.7997 7.84243 11.4953 8 11.1707 8L8 8V11.1707C8 11.4953 7.84243 11.7997 7.57739 11.9872C7.31235 12.1746 6.97282 12.2217 6.66676 12.1135C6.45952 12.0403 6.23554 12 6 12C4.89543 12 4 12.8954 4 14C4 15.1046 4.89543 16 6 16C6.23555 16 6.45952 15.9597 6.66675 15.8865C6.97282 15.7783 7.31235 15.8254 7.57739 16.0128C7.84243 16.2003 8 16.5047 8 16.8293V20H20V18C17.7909 18 16 16.2091 16 14C16 11.7909 17.7909 10 20 10V8L16.8293 8C16.5047 8 16.2003 7.84243 16.0128 7.57739C15.8254 7.31235 15.7783 6.97282 15.8865 6.66675C15.9597 6.45952 16 6.23555 16 6C16 4.89543 15.1046 4 14 4Z" fill="white"/>
</svg>
