<svg width="24" height="24" viewBox="0 0 24 24" fill="none" xmlns="http://www.w3.org/2000/svg">
<path d="M21.2654 20.998H2.73239C2.37513 20.998 2.04502 20.8074 1.86639 20.498C1.68776 20.1886 1.68776 19.8074 1.86639 19.498L11.1324 3.49799C11.3112 3.1891 11.641 2.9989 11.9979 2.9989C12.3548 2.9989 12.6846 3.1891 12.8634 3.49799L22.1294 19.498C22.3079 19.8072 22.308 20.1882 22.1296 20.4975C21.9513 20.8069 21.6215 20.9976 21.2644 20.998H21.2654ZM10.9994 15.998V17.998H11.9324H11.9974H12.0624H12.9974V15.998H10.9994ZM10.9994 8.99799V13.998H12.9994V8.99799H10.9994Z" fill="white"/>
</svg>
