<svg width="24" height="24" viewBox="0 0 24 24" fill="none" xmlns="http://www.w3.org/2000/svg">
<path fill-rule="evenodd" clip-rule="evenodd" d="M17.1739 1.35724C17.5289 0.934161 18.1597 0.878977 18.5828 1.23398L21.6469 3.80513C22.07 4.16013 22.1252 4.79089 21.7702 5.21396C21.4152 5.63704 20.7844 5.69222 20.3614 5.33722L17.2972 2.76607C16.8741 2.41107 16.8189 1.78031 17.1739 1.35724ZM6.83025 1.35748C7.18525 1.78055 7.13006 2.41131 6.70699 2.76631L3.64281 5.33746C3.21974 5.69246 2.58898 5.63728 2.23398 5.21421C1.87898 4.79113 1.93416 4.16037 2.35724 3.80537L5.42141 1.23422C5.84449 0.879221 6.47524 0.934405 6.83025 1.35748ZM12 5.00002C8.13403 5.00002 5.00002 8.13403 5.00002 12C5.00002 15.866 8.13403 19 12 19C15.866 19 19 15.866 19 12C19 8.13403 15.866 5.00002 12 5.00002ZM3.00002 12C3.00002 7.02946 7.02946 3.00002 12 3.00002C16.9706 3.00002 21 7.02946 21 12C21 16.9706 16.9706 21 12 21C7.02946 21 3.00002 16.9706 3.00002 12ZM12 6.00002C12.5523 6.00002 13 6.44774 13 7.00002V11H17C17.5523 11 18 11.4477 18 12C18 12.5523 17.5523 13 17 13H12C11.4477 13 11 12.5523 11 12V7.00002C11 6.44774 11.4477 6.00002 12 6.00002Z" fill="white"/>
</svg>
