<svg width="24" height="24" viewBox="0 0 24 24" fill="none" xmlns="http://www.w3.org/2000/svg">
<path fill-rule="evenodd" clip-rule="evenodd" d="M8 1C8.55228 1 9 1.44772 9 2V3H15V2C15 1.44772 15.4477 1 16 1C16.5523 1 17 1.44772 17 2V3H19C20.1046 3 21 3.89543 21 5V19C21 20.1046 20.1046 21 19 21H5C3.89543 21 3 20.1046 3 19V5C3 3.89543 3.89543 3 5 3H7V2C7 1.44772 7.44772 1 8 1ZM5 5V7H19V5H5ZM19 9H5V19H19V9ZM12 10.5C12.5523 10.5 13 10.9477 13 11.5V13H14.5C15.0523 13 15.5 13.4477 15.5 14C15.5 14.5523 15.0523 15 14.5 15H13V16.5C13 17.0523 12.5523 17.5 12 17.5C11.4477 17.5 11 17.0523 11 16.5V15H9.5C8.94772 15 8.5 14.5523 8.5 14C8.5 13.4477 8.94772 13 9.5 13H11V11.5C11 10.9477 11.4477 10.5 12 10.5Z" fill="white"/>
</svg>
