<svg width="24" height="24" viewBox="0 0 24 24" fill="none" xmlns="http://www.w3.org/2000/svg">
<path fill-rule="evenodd" clip-rule="evenodd" d="M8 1C8.55228 1 9 1.44772 9 2V3H15V2C15 1.44772 15.4477 1 16 1C16.5523 1 17 1.44772 17 2V3H19C20.1046 3 21 3.89543 21 5V19C21 20.1046 20.1046 21 19 21H5C3.89543 21 3 20.1046 3 19V5C3 3.89543 3.89543 3 5 3H7V2C7 1.44772 7.44772 1 8 1ZM5 5V7H19V5H5ZM19 9H5V19H19V9ZM7 12.25C7 11.5596 7.55964 11 8.25 11H11.75C12.4404 11 13 11.5596 13 12.25V15.75C13 16.4404 12.4404 17 11.75 17H8.25C7.55964 17 7 16.4404 7 15.75V12.25ZM9 13V15H11V13H9Z" fill="white"/>
</svg>
