<svg width="24" height="24" viewBox="0 0 24 24" fill="none" xmlns="http://www.w3.org/2000/svg">
<path fill-rule="evenodd" clip-rule="evenodd" d="M8 1C8.55228 1 9 1.44772 9 2V3H15V2C15 1.44772 15.4477 1 16 1C16.5523 1 17 1.44772 17 2V3H19C20.1046 3 21 3.89543 21 5V19C21 20.1046 20.1046 21 19 21H5C3.89543 21 3 20.1046 3 19V5C3 3.89543 3.89543 3 5 3H7V2C7 1.44772 7.44772 1 8 1ZM5 5V7H19V5H5ZM19 9H5V19H19V9ZM9.29289 11.2929C9.68342 10.9024 10.3166 10.9024 10.7071 11.2929L12 12.5858L13.2929 11.2929C13.6834 10.9024 14.3166 10.9024 14.7071 11.2929C15.0976 11.6834 15.0976 12.3166 14.7071 12.7071L13.4142 14L14.7071 15.2929C15.0976 15.6834 15.0976 16.3166 14.7071 16.7071C14.3166 17.0976 13.6834 17.0976 13.2929 16.7071L12 15.4142L10.7071 16.7071C10.3166 17.0976 9.68341 17.0976 9.29288 16.7071C8.90236 16.3166 8.90236 15.6834 9.29288 15.2929L10.5858 14L9.29289 12.7071C8.90237 12.3166 8.90237 11.6834 9.29289 11.2929Z" fill="white"/>
</svg>
