<svg width="24" height="24" viewBox="0 0 24 24" fill="none" xmlns="http://www.w3.org/2000/svg">
<path d="M11.1723 3.7029C11.3468 3.43102 11.2735 3.06344 11.0094 2.88594L9.83124 2.09407C9.57222 1.91996 9.22661 1.99434 9.05548 2.26098L7.59668 4.53404L9.87828 5.71908L11.1723 3.7029Z" fill="white"/>
<path d="M13.1771 7.43228L14.2451 5.76809C14.4196 5.49621 14.3463 5.12863 14.0822 4.95113L12.9041 4.15925C12.6451 3.98515 12.2995 4.05952 12.1283 4.32617L10.8955 6.24719L13.1771 7.43228Z" fill="white"/>
<path d="M14.4658 10.8579L13.4328 10.3809C13.1133 10.2334 12.9986 9.82262 13.1925 9.52039L15.2005 6.39147C15.3716 6.12483 15.7172 6.05046 15.9763 6.22456L16.9118 6.85343C17.1759 7.03093 17.2492 7.39851 17.0747 7.67038L15.1642 10.6474C15.0118 10.8849 14.7168 10.9738 14.4658 10.8579Z" fill="white"/>
<path d="M19.742 8.75561L18.8064 8.12678C18.5474 7.95268 18.2018 8.02705 18.0306 8.29369L16.3175 10.9631C16.1236 11.2653 16.2383 11.6761 16.5578 11.8236L17.5908 12.3005C17.8419 12.4164 18.1368 12.3275 18.2892 12.09L19.9048 9.57253C20.0793 9.30073 20.006 8.93315 19.742 8.75561Z" fill="white"/>
<path d="M17.1328 13.3714C17.3506 13.472 17.5818 13.523 17.8199 13.523C18.2937 13.523 18.7387 13.3181 19.0559 12.965V14.68C19.0559 15.8385 18.5018 16.9139 17.5739 17.5565C17.3645 17.7015 17.223 17.7998 17.223 17.7998C17.0666 17.9086 16.9726 18.0912 16.9726 18.2868V21.4142C16.9726 21.7378 16.7201 22.0001 16.4086 22.0001H7.87785C7.51092 22.0001 7.24164 21.6419 7.33065 21.2721L8.36211 16.9862C8.40303 16.8162 8.36854 16.6361 8.26814 16.4953L4.1108 10.6652C3.96919 10.4666 3.96276 10.197 4.09475 9.99142L6.69018 5.94714C6.84797 5.70128 7.15733 5.61593 7.41176 5.74808L11.975 8.1182C12.2784 8.27582 12.3802 8.67407 12.192 8.96731L11.8469 9.50505C11.7423 9.66806 11.5662 9.76598 11.3776 9.76598H7.81491C7.49434 9.76598 7.23622 10.0438 7.25149 10.3802C7.26578 10.6954 7.52713 10.9379 7.83085 10.9379H10.2439L12.8586 16.37C12.9944 16.6522 13.3201 16.7866 13.5978 16.6589C13.8943 16.5226 14.0181 16.1586 13.8747 15.8607L11.5052 10.9379H11.8617L17.1328 13.3714Z" fill="white"/>
</svg>
