<svg width="24" height="24" viewBox="0 0 24 24" fill="none" xmlns="http://www.w3.org/2000/svg">
<path d="M5.12905 3.00772C5.48514 2.38457 6.14782 2 6.86554 2H17.1335C17.8512 2 18.5139 2.38457 18.8699 3.00772L20.0128 5.00772C20.6607 6.14163 20.0613 7.51107 18.923 7.89532C18.9271 7.97661 18.9264 8.0591 18.9204 8.14249L18.0633 20.1425C17.9885 21.1891 17.1176 22 16.0684 22H7.93061C6.88133 22 6.01045 21.1891 5.93569 20.1425L5.07855 8.14249C5.07259 8.0591 5.07182 7.97661 5.07596 7.89531C3.93764 7.51105 3.33825 6.14162 3.98619 5.00772L5.12905 3.00772ZM7.07347 8L7.28775 11H16.7112L16.9255 8H7.07347ZM7.71632 17L7.93061 20H16.0684L16.2826 17H7.71632ZM18.2763 6L17.1335 4H6.86554L5.72268 6H18.2763Z" fill="white"/>
</svg>
