<svg width="24" height="24" viewBox="0 0 24 24" fill="none" xmlns="http://www.w3.org/2000/svg">
<path fill-rule="evenodd" clip-rule="evenodd" d="M20 4L8 4V16L20 16V4ZM8 2L20 2C21.1046 2 22 2.89543 22 4V16C22 17.1046 21.1046 18 20 18L8 18C6.89543 18 6 17.1046 6 16V4C6 2.89543 6.89543 2 8 2ZM14 6C14.5523 6 15 6.44772 15 7V9H17C17.5523 9 18 9.44772 18 10C18 10.5523 17.5523 11 17 11H15V13C15 13.5523 14.5523 14 14 14C13.4477 14 13 13.5523 13 13V11H11C10.4477 11 10 10.5523 10 10C10 9.44772 10.4477 9 11 9H13V7C13 6.44772 13.4477 6 14 6ZM3 8C3.55228 8 4 8.44772 4 9V20H15C15.5523 20 16 20.4477 16 21C16 21.5523 15.5523 22 15 22H4C2.89543 22 2 21.1046 2 20V9C2 8.44772 2.44772 8 3 8Z" fill="white"/>
</svg>
