<svg width="24" height="24" viewBox="0 0 24 24" fill="none" xmlns="http://www.w3.org/2000/svg">
<path fill-rule="evenodd" clip-rule="evenodd" d="M19 5L5 5L5 19L19 19L19 5ZM5 3L19 3C20.1046 3 21 3.89543 21 5L21 19C21 20.1046 20.1046 21 19 21L5 21C3.89543 21 3 20.1046 3 19L3 5C3 3.89543 3.89543 3 5 3ZM8.2929 8.29289C8.68342 7.90237 9.31659 7.90237 9.70711 8.29289L12 10.5858L14.2928 8.29302C14.6833 7.9025 15.3165 7.9025 15.707 8.29302C16.0975 8.68354 16.0975 9.31671 15.707 9.70723L13.4142 12L15.707 14.2928C16.0975 14.6833 16.0975 15.3165 15.707 15.707C15.3165 16.0975 14.6833 16.0975 14.2928 15.707L12 13.4142L9.70711 15.7071C9.31659 16.0976 8.68342 16.0976 8.2929 15.7071C7.90237 15.3166 7.90237 14.6834 8.2929 14.2929L10.5858 12L8.2929 9.70711C7.90237 9.31658 7.90237 8.68342 8.2929 8.29289Z" fill="white"/>
</svg>
