<svg width="24" height="24" viewBox="0 0 24 24" fill="none" xmlns="http://www.w3.org/2000/svg">
<path fill-rule="evenodd" clip-rule="evenodd" d="M3 5C3 3.89543 3.89543 3 5 3H19C20.1046 3 21 3.89543 21 5V19C21 20.1046 20.1046 21 19 21H5C3.89543 21 3 20.1046 3 19V5ZM19 5H5V19H19V5ZM12 6C12.5523 6 13 6.44772 13 7V8C13 8.55228 12.5523 9 12 9C11.4477 9 11 8.55228 11 8V7C11 6.44772 11.4477 6 12 6ZM12 10C12.5523 10 13 10.4477 13 11V13C13 13.5523 12.5523 14 12 14C11.4477 14 11 13.5523 11 13V11C11 10.4477 11.4477 10 12 10ZM12 15C12.5523 15 13 15.4477 13 16V17C13 17.5523 12.5523 18 12 18C11.4477 18 11 17.5523 11 17V16C11 15.4477 11.4477 15 12 15Z" fill="white"/>
</svg>
