<svg width="24" height="24" viewBox="0 0 24 24" fill="none" xmlns="http://www.w3.org/2000/svg">
<path fill-rule="evenodd" clip-rule="evenodd" d="M8 4C8 2.89543 8.89543 2 10 2H20C21.1046 2 22 2.89543 22 4V14C22 15.1046 21.1046 16 20 16H16V20C16 21.1046 15.1046 22 14 22L4 22C2.89543 22 2 21.1046 2 20L2 10C2 8.89543 2.89543 8 4 8H8V4ZM10 8H14C15.1046 8 16 8.89543 16 10V14H20L20 4H10V8ZM14 14.999V10H4V20L14 20V15.001C14 15.0007 14 15.0003 14 15C14 14.9997 14 14.9993 14 14.999Z" fill="white"/>
</svg>
