<svg width="24" height="24" viewBox="0 0 24 24" fill="none" xmlns="http://www.w3.org/2000/svg">
<path fill-rule="evenodd" clip-rule="evenodd" d="M6 4C6 2.89543 6.89543 2 8 2H12C13.1046 2 14 2.89543 14 4L8 4V20H10C10.5523 20 11 20.4477 11 21C11 21.5523 10.5523 22 10 22H8C6.89543 22 6 21.1046 6 20V4ZM14 4V11C14 11.5523 13.5523 12 13 12C12.4477 12 12 11.5523 12 11L12 4L14 4ZM13 15H19C19.5523 15 20 15.4477 20 16C20 16.5523 19.5523 17 19 17H13C12.4477 17 12 16.5523 12 16C12 15.4477 12.4477 15 13 15Z" fill="white"/>
</svg>
