<svg width="24" height="24" viewBox="0 0 24 24" fill="none" xmlns="http://www.w3.org/2000/svg">
<path fill-rule="evenodd" clip-rule="evenodd" d="M2 8C2 6.89543 2.89543 6 4 6H20C21.1046 6 22 6.89543 22 8V10C22 10.5523 21.5523 11 21 11C20.4477 11 20 10.5523 20 10V8L4 8L4 12H11C11.5523 12 12 12.4477 12 13C12 13.5523 11.5523 14 11 14H4C2.89543 14 2 13.1046 2 12L2 8ZM13 16C13 15.4477 13.4477 15 14 15H20C20.5523 15 21 15.4477 21 16C21 16.5523 20.5523 17 20 17H14C13.4477 17 13 16.5523 13 16Z" fill="white"/>
</svg>
