<svg width="24" height="24" viewBox="0 0 24 24" fill="none" xmlns="http://www.w3.org/2000/svg">
<path fill-rule="evenodd" clip-rule="evenodd" d="M4 8C4 6.89543 4.89543 6 6 6L9 6C10.1046 6 11 6.89543 11 8V14C11 16.2091 9.20914 18 7 18C6.44771 18 6 17.5523 6 17C6 16.4477 6.44772 16 7 16C8.10457 16 9 15.1046 9 14L9 13L6 13C4.89543 13 4 12.1046 4 11L4 8ZM9 11L9 8L6 8L6 11L9 11ZM13 8C13 6.89543 13.8954 6 15 6L18 6C19.1046 6 20 6.89543 20 8V14C20 16.2091 18.2091 18 16 18C15.4477 18 15 17.5523 15 17C15 16.4477 15.4477 16 16 16C17.1046 16 18 15.1046 18 14V13L15 13C13.8954 13 13 12.1046 13 11L13 8ZM18 11L18 8L15 8L15 11L18 11Z" fill="white"/>
</svg>
