<svg width="24" height="24" viewBox="0 0 24 24" fill="none" xmlns="http://www.w3.org/2000/svg">
<path fill-rule="evenodd" clip-rule="evenodd" d="M8 8C6.89543 8 6 8.89543 6 10L6 11L9 11C10.1046 11 11 11.8954 11 13L11 16C11 17.1046 10.1046 18 9 18H6C4.89543 18 4 17.1046 4 16V10C4 7.79086 5.79086 6 8 6C8.55229 6 9 6.44772 9 7C9 7.55228 8.55229 8 8 8ZM6 13L6 16H9L9 13L6 13ZM17 8C15.8954 8 15 8.89543 15 10V11L18 11C19.1046 11 20 11.8954 20 13V16C20 17.1046 19.1046 18 18 18H15C13.8954 18 13 17.1046 13 16V10C13 7.79086 14.7909 6 17 6C17.5523 6 18 6.44772 18 7C18 7.55228 17.5523 8 17 8ZM15 13V16H18V13L15 13Z" fill="white"/>
</svg>
