<svg width="24" height="24" viewBox="0 0 24 24" fill="none" xmlns="http://www.w3.org/2000/svg">
<path fill-rule="evenodd" clip-rule="evenodd" d="M14.5858 3.99997C15.3668 3.21892 16.6332 3.21892 17.4142 3.99997L20 6.58576C20.781 7.36681 20.781 8.63314 20 9.41418L16.7073 12.7069L10.4142 19H20C20.5523 19 21 19.4477 21 20C21 20.5523 20.5523 21 20 21H4C3.44772 21 3 20.5523 3 20V16C3 15.7348 3.10536 15.4804 3.29289 15.2929L11.2924 7.29339C11.2925 7.29322 11.2922 7.29357 11.2924 7.29339C11.2925 7.29322 11.2932 7.29251 11.2934 7.29233L14.5858 3.99997ZM12 9.41418L5 16.4142V19H7.58579L14.5858 12L12 9.41418ZM16 10.5858L13.4142 7.99997L16 5.41418L18.5858 7.99997L16 10.5858Z" fill="white"/>
</svg>
