<svg width="24" height="24" viewBox="0 0 24 24" fill="none" xmlns="http://www.w3.org/2000/svg">
<path fill-rule="evenodd" clip-rule="evenodd" d="M3 4C3.55228 4 4 4.44772 4 5V11H10V5C10 4.44772 10.4477 4 11 4C11.5523 4 12 4.44772 12 5V19C12 19.5523 11.5523 20 11 20C10.4477 20 10 19.5523 10 19V13H4V19C4 19.5523 3.55228 20 3 20C2.44772 20 2 19.5523 2 19V5C2 4.44772 2.44772 4 3 4ZM16.0297 8.75818C16.1407 8.31267 16.5409 8 17 8H21C21.5523 8 22 8.44772 22 9C22 9.55228 21.5523 10 21 10H17.7814L17.266 12.0679C18.1022 11.9118 18.9693 12.026 19.7398 12.3981C20.5988 12.813 21.2812 13.5212 21.664 14.395C22.0467 15.2687 22.1046 16.2505 21.8272 17.1632C21.5499 18.0759 20.9554 18.8594 20.1512 19.3724C19.3469 19.8854 18.3858 20.094 17.4413 19.9608C16.4967 19.8275 15.6309 19.3611 15 18.6456C14.6347 18.2314 14.6744 17.5994 15.0886 17.2342C15.5028 16.8689 16.1348 16.9086 16.5 17.3228C16.8155 17.6805 17.2484 17.9138 17.7207 17.9804C18.193 18.047 18.6735 17.9427 19.0756 17.6862C19.4778 17.4297 19.775 17.0379 19.9137 16.5816C20.0524 16.1252 20.0234 15.6344 19.832 15.1975C19.6407 14.7606 19.2994 14.4065 18.87 14.1991C18.4405 13.9916 17.951 13.9445 17.4898 14.0662C17.1822 14.1474 16.9006 14.3001 16.6667 14.5093C16.608 14.5618 16.5524 14.6179 16.5 14.6772C16.1951 15.023 15.6933 15.1155 15.2852 14.9012C14.877 14.6869 14.6682 14.2213 14.7797 13.774L16.0297 8.75818Z" fill="white"/>
</svg>
