<svg width="24" height="24" viewBox="0 0 24 24" fill="none" xmlns="http://www.w3.org/2000/svg">
<path fill-rule="evenodd" clip-rule="evenodd" d="M3 4C3.55228 4 4 4.44772 4 5V11H10V5C10 4.44772 10.4477 4 11 4C11.5523 4 12 4.44772 12 5V19C12 19.5523 11.5523 20 11 20C10.4477 20 10 19.5523 10 19V13H4V19C4 19.5523 3.55228 20 3 20C2.44772 20 2 19.5523 2 19V5C2 4.44772 2.44772 4 3 4ZM19.4828 7.12428C19.9665 7.39094 20.1424 7.99918 19.8757 8.48283L17.9178 12.0339C18.6238 12.0187 19.3426 12.1895 19.9984 12.5659C21.9115 13.6642 22.5714 16.1018 21.4634 18.0101C20.3572 19.9151 17.9125 20.5635 16.0026 19.4671C14.0929 18.3708 13.4319 15.94 14.5317 14.0332L18.1243 7.51717C18.3909 7.03353 18.9992 6.85763 19.4828 7.12428ZM19.0026 14.3004C18.0427 13.7494 16.818 14.0787 16.2672 15.0272C15.7184 15.9723 16.0418 17.1835 16.9984 17.7326C17.9583 18.2837 19.1831 17.9544 19.7338 17.0059C20.2826 16.0607 19.9592 14.8496 19.0026 14.3004Z" fill="white"/>
</svg>
