<svg width="24" height="24" viewBox="0 0 24 24" fill="none" xmlns="http://www.w3.org/2000/svg">
<path fill-rule="evenodd" clip-rule="evenodd" d="M3.29289 3.29289C3.68341 2.90237 4.31657 2.90237 4.7071 3.29289L20.7071 19.2929C21.0976 19.6834 21.0976 20.3166 20.7071 20.7071C20.3166 21.0976 19.6834 21.0976 19.2929 20.7071L16.4771 17.8913C15.1423 18.5411 13.6257 19 12 19C8.89044 19 6.1648 17.3233 4.29076 15.7699C3.33956 14.9815 2.57227 14.1953 2.0424 13.6063C1.77689 13.3112 1.56946 13.0638 1.42683 12.8881C1.35548 12.8003 1.30023 12.7302 1.26192 12.6809C1.24277 12.6562 1.22784 12.6367 1.21724 12.6228L1.2046 12.6061L1.20074 12.601L1.19943 12.5992C1.19922 12.599 1.19853 12.598 1.99999 12C1.19853 11.402 1.19866 11.4018 1.19879 11.4016L1.19986 11.4002L1.20196 11.3974L1.20847 11.3887L1.23061 11.3597C1.2494 11.3352 1.2762 11.3006 1.31075 11.2568C1.37983 11.1692 1.48 11.0449 1.60914 10.8913C1.86719 10.5845 2.24222 10.1594 2.71718 9.67711C3.47583 8.90679 4.50468 7.97511 5.73304 7.14727L3.29289 4.70711C2.90236 4.31658 2.90236 3.68342 3.29289 3.29289ZM7.17765 8.59187C5.95415 9.3685 4.91088 10.2999 4.14213 11.0805C3.79677 11.4312 3.51056 11.7476 3.29219 12C3.36395 12.083 3.44308 12.1729 3.52928 12.2687C4.01147 12.8047 4.70865 13.5185 5.56709 14.2301C7.31234 15.6767 9.5867 17 12 17C13.0183 17 14.0151 16.7648 14.964 16.3783L13.2932 14.7074C12.9014 14.8948 12.4625 15 12 15C10.3431 15 8.99999 13.6569 8.99999 12C8.99999 11.5373 9.10518 11.0985 9.29256 10.7068L7.17765 8.59187ZM1.99999 12L1.19879 11.4016C0.934073 11.7564 0.933813 12.2433 1.19853 12.598L1.99999 12ZM12 7C11.7068 7 11.4156 7.01946 11.1269 7.0564C10.5791 7.12648 10.0782 6.73919 10.0081 6.19137C9.938 5.64355 10.3253 5.14264 10.8731 5.07256C11.2422 5.02535 11.6182 5 12 5C15.1095 5 17.8352 6.67673 19.7092 8.2301C20.6604 9.01854 21.4277 9.8047 21.9576 10.3937C22.2231 10.6888 22.4305 10.9362 22.5732 11.1119C22.6445 11.1997 22.6998 11.2698 22.7381 11.3191C22.7572 11.3438 22.7721 11.3633 22.7827 11.3772L22.7954 11.3939L22.7992 11.399L22.8006 11.4008C22.8008 11.401 22.8015 11.402 22 12C22.8015 12.598 22.8014 12.5982 22.8013 12.5983L22.7995 12.6007L22.7961 12.6051L22.7853 12.6195C22.7809 12.6253 22.7757 12.6321 22.7696 12.64C22.7631 12.6486 22.7556 12.6583 22.7471 12.6692C22.7145 12.7114 22.6675 12.7713 22.6068 12.8466C22.4855 12.9971 22.3091 13.2096 22.0829 13.4657C21.6313 13.977 20.9766 14.6667 20.1604 15.3846C19.7457 15.7493 19.1138 15.7088 18.7491 15.2941C18.3844 14.8794 18.4249 14.2475 18.8396 13.8828C19.5793 13.2322 20.1746 12.6051 20.584 12.1416C20.6274 12.0925 20.6687 12.0452 20.7078 12C20.636 11.917 20.5569 11.8271 20.4707 11.7313C19.9885 11.1953 19.2913 10.4815 18.4329 9.7699C16.6876 8.32327 14.4133 7 12 7ZM22 12L22.8013 12.5983C23.066 12.2435 23.0662 11.7567 22.8015 11.402L22 12Z" fill="white"/>
</svg>
