<svg width="24" height="24" viewBox="0 0 24 24" fill="none" xmlns="http://www.w3.org/2000/svg">
<path fill-rule="evenodd" clip-rule="evenodd" d="M11.4453 1.16795C11.7812 0.944017 12.2188 0.944017 12.5547 1.16795L21.5547 7.16795C21.8329 7.35342 22 7.66565 22 8C22 8.33435 21.8329 8.64658 21.5547 8.83205L12.5547 14.8321C12.2188 15.056 11.7812 15.056 11.4453 14.8321L2.44528 8.83205C2.16709 8.64658 1.99998 8.33435 1.99998 8C1.99998 7.66565 2.16709 7.35342 2.44528 7.16795L11.4453 1.16795ZM4.80276 8L12 12.7982L19.1972 8L12 3.20185L4.80276 8ZM2.16793 11.4453C2.47429 10.9858 3.09516 10.8616 3.55468 11.1679L12 16.7982L20.4453 11.1679C20.9048 10.8616 21.5257 10.9858 21.832 11.4453C22.1384 11.9048 22.0142 12.5257 21.5547 12.8321L12.5547 18.8321C12.2188 19.056 11.7812 19.056 11.4453 18.8321L2.44528 12.8321C1.98576 12.5257 1.86158 11.9048 2.16793 11.4453ZM2.16793 15.4453C2.47429 14.9858 3.09516 14.8616 3.55468 15.1679L12 20.7981L20.4453 15.1679C20.9048 14.8616 21.5257 14.9858 21.832 15.4453C22.1384 15.9048 22.0142 16.5257 21.5547 16.8321L12.5547 22.8321C12.2188 23.056 11.7812 23.056 11.4453 22.8321L2.44528 16.8321C1.98576 16.5257 1.86158 15.9048 2.16793 15.4453Z" fill="white"/>
</svg>
