<svg width="24" height="24" viewBox="0 0 24 24" fill="none" xmlns="http://www.w3.org/2000/svg">
<path fill-rule="evenodd" clip-rule="evenodd" d="M6.52571 3.14935C6.82052 3.33156 6.99997 3.65342 6.99997 4V10C6.99997 10.5523 6.55226 11 5.99997 11C5.44769 11 4.99997 10.5523 4.99997 10V5.61804L4.44719 5.89443C3.95321 6.14142 3.35254 5.94119 3.10555 5.44721C2.85856 4.95324 3.05878 4.35256 3.55276 4.10557L5.55276 3.10557C5.86275 2.95058 6.23089 2.96714 6.52571 3.14935ZM8.99997 7C8.99997 6.44772 9.44769 6 9.99997 6H20C20.5523 6 21 6.44772 21 7C21 7.55229 20.5523 8 20 8H9.99997C9.44769 8 8.99997 7.55229 8.99997 7ZM8.99997 12C8.99997 11.4477 9.44769 11 9.99997 11H20C20.5523 11 21 11.4477 21 12C21 12.5523 20.5523 13 20 13H9.99997C9.44769 13 8.99997 12.5523 8.99997 12ZM5.49997 15C5.22383 15 4.99997 15.2239 4.99997 15.5V15.6853C4.99997 16.2376 4.55226 16.6853 3.99997 16.6853C3.44769 16.6853 2.99997 16.2376 2.99997 15.6853V15.5C2.99997 14.1193 4.11926 13 5.49997 13H5.54052C6.89884 13 7.99997 14.1011 7.99997 15.4595C7.99997 16.0267 7.816 16.5786 7.47565 17.0324L5.99998 19H6.99997C7.55226 19 7.99997 19.4477 7.99997 20C7.99997 20.5523 7.55226 21 6.99997 21H3.99997C3.6212 21 3.27494 20.786 3.10555 20.4472C2.93616 20.1084 2.97271 19.703 3.19997 19.4L5.87565 15.8324C5.95635 15.7248 5.99997 15.594 5.99997 15.4595C5.99997 15.2057 5.79427 15 5.54052 15H5.49997ZM8.99997 17C8.99997 16.4477 9.44769 16 9.99997 16H20C20.5523 16 21 16.4477 21 17C21 17.5523 20.5523 18 20 18H9.99997C9.44769 18 8.99997 17.5523 8.99997 17Z" fill="white"/>
</svg>
