<svg width="24" height="24" viewBox="0 0 24 24" fill="none" xmlns="http://www.w3.org/2000/svg">
<path fill-rule="evenodd" clip-rule="evenodd" d="M4 7C4 6.44772 4.44772 6 5 6H5.002C5.55428 6 6.002 6.44772 6.002 7V7.002C6.002 7.55428 5.55428 8.002 5.002 8.002H5C4.44772 8.002 4 7.55428 4 7.002V7ZM8 7C8 6.44772 8.44772 6 9 6H19C19.5523 6 20 6.44772 20 7C20 7.55228 19.5523 8 19 8H9C8.44772 8 8 7.55228 8 7ZM4 12C4 11.4477 4.44772 11 5 11H5.002C5.55428 11 6.002 11.4477 6.002 12V12.002C6.002 12.5543 5.55428 13.002 5.002 13.002H5C4.44772 13.002 4 12.5543 4 12.002V12ZM8 12C8 11.4477 8.44772 11 9 11H19C19.5523 11 20 11.4477 20 12C20 12.5523 19.5523 13 19 13H9C8.44772 13 8 12.5523 8 12ZM4 17C4 16.4477 4.44772 16 5 16H5.002C5.55428 16 6.002 16.4477 6.002 17V17.002C6.002 17.5543 5.55428 18.002 5.002 18.002H5C4.44772 18.002 4 17.5543 4 17.002V17ZM8 17C8 16.4477 8.44772 16 9 16H19C19.5523 16 20 16.4477 20 17C20 17.5523 19.5523 18 19 18H9C8.44772 18 8 17.5523 8 17Z" fill="white"/>
</svg>
