<svg width="24" height="24" viewBox="0 0 24 24" fill="none" xmlns="http://www.w3.org/2000/svg">
<path fill-rule="evenodd" clip-rule="evenodd" d="M9.34176 4.45456C10.9563 3.88575 12.7107 3.84984 14.3472 4.35209C15.9837 4.85434 17.4159 5.86828 18.4334 7.24489C19.4509 8.6215 20 10.2882 20 12V13C20 14.6569 18.6569 16 17 16C16.0831 16 15.2622 15.5886 14.7119 14.9404C13.9991 15.5982 13.0465 16 12 16C9.79086 16 8 14.2091 8 12C8 9.79086 9.79086 8 12 8C12.7654 8 13.4807 8.215 14.0886 8.58791C14.2456 8.2412 14.5946 8 15 8C15.5523 8 16 8.44772 16 9V13C16 13.5523 16.4477 14 17 14C17.5523 14 18 13.5523 18 13V12C18 10.7161 17.5882 9.46612 16.8251 8.43367C16.062 7.40121 14.9878 6.64076 13.7604 6.26407C12.5331 5.88738 11.2172 5.91431 10.0063 6.34092C8.7954 6.76752 7.75325 7.5713 7.03303 8.63412C6.31281 9.69694 5.95249 10.9628 6.00503 12.2455C6.05757 13.5283 6.5202 14.7604 7.32493 15.7608C8.12966 16.7612 9.23405 17.477 10.4758 17.8032C11.7175 18.1293 13.0312 18.0486 14.2236 17.5728C14.7366 17.3681 15.3183 17.618 15.523 18.1309C15.7277 18.6439 15.4778 19.2257 14.9648 19.4303C13.3749 20.0647 11.6234 20.1724 9.96773 19.7376C8.31206 19.3027 6.83954 18.3482 5.76657 17.0144C4.6936 15.6806 4.07676 14.0378 4.0067 12.3274C3.93665 10.617 4.41707 8.92925 5.37737 7.51215C6.33767 6.09506 7.7272 5.02336 9.34176 4.45456ZM14 12C14 10.8954 13.1046 10 12 10C10.8954 10 10 10.8954 10 12C10 13.1046 10.8954 14 12 14C13.1046 14 14 13.1046 14 12Z" fill="white"/>
</svg>
