<svg width="24" height="24" viewBox="0 0 24 24" fill="none" xmlns="http://www.w3.org/2000/svg">
<path fill-rule="evenodd" clip-rule="evenodd" d="M18.1475 5.27727C16.4877 3.61754 13.7968 3.61754 12.137 5.27727L5.24275 12.1716C4.85223 12.5621 4.21906 12.5621 3.82854 12.1716C3.43801 11.781 3.43801 11.1479 3.82854 10.7573L10.7228 3.86305C13.1636 1.42228 17.1209 1.42228 19.5617 3.86305C22.0024 6.30383 22.0024 10.2611 19.5617 12.7019L11.6067 20.6568C9.84935 22.4142 7.00011 22.4142 5.24275 20.6568C3.48539 18.8995 3.48539 16.0502 5.24275 14.2929L13.1977 6.33793C14.2716 5.26398 16.0128 5.26398 17.0868 6.33793C18.1607 7.41187 18.1607 9.15307 17.0868 10.227L10.1925 17.1213C9.80197 17.5118 9.16881 17.5118 8.77829 17.1213C8.38776 16.7308 8.38776 16.0976 8.77829 15.7071L15.6726 8.8128C15.9655 8.51991 15.9655 8.04503 15.6726 7.75214C15.3797 7.45925 14.9048 7.45925 14.6119 7.75214L6.65696 15.7071C5.68065 16.6834 5.68065 18.2663 6.65696 19.2426C7.63328 20.2189 9.21619 20.2189 10.1925 19.2426L18.1475 11.2877C19.8072 9.62795 19.8072 6.93699 18.1475 5.27727Z" fill="white"/>
</svg>
