<svg width="24" height="24" viewBox="0 0 24 24" fill="none" xmlns="http://www.w3.org/2000/svg">
<path fill-rule="evenodd" clip-rule="evenodd" d="M19 2C19.5523 2 20 2.44772 20 3V8C20 8.55228 19.5523 9 19 9H14C13.4477 9 13 8.55228 13 8C13 7.44772 13.4477 7 14 7H16.899C16.1355 6.25196 15.2067 5.68467 14.1805 5.34829C12.758 4.88195 11.2234 4.88396 9.80205 5.35402C8.38072 5.82408 7.14752 6.73743 6.28351 7.95998C5.4195 9.18253 4.97018 10.6499 5.00154 12.1466C5.03289 13.6433 5.54325 15.0906 6.4577 16.2759C7.37215 17.4612 8.64252 18.3221 10.0823 18.7322C11.5221 19.1423 13.0554 19.0801 14.4572 18.5546C15.859 18.0291 17.0553 17.068 17.8707 15.8125C18.1715 15.3493 18.7908 15.2176 19.254 15.5184C19.7172 15.8192 19.8488 16.4386 19.548 16.9018C18.4997 18.516 16.9615 19.7517 15.1592 20.4273C13.3569 21.1029 11.3855 21.183 9.53437 20.6557C7.68323 20.1284 6.04991 19.0215 4.87419 17.4975C3.69847 15.9736 3.04228 14.1128 3.00197 12.1885C2.96167 10.2641 3.53935 8.37754 4.65023 6.80569C5.7611 5.23384 7.34664 4.05953 9.17407 3.45517C11.0015 2.85081 12.9745 2.84822 14.8036 3.4478C15.9918 3.83734 17.0786 4.4677 18 5.29179V3C18 2.44772 18.4477 2 19 2Z" fill="white"/>
</svg>
