<svg width="24" height="24" viewBox="0 0 24 24" fill="none" xmlns="http://www.w3.org/2000/svg">
<path fill-rule="evenodd" clip-rule="evenodd" d="M14.1212 2.80747C14.9022 2.02642 16.1686 2.02642 16.9496 2.80747L21.1922 7.05011C21.9733 7.83115 21.9733 9.09748 21.1922 9.87853L9.87853 21.1922C9.09748 21.9733 7.83115 21.9733 7.05011 21.1922L2.80747 16.9496C2.02642 16.1686 2.02642 14.9022 2.80747 14.1212L8.45669 8.47195C8.4592 8.46939 8.46173 8.46683 8.46428 8.46428C8.46683 8.46173 8.46939 8.4592 8.47195 8.45669L14.1212 2.80747ZM9.17143 10.5856L10.5856 11.9998C10.9761 12.3903 11.6093 12.3903 11.9998 11.9998C12.3903 11.6093 12.3903 10.9761 11.9998 10.5856L10.5856 9.17143L11.9998 7.75727L13.4142 9.17169C13.8047 9.56221 14.4379 9.56221 14.8284 9.17169C15.219 8.78116 15.219 8.148 14.8284 7.75748L13.414 6.34306L15.5354 4.22168L19.778 8.46432L8.46432 19.778L4.22168 15.5354L6.34306 13.414L7.75747 14.8284C8.148 15.219 8.78116 15.219 9.17169 14.8284C9.56221 14.4379 9.56221 13.8047 9.17169 13.4142L7.75727 11.9998L9.17143 10.5856Z" fill="white"/>
</svg>
