<svg width="24" height="24" viewBox="0 0 24 24" fill="none" xmlns="http://www.w3.org/2000/svg">
<path d="M17.5775 19L12.8105 14.234C10.6544 15.6564 7.77155 15.2164 6.13786 13.2156C4.50418 11.2147 4.64963 8.30214 6.47454 6.474C8.30235 4.6484 11.2153 4.50231 13.2165 6.13589C15.2178 7.76946 15.6581 10.6526 14.2355 12.809L19.0005 17.577L17.5775 19ZM10.0345 7.014C8.59379 7.01309 7.35302 8.03002 7.07102 9.44291C6.78903 10.8558 7.54435 12.2711 8.87506 12.8234C10.2058 13.3756 11.7413 12.9109 12.5425 11.7135C13.3438 10.5161 13.1876 8.91947 12.1695 7.9C11.6048 7.33135 10.836 7.0123 10.0345 7.014Z" fill="white"/>
</svg>
