<svg width="24" height="24" viewBox="0 0 24 24" fill="none" xmlns="http://www.w3.org/2000/svg">
<path d="M16.5775 20L10.8105 14.234C8.65436 15.6564 5.77155 15.2164 4.13786 13.2155C2.50418 11.2147 2.64963 8.30213 4.47454 6.474C6.30235 4.64839 9.21524 4.50231 11.2165 6.13588C13.2178 7.76946 13.6581 10.6526 12.2355 12.809L18.0005 18.576L16.5775 20ZM8.03454 7.01399C6.59379 7.01308 5.35302 8.03002 5.07102 9.4429C4.78903 10.8558 5.54435 12.2711 6.87506 12.8234C8.20578 13.3756 9.74128 12.9109 10.5425 11.7135C11.3438 10.5161 11.1876 8.91946 10.1695 7.9C9.60479 7.33134 8.83598 7.0123 8.03454 7.01399ZM19.0005 11H17.0005V9H15.0005V7H17.0005V5H19.0005V7H21.0005V9H19.0005V11Z" fill="white"/>
</svg>
