<svg width="24" height="24" viewBox="0 0 24 24" fill="none" xmlns="http://www.w3.org/2000/svg">
<path fill-rule="evenodd" clip-rule="evenodd" d="M20 4L8 4V16L20 16V4ZM8 2L20 2C21.1046 2 22 2.89543 22 4V16C22 17.1046 21.1046 18 20 18L8 18C6.89543 18 6 17.1046 6 16V4C6 2.89543 6.89543 2 8 2ZM16.2929 7.29289C16.6834 6.90237 17.3166 6.90237 17.7071 7.29289C18.0976 7.68342 18.0976 8.31658 17.7071 8.70711L13.7071 12.7071C13.3166 13.0976 12.6834 13.0976 12.2929 12.7071L10.2929 10.7071C9.90237 10.3166 9.90237 9.68342 10.2929 9.29289C10.6834 8.90237 11.3166 8.90237 11.7071 9.29289L13 10.5858L16.2929 7.29289ZM3 8C3.55228 8 4 8.44772 4 9V20H15C15.5523 20 16 20.4477 16 21C16 21.5523 15.5523 22 15 22H4C2.89543 22 2 21.1046 2 20V9C2 8.44772 2.44772 8 3 8Z" fill="white"/>
</svg>
