<svg width="24" height="24" viewBox="0 0 24 24" fill="none" xmlns="http://www.w3.org/2000/svg">
<path fill-rule="evenodd" clip-rule="evenodd" d="M3.29219 12C3.36395 12.083 3.44309 12.1729 3.52929 12.2687C4.01148 12.8047 4.70866 13.5185 5.5671 14.2301C7.31235 15.6767 9.58671 17 12 17C14.4133 17 16.6877 15.6767 18.4329 14.2301C19.2913 13.5185 19.9885 12.8047 20.4707 12.2687C20.5569 12.1729 20.636 12.083 20.7078 12C20.636 11.917 20.5569 11.8271 20.4707 11.7313C19.9885 11.1953 19.2913 10.4815 18.4329 9.7699C16.6877 8.32327 14.4133 7 12 7C9.58671 7 7.31235 8.32327 5.5671 9.7699C4.70866 10.4815 4.01148 11.1953 3.52929 11.7313C3.44309 11.8271 3.36395 11.917 3.29219 12ZM22 12C22.8015 11.402 22.8013 11.4017 22.8011 11.4014L22.7993 11.399L22.7954 11.3939L22.7828 11.3772C22.7722 11.3633 22.7572 11.3438 22.7381 11.3191C22.6998 11.2698 22.6445 11.1997 22.5732 11.1119C22.4305 10.9362 22.2231 10.6888 21.9576 10.3937C21.4277 9.8047 20.6604 9.01854 19.7092 8.2301C17.8352 6.67673 15.1096 5 12 5C8.89044 5 6.1648 6.67673 4.29077 8.2301C3.33956 9.01854 2.57228 9.8047 2.04241 10.3937C1.77689 10.6888 1.56947 10.9362 1.42684 11.1119C1.35548 11.1997 1.30024 11.2698 1.26193 11.3191C1.24278 11.3438 1.22785 11.3633 1.21725 11.3772L1.20461 11.3939L1.20075 11.399L1.19944 11.4008C1.19923 11.401 1.19854 11.402 2 12L1.19854 11.402C0.933821 11.7567 0.933821 12.2433 1.19854 12.598L2 12C1.19854 12.598 1.19833 12.5978 1.19854 12.598L1.20075 12.601L1.20461 12.6061L1.21725 12.6228C1.22785 12.6367 1.24278 12.6562 1.26193 12.6809C1.30024 12.7302 1.35548 12.8003 1.42684 12.8881C1.56947 13.0638 1.77689 13.3112 2.04241 13.6063C2.57228 14.1953 3.33956 14.9815 4.29077 15.7699C6.1648 17.3233 8.89044 19 12 19C15.1096 19 17.8352 17.3233 19.7092 15.7699C20.6604 14.9815 21.4277 14.1953 21.9576 13.6063C22.2231 13.3112 22.4305 13.0638 22.5732 12.8881C22.6445 12.8003 22.6998 12.7302 22.7381 12.6809C22.7572 12.6562 22.7722 12.6367 22.7828 12.6228L22.7954 12.6061L22.7993 12.601L22.8006 12.5992C22.8008 12.599 22.8015 12.598 22 12ZM22 12L22.8015 12.598C23.0662 12.2433 23.0658 11.7562 22.8011 11.4014L22 12ZM12 11C11.4477 11 11 11.4477 11 12C11 12.5523 11.4477 13 12 13C12.5523 13 13 12.5523 13 12C13 11.4477 12.5523 11 12 11ZM9 12C9 10.3431 10.3431 9 12 9C13.6569 9 15 10.3431 15 12C15 13.6569 13.6569 15 12 15C10.3431 15 9 13.6569 9 12Z" fill="white"/>
</svg>
