<svg width="24" height="24" viewBox="0 0 24 24" fill="none" xmlns="http://www.w3.org/2000/svg">
<path fill-rule="evenodd" clip-rule="evenodd" d="M12.2637 5.00663C11.5104 4.96871 10.7646 5.09417 10.1075 5.362C9.45007 5.62998 8.92273 6.02317 8.56179 6.47817C8.20307 6.93037 8.02084 7.4264 8.0017 7.91361C7.99604 8.05773 8.00455 8.20165 8.02704 8.34443C8.11296 8.88999 7.74035 9.4019 7.19479 9.48782C6.64923 9.57374 6.13731 9.20113 6.05139 8.65557C6.00877 8.38496 5.99242 8.11054 6.00324 7.8351C6.04035 6.8903 6.39404 5.99269 6.99493 5.23521C7.59359 4.48054 8.41433 3.8924 9.35258 3.50995C10.2912 3.12734 11.3302 2.95711 12.3642 3.00916C13.3982 3.0612 14.4078 3.33453 15.2881 3.81313C16.1683 4.29171 16.902 4.96695 17.3861 5.78988C17.6661 6.26592 17.5072 6.87882 17.0311 7.15883C16.5551 7.43884 15.9422 7.27992 15.6622 6.80388C15.3837 6.33046 14.9337 5.89695 14.3328 5.57023C13.7319 5.24352 13.0171 5.04455 12.2637 5.00663ZM3 12C3 11.4477 3.44772 11 4 11H20C20.5523 11 21 11.4477 21 12C21 12.5523 20.5523 13 20 13H16.8062C16.9503 13.1606 17.0838 13.3296 17.2054 13.5066C17.7507 14.3002 18.0336 15.2194 17.9965 16.1649C17.9594 17.1097 17.6057 18.0073 17.0048 18.7648C16.4061 19.5195 15.5854 20.1076 14.6471 20.49C13.7085 20.8727 12.6696 21.0429 11.6355 20.9908C10.6016 20.9388 9.59195 20.6655 8.71165 20.1869C7.83139 19.7083 7.0977 19.0331 6.61364 18.2101C6.33363 17.7341 6.49255 17.1212 6.96859 16.8412C7.44462 16.5612 8.05752 16.7201 8.33753 17.1961C8.616 17.6695 9.06601 18.103 9.66695 18.4298C10.2679 18.7565 10.9826 18.9554 11.736 18.9934C12.4893 19.0313 13.2352 18.9058 13.8922 18.638C14.5497 18.37 15.077 17.9768 15.4379 17.5218C15.7967 17.0696 15.9789 16.5736 15.998 16.0864C16.0171 15.5999 15.8745 15.1013 15.5571 14.6393C15.382 14.3845 15.1561 14.1448 14.8827 13.9304C14.6575 13.7538 14.4011 13.5953 14.1173 13.461C13.4869 13.1627 12.7549 13 11.9997 13H4C3.44772 13 3 12.5523 3 12Z" fill="white"/>
</svg>
