<svg width="24" height="24" viewBox="0 0 24 24" fill="none" xmlns="http://www.w3.org/2000/svg">
<path fill-rule="evenodd" clip-rule="evenodd" d="M7.58012 3.81195L4.08606 16.852C3.7287 18.1856 4.52016 19.5565 5.85382 19.9138C7.18749 20.2712 8.55833 19.4797 8.91569 18.146L12.4097 5.10605L7.58012 3.81195ZM5.77006 2.83976C5.98868 2.02387 6.82731 1.53969 7.6432 1.7583L13.3819 3.29599C14.1978 3.51461 14.682 4.35324 14.4634 5.16913L13.3452 9.3424L17.2607 7.51656C18.0262 7.15959 18.9362 7.49079 19.2932 8.25632L21.804 13.6409C21.889 13.823 21.9349 14.0133 21.9454 14.2024C21.9808 14.3049 22 14.4148 22 14.5293V20.4705C22 21.3151 21.3153 21.9999 20.4706 21.9999H6.54866C6.14866 22.0039 5.74147 21.9543 5.33619 21.8457C2.93559 21.2024 1.51097 18.7349 2.15421 16.3343L5.77006 2.83976ZM11.7859 19.9999H20V16.1696L11.7859 19.9999ZM10.9801 18.1689L19.7925 14.0596L17.6794 9.52806L12.6694 11.8643L10.9801 18.1689ZM5.5 17.6C5.5 17.0477 5.94772 16.6 6.5 16.6H6.502C7.05429 16.6 7.502 17.0477 7.502 17.6V17.602C7.502 18.1543 7.05429 18.602 6.502 18.602H6.5C5.94772 18.602 5.5 18.1543 5.5 17.602V17.6Z" fill="white"/>
</svg>
