<svg width="24" height="24" viewBox="0 0 24 24" fill="none" xmlns="http://www.w3.org/2000/svg">
<path fill-rule="evenodd" clip-rule="evenodd" d="M2 5C2 3.89543 2.89543 3 4 3H18C19.1046 3 20 3.89543 20 5V9C20 9.26522 19.8946 9.51957 19.7071 9.70711C19.5196 9.89464 19.2652 10 19 10L12 10V20C12 20.5523 11.5523 21 11 21H4C2.89543 21 2 20.1046 2 19V5ZM4 10V14H10V10L4 10ZM10 8L4 8V5H10V8ZM12 8L18 8V5H12V8ZM10 16H4V19H10V16ZM14 16C14 15.4477 14.4477 15 15 15H21C21.5523 15 22 15.4477 22 16C22 16.5523 21.5523 17 21 17H15C14.4477 17 14 16.5523 14 16Z" fill="white"/>
</svg>
