<svg width="24" height="24" viewBox="0 0 24 24" fill="none" xmlns="http://www.w3.org/2000/svg">
<path fill-rule="evenodd" clip-rule="evenodd" d="M5 2C5.55228 2 6 2.44772 6 3V5.29169C6.92135 4.46765 8.00812 3.83732 9.19634 3.4478C11.0253 2.84822 12.9984 2.85081 14.8258 3.45517C16.6533 4.05953 18.2388 5.23384 19.3497 6.80569C20.4605 8.37754 21.0382 10.2641 20.9979 12.1885C20.9576 14.1128 20.3014 15.9736 19.1257 17.4975C17.95 19.0215 16.3167 20.1284 14.4655 20.6557C12.6144 21.183 10.643 21.1029 8.84067 20.4273C7.03838 19.7517 5.50016 18.516 4.45186 16.9018C4.15106 16.4386 4.2827 15.8192 4.74589 15.5184C5.20907 15.2176 5.8284 15.3493 6.1292 15.8125C6.94455 17.068 8.14094 18.0291 9.54272 18.5546C10.9445 19.0801 12.4778 19.1423 13.9176 18.7322C15.3574 18.3221 16.6277 17.4612 17.5422 16.2759C18.4566 15.0906 18.967 13.6433 18.9984 12.1466C19.0297 10.6499 18.5804 9.18253 17.7164 7.95998C16.8524 6.73743 15.6192 5.82408 14.1978 5.35402C12.7765 4.88396 11.2419 4.88195 9.81935 5.34829C8.79322 5.68467 7.86438 6.25196 7.1009 7H10C10.5523 7 11 7.44772 11 8C11 8.55228 10.5523 9 10 9H5C4.44772 9 4 8.55228 4 8V3C4 2.44772 4.44772 2 5 2Z" fill="white"/>
</svg>
