<svg width="24" height="24" viewBox="0 0 24 24" fill="none" xmlns="http://www.w3.org/2000/svg">
<path d="M11.9558 10.356V13.807H16.7478C16.3018 16 14.4348 17.26 11.9558 17.26C9.06827 17.2202 6.74838 14.8682 6.74838 11.9805C6.74838 9.09275 9.06827 6.74072 11.9558 6.70098C13.156 6.69954 14.3192 7.11605 15.2458 7.87898L17.8458 5.27898C14.8634 2.65705 10.5078 2.31981 7.15728 4.45142C3.80683 6.58303 2.26674 10.6712 3.37797 14.4836C4.48919 18.296 7.98467 20.9164 11.9558 20.914C16.4228 20.914 20.4848 17.665 20.4848 11.98C20.4779 11.4326 20.4108 10.8877 20.2848 10.355L11.9558 10.356Z" fill="white"/>
</svg>
