<svg width="24" height="24" viewBox="0 0 24 24" fill="none" xmlns="http://www.w3.org/2000/svg">
<path d="M19.3619 20.9931H4.63781C3.73765 20.992 3.00836 20.2622 3.00781 19.3621V4.63806C3.00891 3.73829 3.73804 3.00916 4.63781 3.00806H19.3609C20.261 3.00916 20.9907 3.73797 20.9929 4.63806V19.3621C20.9918 20.2624 20.2622 20.992 19.3619 20.9931ZM6.67281 9.67006L6.28481 11.1001H7.56281L6.73681 14.4661C6.67611 14.7323 6.6426 15.004 6.63681 15.2771C6.59033 15.7164 6.74757 16.1529 7.06359 16.4617C7.3796 16.7705 7.81961 16.9177 8.25781 16.8611C9.18757 16.8207 10.0228 16.2805 10.4409 15.4491L10.1139 16.7491H11.9249L12.9579 12.6081C13.2179 11.5481 13.7299 11.0081 14.4769 11.0081C14.7423 10.9883 15.003 11.086 15.1899 11.2755C15.3769 11.4649 15.4712 11.7269 15.4479 11.9921C15.4505 12.189 15.4218 12.3851 15.3629 12.5731L14.8349 14.4791C14.7587 14.743 14.7203 15.0164 14.7209 15.2911C14.6923 15.7298 14.8602 16.1586 15.1792 16.4611C15.4982 16.7637 15.9352 16.9088 16.3719 16.8571C17.4019 16.8571 18.1199 16.1571 18.5089 14.7761L17.8019 14.5031C17.5259 15.2921 17.2319 15.6761 16.9019 15.6761C16.6609 15.6761 16.5339 15.5091 16.5339 15.1921C16.5406 15.0258 16.5658 14.8608 16.6089 14.7001L17.1289 12.8421C17.2468 12.4598 17.3074 12.0621 17.3089 11.6621C17.3683 11.1305 17.201 10.5984 16.8479 10.1966C16.4948 9.79477 15.9887 9.56041 15.4539 9.55106C14.4057 9.69421 13.5007 10.357 13.0479 11.3131L13.4079 9.69606H10.6199L10.2289 11.0961H11.5229L10.7229 14.2841C10.4435 15.0673 9.7264 15.6103 8.89681 15.6671C8.86599 15.6675 8.8352 15.6652 8.80481 15.6601C8.56181 15.6031 8.42081 15.5101 8.42081 15.2081C8.42647 14.9584 8.46343 14.7105 8.53081 14.4701L9.74681 9.67006H6.67281ZM9.01781 6.50806C8.62839 6.50806 8.26855 6.71581 8.07384 7.05306C7.87913 7.3903 7.87913 7.80581 8.07384 8.14306C8.26855 8.4803 8.62839 8.68806 9.01781 8.68806V8.66306C9.30935 8.66542 9.59004 8.55257 9.79881 8.34906C10.0035 8.14695 10.1179 7.8707 10.1159 7.58306C10.1082 6.98357 9.61732 6.50305 9.01781 6.50806Z" fill="white"/>
</svg>
