<svg width="24" height="24" viewBox="0 0 24 24" fill="none" xmlns="http://www.w3.org/2000/svg">
<path d="M11.3986 21.009H8.87455C8.7463 21.0163 8.62264 20.9602 8.54355 20.859C8.46338 20.7563 8.43066 20.6243 8.45355 20.496C8.49355 20.255 8.54355 19.937 8.60655 19.533C8.64155 19.311 8.67955 19.07 8.72055 18.806C8.84555 18.006 8.93055 17.469 8.98755 17.118C9.01021 16.9774 9.03721 16.8107 9.06855 16.618V16.598C9.11988 16.2787 9.18255 15.8907 9.25655 15.434L9.35655 14.815V14.81C9.42855 14.3654 9.48521 14.0117 9.52655 13.749C9.53114 13.641 9.58036 13.5398 9.66244 13.4694C9.74453 13.3991 9.85212 13.366 9.95955 13.378H11.4796C12.2088 13.3859 12.9367 13.3148 13.6506 13.166C14.7254 12.9515 15.7225 12.4509 16.5366 11.717C17.2499 11.0318 17.7853 10.1829 18.0966 9.24402C18.2485 8.80785 18.3662 8.36049 18.4486 7.90602C18.4556 7.86402 18.4636 7.84002 18.4736 7.83202C18.4795 7.82431 18.4888 7.81986 18.4986 7.82002H18.5086C18.5305 7.82924 18.5513 7.84098 18.5706 7.85502C19.0952 8.25248 19.4463 8.8371 19.5506 9.48702C19.6689 10.1669 19.6553 10.8632 19.5106 11.538C19.3212 12.8439 18.6607 14.0354 17.6536 14.888C16.541 15.681 15.193 16.0743 13.8286 16.004H13.3896C13.2261 16.0027 13.068 16.0618 12.9456 16.17C12.8186 16.2802 12.7341 16.4312 12.7066 16.597L12.6656 16.791L12.1126 20.269L12.0916 20.42C12.063 20.5876 11.9749 20.7392 11.8436 20.847C11.7199 20.9534 11.5617 21.011 11.3986 21.009ZM7.82055 19.009H4.85555C4.71406 19.012 4.57867 18.9515 4.48655 18.844C4.39053 18.7385 4.34815 18.5948 4.37155 18.454L6.70255 3.66402C6.73186 3.47427 6.83057 3.30215 6.97955 3.18102C7.12344 3.05694 7.30755 2.98941 7.49755 2.99099H13.5116C13.8413 3.00401 14.169 3.04787 14.4906 3.12202C14.8738 3.19455 15.2497 3.30165 15.6136 3.44202C16.2759 3.67622 16.8502 4.10842 17.2586 4.68002C17.6458 5.26349 17.8441 5.95198 17.8266 6.65202C17.8096 7.46388 17.6537 8.26683 17.3656 9.02602C16.9062 10.5007 15.7797 11.6732 14.3246 12.191C13.5078 12.4676 12.6519 12.6111 11.7896 12.616C11.7796 12.622 11.3496 12.623 10.8896 12.623L9.98955 12.616C9.39586 12.5554 8.86504 12.9865 8.80255 13.58C8.78955 13.634 8.48555 15.527 7.94755 18.909C7.94757 18.9411 7.93321 18.9715 7.90841 18.9918C7.88361 19.0122 7.851 19.0203 7.81955 19.014L7.82055 19.009Z" fill="white"/>
</svg>
