<svg width="24" height="24" viewBox="0 0 24 24" fill="none" xmlns="http://www.w3.org/2000/svg">
<path d="M5.39972 21C5.22915 21.0028 5.05957 20.9736 4.89972 20.914L12.9538 12.857L15.6198 15.526L6.36472 20.726C6.07155 20.8979 5.73944 20.9922 5.39972 21ZM4.23572 20.335C4.072 20.0385 3.99052 19.7036 3.99972 19.365V4.66004C3.99837 4.43682 4.03211 4.21478 4.09972 4.00204L12.3328 12.237L4.23272 20.337L4.23572 20.335ZM16.4148 15.077L13.5738 12.238L16.7068 9.10604L19.4898 10.669C20.024 10.9081 20.3814 11.4239 20.4178 12.008C20.3816 12.5928 20.0237 13.1091 19.4888 13.348L16.4148 15.077ZM12.9538 11.614L4.61372 3.27504C4.8427 3.10572 5.11993 3.01424 5.40472 3.01404C5.74106 3.02598 6.06919 3.12116 6.35972 3.29104L15.9108 8.65904L12.9548 11.614H12.9538Z" fill="white"/>
</svg>
