<svg width="24" height="24" viewBox="0 0 24 24" fill="none" xmlns="http://www.w3.org/2000/svg">
<path d="M12.0099 22C7.96855 22.0053 4.32316 19.5723 2.77749 15.8383C1.23182 12.1042 2.09116 7.80657 4.95386 4.954C7.47303 2.42574 11.1508 1.43555 14.5988 2.35723C18.0468 3.2789 20.74 5.97206 21.6617 9.42008C22.5834 12.8681 21.5932 16.5458 19.0649 19.065C17.1996 20.9462 14.6592 22.0031 12.0099 22ZM10.5279 15.272C12.3656 15.2337 14.177 15.7133 15.7549 16.656C15.8522 16.7213 15.9667 16.7561 16.0839 16.756C16.2974 16.7506 16.4938 16.6378 16.6059 16.456C16.6932 16.2875 16.7083 16.0909 16.6479 15.911C16.5968 15.7742 16.4904 15.6653 16.3549 15.611C14.5783 14.5542 12.5406 14.0175 10.4739 14.062C9.19159 14.0718 7.91427 14.2224 6.66486 14.511C6.33729 14.5983 6.13812 14.9298 6.21486 15.26C6.2922 15.5265 6.52886 15.7155 6.80586 15.732C6.85902 15.7318 6.91188 15.7241 6.96286 15.709C8.1312 15.431 9.32696 15.2844 10.5279 15.272ZM10.3379 12.296C12.5862 12.2695 14.8009 12.8429 16.7539 13.957C16.8652 14.0379 16.9993 14.0813 17.1369 14.081C17.4064 14.0705 17.6546 13.9319 17.8049 13.708C17.9223 13.5367 17.9589 13.3226 17.9049 13.122C17.8683 12.9481 17.7592 12.7982 17.6049 12.71C15.3966 11.4347 12.8868 10.7748 10.3369 10.799C8.99262 10.7908 7.65443 10.9794 6.36486 11.359C5.96862 11.4894 5.74735 11.9107 5.86486 12.311C5.96296 12.6345 6.26824 12.8499 6.60586 12.834C6.67763 12.8347 6.7492 12.8263 6.81886 12.809C7.95865 12.4587 9.14551 12.2857 10.3379 12.296ZM10.5269 9.208C13.0909 9.13404 15.6309 9.71938 17.9039 10.908C18.0571 10.9917 18.2293 11.0348 18.4039 11.033C18.714 11.0395 19.0095 10.9017 19.2039 10.66C19.3248 10.4388 19.3563 10.1797 19.2919 9.936C19.2317 9.69286 19.074 9.48526 18.8559 9.362C16.2927 7.99965 13.4207 7.32309 10.5189 7.398C8.91209 7.38147 7.3108 7.58811 5.76086 8.012C5.3255 8.14664 5.05557 8.58113 5.12775 9.03109C5.19994 9.48105 5.59223 9.8093 6.04786 9.801C6.13657 9.80108 6.22483 9.78828 6.30986 9.763C7.68114 9.37421 9.10167 9.18691 10.5269 9.207V9.208Z" fill="white"/>
</svg>
