<svg width="24" height="24" viewBox="0 0 24 24" fill="none" xmlns="http://www.w3.org/2000/svg">
<path fill-rule="evenodd" clip-rule="evenodd" d="M6.79289 5.79289C7.18342 5.40237 7.81658 5.40237 8.20711 5.79289L13.2071 10.7929C13.5976 11.1834 13.5976 11.8166 13.2071 12.2071C12.8166 12.5976 12.1834 12.5976 11.7929 12.2071L8.5 8.91421L8.5 16.5L20.5 16.5C21.0523 16.5 21.5 16.9477 21.5 17.5C21.5 18.0523 21.0523 18.5 20.5 18.5L7.5 18.5C6.94772 18.5 6.5 18.0523 6.5 17.5L6.5 8.91421L3.20711 12.2071C2.81658 12.5976 2.18342 12.5976 1.79289 12.2071C1.40237 11.8166 1.40237 11.1834 1.79289 10.7929L6.79289 5.79289Z" fill="white"/>
</svg>
