<svg width="24" height="24" viewBox="0 0 24 24" fill="none" xmlns="http://www.w3.org/2000/svg">
<path fill-rule="evenodd" clip-rule="evenodd" d="M2 7C2 6.44772 2.44772 6 3 6H16C16.5523 6 17 6.44772 17 7V15.5858L20.2929 12.2929C20.6834 11.9024 21.3166 11.9024 21.7071 12.2929C22.0976 12.6834 22.0976 13.3166 21.7071 13.7071L16.7071 18.7071C16.3166 19.0976 15.6834 19.0976 15.2929 18.7071L10.2929 13.7071C9.90237 13.3166 9.90237 12.6834 10.2929 12.2929C10.6834 11.9024 11.3166 11.9024 11.7071 12.2929L15 15.5858V8H3C2.44772 8 2 7.55228 2 7Z" fill="white"/>
</svg>
