<svg width="24" height="24" viewBox="0 0 24 24" fill="none" xmlns="http://www.w3.org/2000/svg">
<path fill-rule="evenodd" clip-rule="evenodd" d="M7.79289 5.79289C7.98043 5.60536 8.23478 5.5 8.5 5.5H21.5C22.0523 5.5 22.5 5.94772 22.5 6.5C22.5 7.05228 22.0523 7.5 21.5 7.5H9.5L9.5 15.0858L12.7929 11.7929C13.1834 11.4024 13.8166 11.4024 14.2071 11.7929C14.5976 12.1834 14.5976 12.8166 14.2071 13.2071L9.20711 18.2071C8.81658 18.5976 8.18342 18.5976 7.79289 18.2071L2.79289 13.2071C2.40237 12.8166 2.40237 12.1834 2.79289 11.7929C3.18342 11.4024 3.81658 11.4024 4.20711 11.7929L7.5 15.0858L7.5 6.5C7.5 6.23478 7.60536 5.98043 7.79289 5.79289Z" fill="white"/>
</svg>
