<svg width="24" height="24" viewBox="0 0 24 24" fill="none" xmlns="http://www.w3.org/2000/svg">
<path fill-rule="evenodd" clip-rule="evenodd" d="M15.2929 5.29289C15.6834 4.90237 16.3166 4.90237 16.7071 5.29289L21.7071 10.2929C22.0976 10.6834 22.0976 11.3166 21.7071 11.7071C21.3166 12.0976 20.6834 12.0976 20.2929 11.7071L17 8.41421V17C17 17.5523 16.5523 18 16 18H3C2.44772 18 2 17.5523 2 17C2 16.4477 2.44772 16 3 16H15V8.41421L11.7071 11.7071C11.3166 12.0976 10.6834 12.0976 10.2929 11.7071C9.90237 11.3166 9.90237 10.6834 10.2929 10.2929L15.2929 5.29289Z" fill="white"/>
</svg>
