<svg width="24" height="24" viewBox="0 0 24 24" fill="none" xmlns="http://www.w3.org/2000/svg">
<path fill-rule="evenodd" clip-rule="evenodd" d="M12.2929 2.29289C12.6834 1.90237 13.3166 1.90237 13.7071 2.29289L18.7071 7.29289C19.0976 7.68342 19.0976 8.31658 18.7071 8.70711L13.7071 13.7071C13.3166 14.0976 12.6834 14.0976 12.2929 13.7071C11.9024 13.3166 11.9024 12.6834 12.2929 12.2929L15.5858 9H8V21C8 21.5523 7.55228 22 7 22C6.44772 22 6 21.5523 6 21V8C6 7.44772 6.44772 7 7 7H15.5858L12.2929 3.70711C11.9024 3.31658 11.9024 2.68342 12.2929 2.29289Z" fill="white"/>
</svg>
