<svg width="24" height="24" viewBox="0 0 24 24" fill="none" xmlns="http://www.w3.org/2000/svg">
<path fill-rule="evenodd" clip-rule="evenodd" d="M5 2C5.55228 2 6 2.44772 6 3V5.29192C6.54295 4.80626 7.14543 4.38602 7.79571 4.04244C9.28449 3.25583 10.9641 2.90265 12.6436 3.02304C14.3231 3.14342 15.9352 3.73256 17.2965 4.72347C18.6579 5.71438 19.714 7.06733 20.3448 8.62854C20.5517 9.14061 20.3043 9.72344 19.7922 9.93033C19.2801 10.1372 18.6973 9.88983 18.4904 9.37776C17.9998 8.16348 17.1784 7.11119 16.1196 6.34048C15.0607 5.56977 13.8069 5.11155 12.5006 5.01792C11.1943 4.92428 9.88797 5.19898 8.73002 5.81079C8.12959 6.12803 7.58154 6.52932 7.10116 7H10C10.5523 7 11 7.44772 11 8C11 8.55228 10.5523 9 10 9H5C4.44771 9 4 8.55228 4 8V3C4 2.44772 4.44771 2 5 2ZM4.20792 14.0697C4.71999 13.8628 5.30282 14.1102 5.50971 14.6222C6.00031 15.8365 6.82171 16.8888 7.88056 17.6595C8.93941 18.4302 10.1932 18.8885 11.4995 18.9821C12.8058 19.0757 14.1122 18.801 15.2701 18.1892C15.8705 17.872 16.4186 17.4707 16.899 17H14C13.4477 17 13 16.5523 13 16C13 15.4477 13.4477 15 14 15H19C19.5523 15 20 15.4477 20 16V21C20 21.5523 19.5523 22 19 22C18.4477 22 18 21.5523 18 21V18.7082C17.4571 19.1938 16.8546 19.614 16.2044 19.9576C14.7156 20.7442 13.036 21.0974 11.3565 20.977C9.67701 20.8566 8.06495 20.2674 6.70358 19.2765C5.3422 18.2856 4.28611 16.9327 3.65534 15.3715C3.44845 14.8594 3.69585 14.2766 4.20792 14.0697Z" fill="white"/>
</svg>
