<svg width="24" height="24" viewBox="0 0 24 24" fill="none" xmlns="http://www.w3.org/2000/svg">
<path fill-rule="evenodd" clip-rule="evenodd" d="M7 2C7.55228 2 8 2.44772 8 3V15H15.5858L12.2929 11.7071C11.9024 11.3166 11.9024 10.6834 12.2929 10.2929C12.6834 9.90237 13.3166 9.90237 13.7071 10.2929L18.7071 15.2929C19.0976 15.6834 19.0976 16.3166 18.7071 16.7071L13.7071 21.7071C13.3166 22.0976 12.6834 22.0976 12.2929 21.7071C11.9024 21.3166 11.9024 20.6834 12.2929 20.2929L15.5858 17H7C6.44772 17 6 16.5523 6 16V3C6 2.44772 6.44772 2 7 2Z" fill="white"/>
</svg>
