<svg width="24" height="24" viewBox="0 0 24 24" fill="none" xmlns="http://www.w3.org/2000/svg">
<path fill-rule="evenodd" clip-rule="evenodd" d="M4.29289 4.29289C4.68342 3.90237 5.31658 3.90237 5.70711 4.29289L18 16.5858L18 11C18 10.4477 18.4477 10 19 10C19.5523 10 20 10.4477 20 11L20 19C20 19.2652 19.8946 19.5196 19.7071 19.7071C19.5196 19.8946 19.2652 20 19 20L11 20C10.4477 20 10 19.5523 10 19C10 18.4477 10.4477 18 11 18L16.5858 18L4.29289 5.70711C3.90237 5.31658 3.90237 4.68342 4.29289 4.29289Z" fill="white"/>
</svg>
