<svg width="24" height="24" viewBox="0 0 24 24" fill="none" xmlns="http://www.w3.org/2000/svg">
<path fill-rule="evenodd" clip-rule="evenodd" d="M19.7071 4.29289C20.0976 4.68342 20.0976 5.31658 19.7071 5.70711L7.41421 18L13 18C13.5523 18 14 18.4477 14 19C14 19.5523 13.5523 20 13 20L5 20C4.73478 20 4.48043 19.8946 4.29289 19.7071C4.10536 19.5196 4 19.2652 4 19V11C4 10.4477 4.44772 10 5 10C5.55228 10 6 10.4477 6 11V16.5858L18.2929 4.29289C18.6834 3.90237 19.3166 3.90237 19.7071 4.29289Z" fill="white"/>
</svg>
