<svg width="24" height="24" viewBox="0 0 24 24" fill="none" xmlns="http://www.w3.org/2000/svg">
<path fill-rule="evenodd" clip-rule="evenodd" d="M19 2C19.5523 2 20 2.44772 20 3V8C20 8.55228 19.5523 9 19 9H14C13.4477 9 13 8.55228 13 8C13 7.44772 13.4477 7 14 7H16.899C16.4186 6.52932 15.8705 6.12803 15.2701 5.81078C14.1122 5.19898 12.8058 4.92428 11.4995 5.01791C10.1932 5.11155 8.93941 5.56976 7.88057 6.34047C6.82172 7.11118 6.00032 8.16348 5.50972 9.37775C5.30283 9.88982 4.72 10.1372 4.20793 9.93033C3.69586 9.72344 3.44846 9.14061 3.65535 8.62854C4.28612 7.06733 5.34221 5.71438 6.70358 4.72347C8.06496 3.73255 9.67702 3.14342 11.3565 3.02303C13.036 2.90264 14.7156 3.25583 16.2044 4.04244C16.8546 4.38598 17.4571 4.80619 18 5.2918V3C18 2.44772 18.4477 2 19 2ZM19.7922 14.0696C20.3043 14.2765 20.5517 14.8594 20.3448 15.3714C19.714 16.9326 18.6579 18.2856 17.2966 19.2765C15.9352 20.2674 14.3231 20.8566 12.6436 20.9769C10.9641 21.0973 9.2845 20.7441 7.79571 19.9575C7.14544 19.614 6.54296 19.1937 6 18.7081V21C6 21.5523 5.55229 22 5 22C4.44772 22 4 21.5523 4 21V16C4 15.4477 4.44772 15 5 15H10C10.5523 15 11 15.4477 11 16C11 16.5523 10.5523 17 10 17H7.10119C7.58157 17.4707 8.12961 17.872 8.73003 18.1892C9.88798 18.801 11.1943 19.0757 12.5006 18.9821C13.8069 18.8884 15.0607 18.4302 16.1196 17.6595C17.1784 16.8888 17.9998 15.8365 18.4904 14.6222C18.6973 14.1101 19.2801 13.8628 19.7922 14.0696Z" fill="white"/>
</svg>
