<svg width="24" height="24" viewBox="0 0 24 24" fill="none" xmlns="http://www.w3.org/2000/svg">
<path fill-rule="evenodd" clip-rule="evenodd" d="M11.7071 2.29289C12.0976 2.68342 12.0976 3.31658 11.7071 3.70711L8.41421 7H17C17.5523 7 18 7.44772 18 8V21C18 21.5523 17.5523 22 17 22C16.4477 22 16 21.5523 16 21V9H8.41421L11.7071 12.2929C12.0976 12.6834 12.0976 13.3166 11.7071 13.7071C11.3166 14.0976 10.6834 14.0976 10.2929 13.7071L5.29289 8.70711C4.90237 8.31658 4.90237 7.68342 5.29289 7.29289L10.2929 2.29289C10.6834 1.90237 11.3166 1.90237 11.7071 2.29289Z" fill="white"/>
</svg>
