<svg width="24" height="24" viewBox="0 0 24 24" fill="none" xmlns="http://www.w3.org/2000/svg">
<path fill-rule="evenodd" clip-rule="evenodd" d="M17 2C17.5523 2 18 2.44772 18 3L18 16C18 16.5523 17.5523 17 17 17H8.41421L11.7071 20.2929C12.0976 20.6834 12.0976 21.3166 11.7071 21.7071C11.3166 22.0976 10.6834 22.0976 10.2929 21.7071L5.29289 16.7071C4.90237 16.3166 4.90237 15.6834 5.29289 15.2929L10.2929 10.2929C10.6834 9.90237 11.3166 9.90237 11.7071 10.2929C12.0976 10.6834 12.0976 11.3166 11.7071 11.7071L8.41421 15H16L16 3C16 2.44772 16.4477 2 17 2Z" fill="white"/>
</svg>
