<svg width="24" height="24" viewBox="0 0 24 24" fill="none" xmlns="http://www.w3.org/2000/svg">
<path fill-rule="evenodd" clip-rule="evenodd" d="M12 4C7.58172 4 4 7.58172 4 12C4 16.4183 7.58172 20 12 20C16.4183 20 20 16.4183 20 12C20 7.58172 16.4183 4 12 4ZM2 12C2 6.47715 6.47715 2 12 2C17.5228 2 22 6.47715 22 12C22 17.5228 17.5228 22 12 22C6.47715 22 2 17.5228 2 12ZM10.9502 7.9C10.9502 7.34772 11.3979 6.9 11.9502 6.9H12.0502C12.6025 6.9 13.0502 7.34772 13.0502 7.9V8C13.0502 8.55228 12.6025 9 12.0502 9H11.9502C11.3979 9 10.9502 8.55228 10.9502 8V7.9ZM12 10C12.5523 10 13 10.4477 13 11L13 16C13 16.5523 12.5523 17 12 17C11.4477 17 11 16.5523 11 16L11 11C11 10.4477 11.4477 10 12 10Z" fill="white"/>
</svg>
