<svg width="24" height="24" viewBox="0 0 24 24" fill="none" xmlns="http://www.w3.org/2000/svg">
<path fill-rule="evenodd" clip-rule="evenodd" d="M7.26875 2.58579C7.64382 2.21071 8.15253 2 8.68296 2H15.317C15.8475 2 16.3562 2.21071 16.7313 2.58579L21.4142 7.26875C21.7893 7.64382 22 8.15253 22 8.68296V15.317C22 15.8475 21.7893 16.3562 21.4142 16.7312L16.7313 21.4142C16.3562 21.7893 15.8475 22 15.317 22H8.68296C8.15253 22 7.64382 21.7893 7.26875 21.4142L2.58579 16.7312C2.21071 16.3562 2 15.8475 2 15.317V8.68296C2 8.15253 2.21071 7.64382 2.58579 7.26875L7.26875 2.58579ZM15.317 4L8.68296 4L4 8.68296L4 15.317L8.68296 20L15.317 20L20 15.317V8.68296L15.317 4ZM15.7071 9.29289C16.0976 9.68341 16.0976 10.3166 15.7071 10.7071L11.7071 14.7071C11.3166 15.0976 10.6834 15.0976 10.2929 14.7071L8.29289 12.7071C7.90236 12.3166 7.90236 11.6834 8.29289 11.2929C8.68341 10.9024 9.31658 10.9024 9.7071 11.2929L11 12.5858L14.2929 9.29289C14.6834 8.90236 15.3166 8.90236 15.7071 9.29289Z" fill="white"/>
</svg>
