<svg width="24" height="24" viewBox="0 0 24 24" fill="none" xmlns="http://www.w3.org/2000/svg">
<path fill-rule="evenodd" clip-rule="evenodd" d="M7.26875 2.58579C7.64382 2.21071 8.15253 2 8.68296 2H15.317C15.8475 2 16.3562 2.21071 16.7313 2.58579L21.4142 7.26875C21.7893 7.64382 22 8.15253 22 8.68296V15.317C22 15.8475 21.7893 16.3562 21.4142 16.7312L16.7313 21.4142C16.3562 21.7893 15.8475 22 15.317 22H8.68296C8.15253 22 7.64382 21.7893 7.26875 21.4142L2.58579 16.7312C2.21071 16.3562 2 15.8475 2 15.317V8.68296C2 8.15253 2.21071 7.64382 2.58579 7.26875L7.26875 2.58579ZM15.317 4L8.68296 4L4 8.68296L4 15.317L8.68296 20L15.317 20L20 15.317V8.68296L15.317 4ZM12 7C12.5523 7 13 7.44771 13 8V12C13 12.5523 12.5523 13 12 13C11.4477 13 11 12.5523 11 12V8C11 7.44771 11.4477 7 12 7ZM10.9502 15.4499C10.9502 14.8977 11.3979 14.4499 11.9502 14.4499H12.0502C12.6025 14.4499 13.0502 14.8977 13.0502 15.4499V15.5499C13.0502 16.1022 12.6025 16.5499 12.0502 16.5499H11.9502C11.3979 16.5499 10.9502 16.1022 10.9502 15.5499V15.4499Z" fill="white"/>
</svg>
