<svg width="24" height="24" viewBox="0 0 24 24" fill="none" xmlns="http://www.w3.org/2000/svg">
<path fill-rule="evenodd" clip-rule="evenodd" d="M3 4C3 2.89543 3.89543 2 5 2H19C20.1046 2 21 2.89543 21 4V10.1649C21 18.2341 14.1289 21.2682 12.6452 21.8317L12.2902 20.8968L12.6452 21.8317C12.2263 21.9908 11.7737 21.9908 11.3548 21.8317L11.7098 20.8968L11.3548 21.8317C9.87108 21.2682 3 18.2341 3 10.1649V4ZM19 4L5 4V10.1649C5 16.7589 10.5093 19.3573 12 19.9371C13.4907 19.3573 19 16.7589 19 10.1649V4ZM12 7C12.5523 7 13 7.44772 13 8L13 12C13 12.5523 12.5523 13 12 13C11.4477 13 11 12.5523 11 12L11 8C11 7.44772 11.4477 7 12 7ZM10.9502 15C10.9502 14.4477 11.3979 14 11.9502 14H12.0502C12.6025 14 13.0502 14.4477 13.0502 15V15.1C13.0502 15.6523 12.6025 16.1 12.0502 16.1H11.9502C11.3979 16.1 10.9502 15.6523 10.9502 15.1V15Z" fill="white"/>
</svg>
