<svg width="24" height="24" viewBox="0 0 24 24" fill="none" xmlns="http://www.w3.org/2000/svg">
<path fill-rule="evenodd" clip-rule="evenodd" d="M2 4C2 2.89543 2.89543 2 4 2H20C21.1046 2 22 2.89543 22 4V20C22 21.1046 21.1046 22 20 22H4C2.89543 22 2 21.1046 2 20V4ZM20 4L4 4V20H20V4ZM12 7C12.5523 7 13 7.44772 13 8L13 12C13 12.5523 12.5523 13 12 13C11.4477 13 11 12.5523 11 12L11 8C11 7.44771 11.4477 7 12 7ZM10.9502 15.45C10.9502 14.8977 11.3979 14.45 11.9502 14.45H12.0502C12.6025 14.45 13.0502 14.8977 13.0502 15.45V15.55C13.0502 16.1022 12.6025 16.55 12.0502 16.55H11.9502C11.3979 16.55 10.9502 16.1022 10.9502 15.55V15.45Z" fill="white"/>
</svg>
