<svg width="24" height="24" viewBox="0 0 24 24" fill="none" xmlns="http://www.w3.org/2000/svg">
<path fill-rule="evenodd" clip-rule="evenodd" d="M2 4C2 2.89543 2.89543 2 4 2H20C21.1046 2 22 2.89543 22 4V20C22 21.1046 21.1046 22 20 22H4C2.89543 22 2 21.1046 2 20V4ZM20 4L4 4V20H20V4ZM16.6644 8.25259C17.0771 8.61951 17.1143 9.25158 16.7474 9.66436L11.4141 15.6644C11.2243 15.8779 10.9523 16 10.6667 16C10.381 16 10.109 15.8779 9.91926 15.6644L7.25259 12.6644C6.88567 12.2516 6.92285 11.6195 7.33564 11.2526C7.74842 10.8857 8.38049 10.9229 8.74741 11.3356L10.6667 13.4948L15.2526 8.33564C15.6195 7.92285 16.2516 7.88567 16.6644 8.25259Z" fill="white"/>
</svg>
