<svg width="24" height="24" viewBox="0 0 24 24" fill="none" xmlns="http://www.w3.org/2000/svg">
<path fill-rule="evenodd" clip-rule="evenodd" d="M10.2681 3C11.0379 1.66667 12.9624 1.66667 13.7322 3L22.3924 18C23.1622 19.3333 22.2 21 20.6604 21H3.33987C1.80026 21 0.838017 19.3333 1.60782 18L10.2681 3ZM12.0001 4L3.33987 19H20.6604L12.0001 4ZM15.7071 12.2929C16.0976 12.6834 16.0976 13.3166 15.7071 13.7071L11.7071 17.7071C11.3166 18.0976 10.6834 18.0976 10.2929 17.7071L8.29289 15.7071C7.90237 15.3166 7.90237 14.6834 8.29289 14.2929C8.68341 13.9024 9.31658 13.9024 9.7071 14.2929L11 15.5858L14.2929 12.2929C14.6834 11.9024 15.3166 11.9024 15.7071 12.2929Z" fill="white"/>
</svg>
