<svg width="24" height="24" viewBox="0 0 24 24" fill="none" xmlns="http://www.w3.org/2000/svg">
<path fill-rule="evenodd" clip-rule="evenodd" d="M10.2681 3C11.0379 1.66667 12.9624 1.66667 13.7322 3L22.3924 18C23.1622 19.3333 22.2 21 20.6604 21H3.33987C1.80026 21 0.838017 19.3333 1.60782 18L10.2681 3ZM12.0001 4L3.33987 19H20.6604L12.0001 4ZM12 8C12.5523 8 13 8.44772 13 9L13 13C13 13.5523 12.5523 14 12 14C11.4477 14 11 13.5523 11 13L11 9C11 8.44771 11.4477 8 12 8ZM10.9502 16C10.9502 15.4477 11.3979 15 11.9502 15H12.0502C12.6025 15 13.0502 15.4477 13.0502 16V16.1C13.0502 16.6523 12.6025 17.1 12.0502 17.1H11.9502C11.3979 17.1 10.9502 16.6523 10.9502 16.1V16Z" fill="white"/>
</svg>
