<svg width="24" height="24" viewBox="0 0 24 24" fill="none" xmlns="http://www.w3.org/2000/svg">
<path fill-rule="evenodd" clip-rule="evenodd" d="M10.1057 2.69768C11.1973 1.76744 12.8027 1.76744 13.8943 2.69768L15.1153 3.73818C15.2627 3.86382 15.446 3.93976 15.6391 3.95517L17.2382 4.08278C18.6679 4.19686 19.8031 5.33211 19.9172 6.76175L20.0448 8.36085C20.0602 8.55395 20.1362 8.73727 20.2618 8.88471L21.3023 10.1057C22.2326 11.1973 22.2326 12.8027 21.3023 13.8943L20.2618 15.1153C20.1362 15.2627 20.0602 15.446 20.0448 15.6391L19.9172 17.2382C19.8031 18.6679 18.6679 19.8031 17.2382 19.9172L15.6391 20.0448C15.446 20.0602 15.2627 20.1362 15.1153 20.2618L13.8943 21.3023C12.8027 22.2326 11.1973 22.2326 10.1057 21.3023L8.88471 20.2618C8.73727 20.1362 8.55395 20.0602 8.36085 20.0448L6.76175 19.9172C5.33211 19.8031 4.19686 18.6679 4.08278 17.2382L3.95517 15.6391C3.93976 15.446 3.86382 15.2627 3.73818 15.1153L2.69768 13.8943C1.76744 12.8027 1.76744 11.1973 2.69768 10.1057L3.73818 8.88471C3.86382 8.73727 3.93976 8.55395 3.95517 8.36085L4.08278 6.76176C4.19686 5.33211 5.33211 4.19686 6.76175 4.08278L8.36085 3.95517C8.55395 3.93976 8.73727 3.86382 8.88471 3.73818L10.1057 2.69768ZM12.5971 4.21991C12.253 3.9267 11.747 3.9267 11.4029 4.21991L10.1819 5.26041C9.71418 5.65903 9.13258 5.89994 8.51995 5.94883L6.92085 6.07644C6.47023 6.1124 6.1124 6.47023 6.07644 6.92085L5.94883 8.51995C5.89994 9.13258 5.65903 9.71418 5.26041 10.1819L4.21991 11.4029C3.9267 11.747 3.9267 12.253 4.21991 12.5971L5.26041 13.8181C5.65903 14.2858 5.89994 14.8674 5.94883 15.4801L6.07644 17.0792C6.1124 17.5298 6.47023 17.8876 6.92085 17.9236L8.51995 18.0512C9.13258 18.1001 9.71418 18.341 10.1819 18.7396L11.4029 19.7801C11.747 20.0733 12.253 20.0733 12.5971 19.7801L13.8181 18.7396C14.2858 18.341 14.8674 18.1001 15.4801 18.0512L17.0792 17.9236C17.5298 17.8876 17.8876 17.5298 17.9236 17.0792L18.0512 15.4801C18.1001 14.8674 18.341 14.2858 18.7396 13.8181L19.7801 12.5971C20.0733 12.253 20.0733 11.747 19.7801 11.4029L18.7396 10.1819C18.341 9.71418 18.1001 9.13258 18.0512 8.51995L17.9236 6.92085C17.8876 6.47023 17.5298 6.1124 17.0792 6.07644L15.4801 5.94883C14.8674 5.89994 14.2858 5.65903 13.8181 5.26041L12.5971 4.21991Z" fill="white"/>
</svg>
