<svg width="24" height="24" viewBox="0 0 24 24" fill="none" xmlns="http://www.w3.org/2000/svg">
<path d="M9 3C6.23858 3 4 5.23858 4 8C4 10.7614 6.23858 13 9 13C11.7614 13 14 10.7614 14 8C14 5.23858 11.7614 3 9 3ZM6 8C6 6.34315 7.34315 5 9 5C10.6569 5 12 6.34315 12 8C12 9.65685 10.6569 11 9 11C7.34315 11 6 9.65685 6 8Z" fill="white"/>
<path d="M16.9089 8.21828C16.6276 8.07484 16.3163 8.00006 16.0005 8.00006V6.00006C16.6321 6.00006 17.2547 6.14956 17.8174 6.43645C17.8794 6.46805 17.9404 6.50121 18.0005 6.5359C18.4859 6.81614 18.9077 7.19569 19.2378 7.65055C19.6088 8.16172 19.8534 8.75347 19.9517 9.37737C20.0501 10.0013 19.9992 10.6396 19.8034 11.2401C19.6076 11.8405 19.2724 12.3861 18.8252 12.8321C18.378 13.2782 17.8316 13.6119 17.2306 13.8062C16.6958 13.979 16.1313 14.037 15.574 13.9772C15.5051 13.9698 15.4362 13.9606 15.3675 13.9496C14.7443 13.8497 14.1536 13.6038 13.6436 13.2319L13.6426 13.2311L14.8215 11.6156C15.0766 11.8017 15.3722 11.9248 15.684 11.9747C15.9958 12.0247 16.315 12.0001 16.6155 11.903C16.916 11.8059 17.1892 11.639 17.4128 11.416C17.6364 11.193 17.804 10.9202 17.9019 10.62C17.9998 10.3198 18.0252 10.0006 17.9761 9.68869C17.9269 9.37675 17.8046 9.08089 17.6191 8.82531C17.4336 8.56974 17.1903 8.36172 16.9089 8.21828Z" fill="white"/>
<path d="M19.9981 21C19.9981 20.475 19.8947 19.9551 19.6938 19.47C19.4928 18.9849 19.1983 18.5442 18.8271 18.1729C18.4558 17.8017 18.0151 17.5072 17.53 17.3062C17.0449 17.1053 16.525 17.0019 16 17.0019V15C16.6821 15 17.3584 15.1163 18 15.3431C18.0996 15.3783 18.1983 15.4162 18.2961 15.4567C19.0241 15.7583 19.6855 16.2002 20.2426 16.7574C20.7998 17.3145 21.2417 17.9759 21.5433 18.7039C21.5838 18.8017 21.6217 18.9004 21.6569 19C21.8837 19.6416 22 20.3179 22 21H19.9981Z" fill="white"/>
<path d="M16 21H14C14 18.2386 11.7614 16 9 16C6.23858 16 4 18.2386 4 21H2C2 17.134 5.13401 14 9 14C12.866 14 16 17.134 16 21Z" fill="white"/>
</svg>
