<svg width="24" height="24" viewBox="0 0 24 24" fill="none" xmlns="http://www.w3.org/2000/svg">
<path fill-rule="evenodd" clip-rule="evenodd" d="M18.2929 2.29289C18.6834 1.90237 19.3166 1.90237 19.7071 2.29289C20.4566 3.04236 21.0511 3.93211 21.4567 4.91133C21.8623 5.89056 22.0711 6.94009 22.0711 8C22.0711 9.05991 21.8623 10.1094 21.4567 11.0887C21.0511 12.0679 20.4566 12.9576 19.7071 13.7071C19.3166 14.0976 18.6834 14.0976 18.2929 13.7071C17.9024 13.3166 17.9024 12.6834 18.2929 12.2929C18.8566 11.7291 19.3038 11.0599 19.6089 10.3233C19.914 9.58672 20.0711 8.79726 20.0711 8C20.0711 7.20273 19.914 6.41328 19.6089 5.6767C19.3038 4.94013 18.8566 4.27086 18.2929 3.70711C17.9024 3.31658 17.9024 2.68342 18.2929 2.29289ZM9 5C7.34315 5 6 6.34315 6 8C6 9.65686 7.34315 11 9 11C10.6569 11 12 9.65686 12 8C12 6.34315 10.6569 5 9 5ZM4 8C4 5.23858 6.23858 3 9 3C11.7614 3 14 5.23858 14 8C14 10.7614 11.7614 13 9 13C6.23858 13 4 10.7614 4 8ZM16.121 4.46453C16.5115 4.074 17.1447 4.074 17.5352 4.46453C17.9995 4.92882 18.3678 5.48002 18.6191 6.08664C18.8704 6.69327 18.9997 7.34345 18.9997 8.00006C18.9997 8.65667 18.8704 9.30685 18.6191 9.91348C18.3678 10.5201 17.9995 11.0713 17.5352 11.5356C17.1447 11.9261 16.5115 11.9261 16.121 11.5356C15.7305 11.1451 15.7305 10.5119 16.121 10.1214C16.3996 9.84281 16.6206 9.51209 16.7713 9.14811C16.9221 8.78413 16.9997 8.39403 16.9997 8.00006C16.9997 7.6061 16.9221 7.21599 16.7713 6.85201C16.6206 6.48803 16.3996 6.15732 16.121 5.87874C15.7305 5.48822 15.7305 4.85505 16.121 4.46453ZM5.31206 17.0036C4.40506 17.6083 4 18.3338 4 19C4 19.5523 3.55228 20 3 20C2.44772 20 2 19.5523 2 19C2 17.4571 2.93809 16.1826 4.20266 15.3395C5.47422 14.4918 7.17326 14 9 14C10.8267 14 12.5258 14.4918 13.7973 15.3395C15.0619 16.1826 16 17.4571 16 19C16 19.5523 15.5523 20 15 20C14.4477 20 14 19.5523 14 19C14 18.3338 13.5949 17.6083 12.6879 17.0036C11.7879 16.4036 10.487 16 9 16C7.51303 16 6.21207 16.4036 5.31206 17.0036Z" fill="white"/>
</svg>
