<svg width="24" height="24" viewBox="0 0 24 24" fill="none" xmlns="http://www.w3.org/2000/svg">
<path d="M13.8204 22H10.1804C9.71052 22 9.30396 21.673 9.20341 21.214L8.79641 19.33C8.25346 19.0921 7.73863 18.7946 7.26141 18.443L5.42441 19.028C4.97641 19.1709 4.4894 18.9823 4.25441 18.575L2.43041 15.424C2.198 15.0165 2.27807 14.5025 2.62341 14.185L4.04841 12.885C3.98361 12.2961 3.98361 11.7019 4.04841 11.113L2.62341 9.816C2.27756 9.49837 2.19746 8.98372 2.43041 8.576L4.25041 5.423C4.4854 5.0157 4.97241 4.82714 5.42041 4.97L7.25741 5.555C7.50147 5.37416 7.75553 5.20722 8.0184 5.055C8.27074 4.91269 8.53044 4.78385 8.79641 4.669L9.20441 2.787C9.30448 2.32797 9.7106 2.00049 10.1804 2H13.8204C14.2902 2.00049 14.6963 2.32797 14.7964 2.787L15.2084 4.67C15.4892 4.79352 15.7627 4.93308 16.0274 5.088C16.2747 5.23078 16.5137 5.38736 16.7434 5.557L18.5814 4.972C19.0291 4.82967 19.5155 5.01816 19.7504 5.425L21.5704 8.578C21.8028 8.98548 21.7228 9.49951 21.3774 9.817L19.9524 11.117C20.0172 11.7059 20.0172 12.3001 19.9524 12.889L21.3774 14.189C21.7228 14.5065 21.8028 15.0205 21.5704 15.428L19.7504 18.581C19.5155 18.9878 19.0291 19.1763 18.5814 19.034L16.7434 18.449C16.5108 18.6203 16.2692 18.7789 16.0194 18.924C15.7572 19.0759 15.4868 19.2131 15.2094 19.335L14.7964 21.214C14.6959 21.6726 14.2899 21.9996 13.8204 22ZM11.9964 8C9.78727 8 7.99641 9.79086 7.99641 12C7.99641 14.2091 9.78727 16 11.9964 16C14.2056 16 15.9964 14.2091 15.9964 12C15.9964 9.79086 14.2056 8 11.9964 8Z" fill="white"/>
</svg>
