<svg width="24" height="24" viewBox="0 0 24 24" fill="none" xmlns="http://www.w3.org/2000/svg">
<path d="M13.8204 22H10.1804C9.71052 22 9.30396 21.673 9.20341 21.214L8.79641 19.33C8.25346 19.0921 7.73863 18.7946 7.26141 18.443L5.42441 19.028C4.97641 19.1709 4.4894 18.9823 4.25441 18.575L2.43041 15.424C2.198 15.0165 2.27807 14.5025 2.62341 14.185L4.04841 12.885C3.98361 12.2961 3.98361 11.7019 4.04841 11.113L2.62341 9.816C2.27756 9.49837 2.19746 8.98372 2.43041 8.576L4.25041 5.423C4.4854 5.0157 4.97241 4.82714 5.42041 4.97L7.25741 5.555C7.50147 5.37416 7.75553 5.20722 8.0184 5.055C8.27074 4.91269 8.53044 4.78385 8.79641 4.669L9.20441 2.787C9.30448 2.32797 9.7106 2.00049 10.1804 2H13.8204C14.2902 2.00049 14.6963 2.32797 14.7964 2.787L15.2084 4.67C15.4892 4.79352 15.7627 4.93308 16.0274 5.088C16.2744 5.23081 16.5131 5.38739 16.7424 5.557L18.5804 4.972C19.0281 4.82967 19.5145 5.01816 19.7494 5.425L21.5694 8.578C21.8018 8.98548 21.7218 9.49951 21.3764 9.817L19.9514 11.117C20.0162 11.7059 20.0162 12.3001 19.9514 12.889L21.3764 14.189C21.7218 14.5065 21.8018 15.0205 21.5694 15.428L19.7494 18.581C19.5145 18.9878 19.0281 19.1763 18.5804 19.034L16.7424 18.449C16.5098 18.6203 16.2682 18.7789 16.0184 18.924C15.7562 19.0759 15.4858 19.2131 15.2084 19.335L14.7964 21.214C14.6959 21.6726 14.2899 21.9996 13.8204 22ZM7.62041 16.229L8.44041 16.829C8.62526 16.9652 8.81792 17.0904 9.01741 17.204C9.20511 17.3127 9.39837 17.4115 9.59641 17.5L10.5294 17.909L10.9864 20H13.0164L13.4734 17.908L14.4064 17.499C14.8137 17.3194 15.2003 17.0961 15.5594 16.833L16.3804 16.233L18.4214 16.883L19.4364 15.125L17.8534 13.682L17.9654 12.67C18.0146 12.2274 18.0146 11.7806 17.9654 11.338L17.8534 10.326L19.4374 8.88L18.4214 7.121L16.3804 7.771L15.5594 7.171C15.2002 6.90671 14.8137 6.68175 14.4064 6.5L13.4734 6.091L13.0164 4H10.9864L10.5274 6.092L9.59641 6.5C9.39821 6.58704 9.20493 6.68486 9.01741 6.793C8.81915 6.90633 8.6275 7.03086 8.44341 7.166L7.62241 7.766L5.58241 7.116L4.56541 8.88L6.14841 10.321L6.03641 11.334C5.98721 11.7766 5.98721 12.2234 6.03641 12.666L6.14841 13.678L4.56541 15.121L5.58041 16.879L7.62041 16.229ZM11.9964 16C9.78727 16 7.99641 14.2091 7.99641 12C7.99641 9.79086 9.78727 8 11.9964 8C14.2056 8 15.9964 9.79086 15.9964 12C15.9937 14.208 14.2044 15.9972 11.9964 16ZM11.9964 10C10.9038 10.0011 10.0143 10.8788 9.99864 11.9713C9.98298 13.0638 10.847 13.9667 11.9391 13.9991C13.0312 14.0315 13.9473 13.1815 13.9964 12.09V12.49V12C13.9964 10.8954 13.101 10 11.9964 10Z" fill="white"/>
</svg>
