<svg width="24" height="24" viewBox="0 0 24 24" fill="none" xmlns="http://www.w3.org/2000/svg">
<path d="M17.5003 22C16.4182 22.0125 15.3927 21.5181 14.7285 20.6637C14.0644 19.8094 13.8382 18.6935 14.1173 17.648L7.85733 14.07C6.77562 15.061 5.19001 15.2708 3.88782 14.5951C2.58562 13.9194 1.84421 12.5022 2.0317 11.0472C2.21919 9.59217 3.29566 8.40923 4.72661 8.08574C6.15756 7.76224 7.63819 8.36711 8.43333 9.59999L14.1163 6.35099C14.0428 6.07318 14.0038 5.78735 14.0003 5.49999C13.986 3.8267 15.1481 2.37313 16.7835 2.01881C18.4189 1.66449 20.0784 2.50673 20.7579 4.03591C21.4374 5.56508 20.9503 7.36122 19.5913 8.3375C18.2322 9.31378 16.3746 9.20208 15.1423 8.06999L8.99133 11.585C8.98524 11.8443 8.949 12.102 8.88333 12.353L15.1423 15.93C16.2946 14.8725 18.0091 14.7093 19.3402 15.5303C20.6713 16.3513 21.2949 17.9567 20.8671 19.461C20.4393 20.9653 19.0642 22.0023 17.5003 22ZM17.5003 17C16.6719 17 16.0003 17.6716 16.0003 18.5C16.0003 19.3284 16.6719 20 17.5003 20C18.3287 20 19.0003 19.3284 19.0003 18.5C19.0003 17.6716 18.3287 17 17.5003 17ZM5.50033 9.99999C4.6719 9.99999 4.00033 10.6716 4.00033 11.5C4.00033 12.3284 4.6719 13 5.50033 13C6.32876 13 7.00033 12.3284 7.00033 11.5C7.00033 10.6716 6.32876 9.99999 5.50033 9.99999ZM17.5003 3.99999C16.6719 3.99999 16.0003 4.67156 16.0003 5.49999C16.0003 6.32842 16.6719 6.99999 17.5003 6.99999C18.3287 6.99999 19.0003 6.32842 19.0003 5.49999C19.0003 4.67156 18.3287 3.99999 17.5003 3.99999Z" fill="white"/>
</svg>
