<svg width="24" height="24" viewBox="0 0 24 24" fill="none" xmlns="http://www.w3.org/2000/svg">
<path d="M12.8967 21.968C12.366 21.9696 11.8567 21.7585 11.4827 21.382L3.64565 13.547C3.23212 13.1349 3.02012 12.5621 3.06565 11.98L3.56565 5.41401C3.63707 4.42569 4.42507 3.64068 5.41365 3.57301L11.9797 3.07301C12.0317 3.06201 12.0827 3.06201 12.1347 3.06201C12.6643 3.06138 13.1723 3.27234 13.5457 3.64801L21.3827 11.482C21.7579 11.8571 21.9688 12.3659 21.9688 12.8965C21.9688 13.4271 21.7579 13.9359 21.3827 14.311L14.3107 21.382C13.9365 21.7583 13.4274 21.9693 12.8967 21.968ZM8.65365 6.65401C7.74847 6.65427 6.95631 7.26245 6.72225 8.13684C6.48818 9.01123 6.87057 9.93383 7.65456 10.3863C8.43856 10.8387 9.42869 10.7082 10.0687 10.068L10.0757 10.062L10.0827 10.055L10.0747 10.062C10.6431 9.48857 10.811 8.62957 10.5003 7.88432C10.1895 7.13907 9.46109 6.65377 8.65365 6.65401Z" fill="white"/>
</svg>
