<svg width="24" height="24" viewBox="0 0 24 24" fill="none" xmlns="http://www.w3.org/2000/svg">
<path d="M20.2926 21.707L11.5866 13H7.00059V11H9.58658L7.58659 9H7.00059C5.34373 9 4.00059 10.3431 4.00059 12C4.00059 13.6569 5.34373 15 7.00059 15H10.0006V17H7.00059C4.48214 17.0021 2.35522 15.1307 2.03663 12.6325C1.71804 10.1343 3.30722 7.78905 5.74558 7.159L2.29258 3.707L3.70758 2.293L21.7076 20.293L20.2936 21.706L20.2926 21.707ZM20.1366 15.893L18.7086 14.466C19.7871 13.7188 20.2549 12.3575 19.8636 11.1052C19.4723 9.85294 18.3126 9.0002 17.0006 9H14.0006V7H17.0006C19.1206 7.00025 21.01 8.33744 21.7152 10.3367C22.4205 12.336 21.7882 14.5627 20.1376 15.893H20.1366Z" fill="white"/>
</svg>
