<svg width="24" height="24" viewBox="0 0 24 24" fill="none" xmlns="http://www.w3.org/2000/svg">
<path fill-rule="evenodd" clip-rule="evenodd" d="M8.20457 5.77311C7.22509 6.26285 7 6.7544 7 7C7 7.2456 7.22509 7.73715 8.20457 8.22689C9.12424 8.68673 10.4647 9 12 9C13.5353 9 14.8758 8.68673 15.7954 8.22689C16.7749 7.73715 17 7.2456 17 7C17 6.7544 16.7749 6.26285 15.7954 5.77311C14.8758 5.31327 13.5353 5 12 5C10.4647 5 9.12424 5.31327 8.20457 5.77311ZM17 9.85003C16.8976 9.90842 16.794 9.96366 16.6899 10.0157C15.4379 10.6417 13.7784 11 12 11C10.2216 11 8.56205 10.6417 7.31015 10.0157C7.20597 9.96366 7.10235 9.90842 7 9.85004V12C7 12.2456 7.22509 12.7372 8.20457 13.2269C9.12424 13.6867 10.4647 14 12 14C13.5353 14 14.8758 13.6867 15.7954 13.2269C16.7741 12.7376 16.9996 12.2464 17 12.0006C17 12.0004 17 12.0008 17 12.0006L17 9.85003ZM19 11.999V7C19 5.58874 17.8819 4.5803 16.6899 3.98425C15.4379 3.3583 13.7784 3 12 3C10.2216 3 8.56205 3.3583 7.31015 3.98425C6.11805 4.5803 5 5.58874 5 7V17C5 18.4113 6.11805 19.4197 7.31015 20.0157C8.56205 20.6417 10.2216 21 12 21C13.7784 21 15.4379 20.6417 16.6899 20.0157C17.8819 19.4197 19 18.4113 19 17V12.0016C19 12.0011 19 11.9995 19 11.999C19 11.9987 19 11.9993 19 11.999ZM17 14.85C16.8976 14.9084 16.794 14.9637 16.6899 15.0157C15.4379 15.6417 13.7784 16 12 16C10.2216 16 8.56205 15.6417 7.31015 15.0157C7.20597 14.9637 7.10235 14.9084 7 14.85V17C7 17.2456 7.22509 17.7372 8.20457 18.2269C9.12424 18.6867 10.4647 19 12 19C13.5353 19 14.8758 18.6867 15.7954 18.2269C16.7749 17.7372 17 17.2456 17 17V14.85Z" fill="white"/>
</svg>
