<svg width="24" height="24" viewBox="0 0 24 24" fill="none" xmlns="http://www.w3.org/2000/svg">
<path fill-rule="evenodd" clip-rule="evenodd" d="M12 5C12 3.89543 12.8954 3 14 3H20C21.1046 3 22 3.89543 22 5V19C22 20.1046 21.1046 21 20 21H14C12.8954 21 12 20.1046 12 19V18H4C2.89543 18 2 17.1046 2 16V10C2 8.89543 2.89543 8 4 8H12V5ZM12 10H4V16H12V10ZM14 5H20V19H14V5ZM16 7C16 6.44772 16.4477 6 17 6H17.002C17.5543 6 18.002 6.44772 18.002 7V7.002C18.002 7.55428 17.5543 8.002 17.002 8.002H17C16.4477 8.002 16 7.55428 16 7.002V7ZM15 17C15 16.4477 15.4477 16 16 16H18C18.5523 16 19 16.4477 19 17C19 17.5523 18.5523 18 18 18H16C15.4477 18 15 17.5523 15 17ZM6 20C6 19.4477 6.44772 19 7 19H10C10.5523 19 11 19.4477 11 20C11 20.5523 10.5523 21 10 21H7C6.44772 21 6 20.5523 6 20Z" fill="white"/>
</svg>
