<svg width="24" height="24" viewBox="0 0 24 24" fill="none" xmlns="http://www.w3.org/2000/svg">
<path fill-rule="evenodd" clip-rule="evenodd" d="M1 7C1 5.89543 1.89543 5 3 5H21C22.1046 5 23 5.89543 23 7V17C23 18.1046 22.1046 19 21 19H3C1.89543 19 1 18.1046 1 17V7ZM21 7L3 7V17L21 17V7ZM4 9C4 8.44772 4.44772 8 5 8H19C19.5523 8 20 8.44772 20 9C20 9.55228 19.5523 10 19 10H5C4.44772 10 4 9.55228 4 9ZM4 12C4 11.4477 4.44772 11 5 11H19C19.5523 11 20 11.4477 20 12C20 12.5523 19.5523 13 19 13H5C4.44772 13 4 12.5523 4 12ZM4 15C4 14.4477 4.44772 14 5 14H6C6.55228 14 7 14.4477 7 15C7 15.5523 6.55228 16 6 16H5C4.44772 16 4 15.5523 4 15ZM8 15C8 14.4477 8.44772 14 9 14H15C15.5523 14 16 14.4477 16 15C16 15.5523 15.5523 16 15 16H9C8.44772 16 8 15.5523 8 15ZM17 15C17 14.4477 17.4477 14 18 14H19C19.5523 14 20 14.4477 20 15C20 15.5523 19.5523 16 19 16H18C17.4477 16 17 15.5523 17 15Z" fill="white"/>
</svg>
