<svg width="24" height="24" viewBox="0 0 24 24" fill="none" xmlns="http://www.w3.org/2000/svg">
<path fill-rule="evenodd" clip-rule="evenodd" d="M17 4L7 4L7 6L17 6V4ZM19 6V4C19 2.89543 18.1046 2 17 2L7 2C5.89543 2 5 2.89543 5 4L5 6H4C2.89543 6 2 6.89543 2 8V16C2 17.1046 2.89543 18 4 18H5V20C5 21.1046 5.89543 22 7 22H17C18.1046 22 19 21.1046 19 20V18H20C21.1046 18 22 17.1046 22 16V8C22 6.89543 21.1046 6 20 6L19 6ZM17 8L7 8C6.99886 8 6.99772 8 6.99658 8L4 8V16H5C5 14.8954 5.89543 14 7 14L17 14C18.1046 14 19 14.8954 19 16H20V8H17.0028C17.0019 8 17.0009 8 17 8ZM17 16.9986V16L7 16L7 20L17 20V17.0014C17 17.0009 17 17.0005 17 17C17 16.9995 17 16.9991 17 16.9986ZM9 11C9 10.4477 9.44772 10 10 10H14C14.5523 10 15 10.4477 15 11C15 11.5523 14.5523 12 14 12H10C9.44772 12 9 11.5523 9 11Z" fill="white"/>
</svg>
