<svg width="24" height="24" viewBox="0 0 24 24" fill="none" xmlns="http://www.w3.org/2000/svg">
<path fill-rule="evenodd" clip-rule="evenodd" d="M3 5C3 3.89543 3.89543 3 5 3H9C10.1046 3 11 3.89543 11 5V9C11 10.1046 10.1046 11 9 11H5C3.89543 11 3 10.1046 3 9V5ZM9 5H5V9H9V5ZM13 5C13 3.89543 13.8954 3 15 3H19C20.1046 3 21 3.89543 21 5V9C21 10.1046 20.1046 11 19 11H15C13.8954 11 13 10.1046 13 9V5ZM19 5H15V9H19V5ZM3 15C3 13.8954 3.89543 13 5 13H9C10.1046 13 11 13.8954 11 15V19C11 20.1046 10.1046 21 9 21H5C3.89543 21 3 20.1046 3 19V15ZM9 15H5V19H9V15ZM13 14C13 13.4477 13.4477 13 14 13H16C16.5523 13 17 13.4477 17 14C17 14.5523 16.5523 15 16 15H14C13.4477 15 13 14.5523 13 14ZM18 14C18 13.4477 18.4477 13 19 13H20C20.5523 13 21 13.4477 21 14V17C21 17.5523 20.5523 18 20 18H17C16.4477 18 16 17.5523 16 17C16 16.4477 16.4477 16 17 16H19V15C18.4477 15 18 14.5523 18 14ZM14 16C14.5523 16 15 16.4477 15 17V19H16C16.5523 19 17 19.4477 17 20C17 20.5523 16.5523 21 16 21H14C13.4477 21 13 20.5523 13 20V17C13 16.4477 13.4477 16 14 16ZM18 20C18 19.4477 18.4477 19 19 19H20C20.5523 19 21 19.4477 21 20C21 20.5523 20.5523 21 20 21H19C18.4477 21 18 20.5523 18 20Z" fill="white"/>
</svg>
