<svg width="24" height="24" viewBox="0 0 24 24" fill="none" xmlns="http://www.w3.org/2000/svg">
<path fill-rule="evenodd" clip-rule="evenodd" d="M2 4C2 2.89543 2.89543 2 4 2H16.0546C16.6216 2 17.1619 2.24064 17.5412 2.66207L21.4866 7.04581C21.8171 7.41305 22 7.88965 22 8.38374V20C22 21.1046 21.1046 22 20 22H4C2.89543 22 2 21.1046 2 20V4ZM8 20H16V15H8V20ZM18 20V15C18 13.8954 17.1046 13 16 13H8C6.89543 13 6 13.8954 6 15V20H4V4H16.0546L20 8.38374V20H18ZM8 7C8 6.44772 8.44772 6 9 6H15C15.5523 6 16 6.44772 16 7C16 7.55228 15.5523 8 15 8H9C8.44772 8 8 7.55228 8 7Z" fill="white"/>
</svg>
