<svg width="24" height="24" viewBox="0 0 24 24" fill="none" xmlns="http://www.w3.org/2000/svg">
<path fill-rule="evenodd" clip-rule="evenodd" d="M2 6C2 4.89543 2.89543 4 4 4H20C21.1046 4 22 4.89543 22 6V18C22 19.1046 21.1046 20 20 20H4C2.89543 20 2 19.1046 2 18V6ZM20 6L4 6V18H20V6ZM6.23178 9.35982C6.58534 8.93554 7.21591 8.87821 7.64018 9.23178L10.6402 11.7318C10.8682 11.9218 11 12.2032 11 12.5C11 12.7968 10.8682 13.0782 10.6402 13.2682L7.64018 15.7682C7.21591 16.1218 6.58534 16.0645 6.23178 15.6402C5.87821 15.2159 5.93554 14.5853 6.35982 14.2318L8.43795 12.5L6.35982 10.7682C5.93554 10.4147 5.87821 9.78409 6.23178 9.35982ZM11 15C11 14.4477 11.4477 14 12 14H17C17.5523 14 18 14.4477 18 15C18 15.5523 17.5523 16 17 16H12C11.4477 16 11 15.5523 11 15Z" fill="white"/>
</svg>
