<svg width="24" height="24" viewBox="0 0 24 24" fill="none" xmlns="http://www.w3.org/2000/svg">
<path fill-rule="evenodd" clip-rule="evenodd" d="M4 3L20 3C21.1046 3 22 3.89543 22 5V19C22 20.1046 21.1046 21 20 21L4 21C2.89543 21 2 20.1046 2 19L2 6.00146C2 6.00098 2 6.00049 2 6C2 5.99952 2 5.99903 2 5.99854L2 5C2 3.89543 2.89543 3 4 3ZM4 7L4 19H20V7H4ZM14.7071 10.2929C15.0976 10.6834 15.0976 11.3166 14.7071 11.7071L13.4142 13L14.7071 14.2929C15.0976 14.6834 15.0976 15.3166 14.7071 15.7071C14.3166 16.0976 13.6834 16.0976 13.2929 15.7071L12 14.4142L10.7071 15.7071C10.3166 16.0976 9.68345 16.0976 9.29293 15.7071C8.9024 15.3166 8.9024 14.6834 9.29293 14.2929L10.5858 13L9.29293 11.7071C8.9024 11.3166 8.9024 10.6835 9.29293 10.2929C9.68345 9.9024 10.3166 9.9024 10.7071 10.2929L12 11.5858L13.2929 10.2929C13.6834 9.90237 14.3166 9.90237 14.7071 10.2929Z" fill="white"/>
</svg>
