<svg width="24" height="24" viewBox="0 0 24 24" fill="none" xmlns="http://www.w3.org/2000/svg">
<path fill-rule="evenodd" clip-rule="evenodd" d="M4 3L20 3C21.1046 3 22 3.89543 22 5V19C22 20.1046 21.1046 21 20 21L4 21C2.89543 21 2 20.1046 2 19L2 6.00146C2 6.00098 2 6.00049 2 6C2 5.99952 2 5.99903 2 5.99854L2 5C2 3.89543 2.89543 3 4 3ZM4 7L4 19H20V7H4ZM15.7071 10.2929C16.0976 10.6834 16.0976 11.3166 15.7071 11.7071L11.7071 15.7071C11.3166 16.0976 10.6834 16.0976 10.2929 15.7071L8.29289 13.7071C7.90237 13.3166 7.90237 12.6834 8.29289 12.2929C8.68342 11.9024 9.31658 11.9024 9.70711 12.2929L11 13.5858L14.2929 10.2929C14.6834 9.90237 15.3166 9.90237 15.7071 10.2929Z" fill="white"/>
</svg>
