<svg width="24" height="24" viewBox="0 0 24 24" fill="none" xmlns="http://www.w3.org/2000/svg">
<path fill-rule="evenodd" clip-rule="evenodd" d="M4 3L20 3C21.1046 3 22 3.89543 22 5V19C22 20.1046 21.1046 21 20 21L4 21C2.89543 21 2 20.1046 2 19L2 6.00146C2 6.00098 2 6.00049 2 6C2 5.99952 2 5.99903 2 5.99854L2 5C2 3.89543 2.89543 3 4 3ZM4 7L4 19H20V7H4ZM7.29289 11.2929C7.68342 10.9024 8.31658 10.9024 8.70711 11.2929L10.7071 13.2929C11.0976 13.6834 11.0976 14.3166 10.7071 14.7071L8.70711 16.7071C8.31658 17.0976 7.68342 17.0976 7.29289 16.7071C6.90237 16.3166 6.90237 15.6834 7.29289 15.2929L8.58579 14L7.29289 12.7071C6.90237 12.3166 6.90237 11.6834 7.29289 11.2929ZM12 16C12 15.4477 12.4477 15 13 15H16C16.5523 15 17 15.4477 17 16C17 16.5523 16.5523 17 16 17H13C12.4477 17 12 16.5523 12 16Z" fill="white"/>
</svg>
