<svg width="24" height="24" viewBox="0 0 24 24" fill="none" xmlns="http://www.w3.org/2000/svg">
<path fill-rule="evenodd" clip-rule="evenodd" d="M17.2195 1.41191C17.5519 0.97084 18.1789 0.88272 18.62 1.21509C20.1371 2.35834 21.3323 3.875 22.0892 5.61737C22.3092 6.12392 22.077 6.71295 21.5704 6.93299C21.0639 7.15304 20.4748 6.92078 20.2548 6.41422C19.6355 4.98865 18.6576 3.74775 17.4163 2.81236C16.9753 2.47999 16.8872 1.85299 17.2195 1.41191ZM6.78061 1.41194C7.11298 1.85301 7.02486 2.48002 6.58379 2.81239C5.3425 3.74777 4.3646 4.98868 3.74533 6.41425C3.52529 6.9208 2.93626 7.15307 2.42971 6.93302C1.92315 6.71297 1.69089 6.12395 1.91094 5.61739C2.66782 3.87502 3.86302 2.35836 5.38016 1.21512C5.82123 0.882746 6.44824 0.970866 6.78061 1.41194ZM12 4.00004C8.68629 4.00005 6.00001 6.68634 6.00001 10V13.7225C6.00001 14.1654 5.82405 14.5902 5.51083 14.9034L4.80373 14.1963L5.51083 14.9034L5.00001 15.4143L5.00001 16.0001H19V15.4143L18.4892 14.9034C18.176 14.5902 18 14.1654 18 13.7224V10C18 6.68633 15.3137 4.00003 12 4.00004ZM4.00001 10C4.00001 5.58177 7.58172 2.00005 12 2.00004C16.4183 2.00003 20 5.58175 20 10V13.5858L20.4142 14.0001C20.7893 14.3751 21 14.8838 21 15.4143V16.0001C21 17.1046 20.1046 18.0001 19 18.0001H16V18.0001C16 20.2092 14.2091 22.0001 12 22.0001C9.79087 22.0001 8.00001 20.2092 8.00001 18.0001V18.0001H5.00001C3.89544 18.0001 3.00001 17.1046 3.00001 16.0001V15.4143C3.00001 14.8838 3.21072 14.3751 3.5858 14.0001L4.24116 14.6554L3.5858 14.0001L4.00001 13.5858V10ZM10 18.0001C10 19.1047 10.8954 20.0001 12 20.0001C13.1046 20.0001 14 19.1047 14 18.0001H10Z" fill="white"/>
</svg>
