<svg width="24" height="24" viewBox="0 0 24 24" fill="none" xmlns="http://www.w3.org/2000/svg">
<path fill-rule="evenodd" clip-rule="evenodd" d="M12 4C8.68628 4.00001 6 6.6863 6 10V13.7224C6 14.1654 5.82404 14.5902 5.51082 14.9034L4.81612 14.2087L5.51082 14.9034L5 15.4142L5 16H19V15.4142L18.4892 14.9034C18.176 14.5901 18 14.1653 18 13.7224V10C18 6.68629 15.3137 3.99999 12 4ZM4 10C4 5.58173 7.58171 2.00001 12 2C16.4183 1.99999 20 5.58172 20 10V13.5858L20.4142 14C20.7893 14.3751 21 14.8838 21 15.4142V16C21 17.1046 20.1046 18 19 18H16V18C16 20.2092 14.2091 22 12 22C9.79086 22 8 20.2092 8 18V18H5C3.89543 18 3 17.1046 3 16V15.4142C3 14.8838 3.21071 14.3751 3.58579 14L4.22555 14.6398L3.58579 14L4 13.5858V10ZM10 18C10 19.1046 10.8954 20 12 20C13.1046 20 14 19.1046 14 18H10ZM14.7071 7.29294C15.0976 7.68346 15.0976 8.31663 14.7071 8.70715L13.4142 10L14.7071 11.2929C15.0976 11.6835 15.0976 12.3166 14.7071 12.7072C14.3166 13.0977 13.6834 13.0977 13.2929 12.7072L12 11.4143L10.7071 12.7071C10.3166 13.0976 9.68345 13.0976 9.29293 12.7071C8.9024 12.3166 8.9024 11.6834 9.29293 11.2929L10.5858 10L9.29293 8.70718C8.9024 8.31666 8.9024 7.68349 9.29293 7.29297C9.68345 6.90245 10.3166 6.90245 10.7071 7.29297L12 8.58583L13.2929 7.29294C13.6834 6.90241 14.3166 6.90241 14.7071 7.29294Z" fill="white"/>
</svg>
