<svg width="24" height="24" viewBox="0 0 24 24" fill="none" xmlns="http://www.w3.org/2000/svg">
<path fill-rule="evenodd" clip-rule="evenodd" d="M4.29289 2.29289C4.68342 1.90237 5.31658 1.90237 5.70711 2.29289L19.6971 16.2828C19.7038 16.2894 19.7105 16.2961 19.717 16.3028L21.7071 18.2929C22.0976 18.6834 22.0976 19.3166 21.7071 19.7071C21.3166 20.0976 20.6834 20.0976 20.2929 19.7071L18.5856 17.9999H16C16 20.209 14.2092 22 12 22C9.79082 22 8 20.2092 8 18L5 17.9999C3.97364 17.9999 3.12906 17.2276 3.01341 16.2319C3.01117 16.2126 3.0095 16.1934 3.00839 16.1741L3.00166 16.0575C3.00055 16.0383 3 16.0191 3 15.9999V15.4141C3 14.8835 3.21078 14.375 3.58565 14L4 13.5857V9.99986C4 8.15182 4.62764 6.44866 5.68013 5.09434L4.29289 3.70711C3.90237 3.31658 3.90237 2.68342 4.29289 2.29289ZM7.10912 6.52333C6.41028 7.50433 6 8.70343 6 9.99986V13.7223C6 14.1653 5.82402 14.59 5.51088 14.9032L5.00013 15.4139L5 15.971L5.00166 15.9999H16.5856L7.10912 6.52333ZM10 18C10 19.1046 10.8954 20 12 20C13.1046 20 14 19.1046 14 18H10ZM11.9832 2.00014L12.0001 2C16.4183 2 20.0001 5.58171 20.0001 9.99998L19.9992 12.9993C19.9991 13.5516 19.5512 13.9992 18.9989 13.999C18.4467 13.9988 17.9991 13.551 17.9992 12.9987L18.0001 9.99998C18.0001 9.99989 18.0001 10.0001 18.0001 9.99998C17.9999 6.68912 15.3181 4.00439 12.0082 4.00001L11.785 4.00377C11.097 4.02793 10.44 4.16761 9.83174 4.40348C9.31681 4.60315 8.73752 4.34758 8.53785 3.83265C8.33819 3.31772 8.59376 2.73842 9.10869 2.53876C9.92557 2.22201 10.8067 2.03567 11.7256 2.00463L11.7425 2.0042L11.9832 2.00014Z" fill="white"/>
</svg>
