<svg width="24" height="24" viewBox="0 0 24 24" fill="none" xmlns="http://www.w3.org/2000/svg">
<path fill-rule="evenodd" clip-rule="evenodd" d="M2 6C2 4.89543 2.89543 4 4 4H20C21.1046 4 22 4.89543 22 6V16C22 17.1046 21.1046 18 20 18H8.35078L5.24939 20.4811C3.93986 21.5287 2 20.5964 2 18.9194V6ZM20 6H4V18.9194L7.10139 16.4383C7.45602 16.1546 7.89664 16 8.35078 16H20V6ZM8 11C8 10.4477 8.44772 10 9 10H15C15.5523 10 16 10.4477 16 11C16 11.5523 15.5523 12 15 12H9C8.44772 12 8 11.5523 8 11Z" fill="white"/>
</svg>
