<svg width="24" height="24" viewBox="0 0 24 24" fill="none" xmlns="http://www.w3.org/2000/svg">
<path fill-rule="evenodd" clip-rule="evenodd" d="M2 6C2 4.89543 2.89543 4 4 4H20C21.1046 4 22 4.89543 22 6V16C22 17.1046 21.1046 18 20 18H8.35078L5.24939 20.4811C3.93986 21.5287 2 20.5964 2 18.9194V6ZM20 6H4V18.9194L7.10139 16.4383C7.45602 16.1546 7.89664 16 8.35078 16H20V6ZM15.7071 8.29289C16.0976 8.68342 16.0976 9.31658 15.7071 9.70711L11.7071 13.7071C11.3166 14.0976 10.6834 14.0976 10.2929 13.7071L8.29289 11.7071C7.90237 11.3166 7.90237 10.6834 8.29289 10.2929C8.68342 9.90237 9.31658 9.90237 9.70711 10.2929L11 11.5858L14.2929 8.29289C14.6834 7.90237 15.3166 7.90237 15.7071 8.29289Z" fill="white"/>
</svg>
