<svg width="24" height="24" viewBox="0 0 24 24" fill="none" xmlns="http://www.w3.org/2000/svg">
<path fill-rule="evenodd" clip-rule="evenodd" d="M2.00003 12C2.00003 6.47715 6.47718 2 12 2C17.5229 2 22 6.47715 22 12C22 17.5228 17.5229 22 12 22C10.2069 22 8.52163 21.5272 7.06485 20.6992L3.31625 21.9487C2.95692 22.0685 2.56075 21.9749 2.29292 21.7071C2.02509 21.4393 1.93157 21.0431 2.05134 20.6838L3.30088 16.9352C2.47283 15.4784 2.00003 13.7931 2.00003 12ZM12 4C7.58175 4 4.00003 7.58172 4.00003 12C4.00003 13.5758 4.45461 15.0424 5.2394 16.2793C5.40047 16.5332 5.43878 16.846 5.3437 17.1313L4.58117 19.4189L6.86877 18.6563C7.15399 18.5613 7.46686 18.5996 7.72073 18.7606C8.95767 19.5454 10.4242 20 12 20C16.4183 20 20 16.4183 20 12C20 7.58172 16.4183 4 12 4ZM14.7071 9.29289C15.0977 9.68342 15.0977 10.3166 14.7071 10.7071L13.4142 12L14.7071 13.2929C15.0977 13.6834 15.0977 14.3166 14.7071 14.7071C14.3166 15.0976 13.6834 15.0976 13.2929 14.7071L12 13.4142L10.7072 14.7071C10.3166 15.0976 9.68348 15.0976 9.29295 14.7071C8.90243 14.3165 8.90243 13.6834 9.29295 13.2929L10.5858 12L9.29295 10.7071C8.90243 10.3166 8.90243 9.68345 9.29295 9.29293C9.68348 8.9024 10.3166 8.9024 10.7072 9.29293L12 10.5858L13.2929 9.29289C13.6834 8.90237 14.3166 8.90237 14.7071 9.29289Z" fill="white"/>
</svg>
