<svg width="24" height="24" viewBox="0 0 24 24" fill="none" xmlns="http://www.w3.org/2000/svg">
<path fill-rule="evenodd" clip-rule="evenodd" d="M2 6C2 4.89543 2.89543 4 4 4H20C21.1046 4 22 4.89543 22 6V16C22 17.1046 21.1046 18 20 18H8.35078L5.24939 20.4811C3.93986 21.5287 2 20.5964 2 18.9194V6ZM20 6H4V18.9194L7.10139 16.4383C7.45602 16.1546 7.89664 16 8.35078 16H20V6ZM14.7071 8.29289C15.0976 8.68342 15.0976 9.31658 14.7071 9.70711L13.4142 11L14.7071 12.2929C15.0976 12.6834 15.0976 13.3166 14.7071 13.7071C14.3166 14.0976 13.6834 14.0976 13.2929 13.7071L12 12.4142L10.7071 13.7071C10.3166 14.0976 9.68345 14.0976 9.29293 13.7071C8.9024 13.3165 8.9024 12.6834 9.29293 12.2929L10.5858 11L9.29293 9.70714C8.9024 9.31661 8.9024 8.68345 9.29293 8.29293C9.68345 7.9024 10.3166 7.9024 10.7071 8.29293L12 9.58579L13.2929 8.29289C13.6834 7.90237 14.3166 7.90237 14.7071 8.29289Z" fill="white"/>
</svg>
