<svg width="24" height="24" viewBox="0 0 24 24" fill="none" xmlns="http://www.w3.org/2000/svg">
<path fill-rule="evenodd" clip-rule="evenodd" d="M2.00003 12C2.00003 6.47715 6.47718 2 12 2C17.5229 2 22 6.47715 22 12C22 17.5228 17.5229 22 12 22C10.2069 22 8.52163 21.5272 7.06485 20.6992L3.31625 21.9487C2.95692 22.0685 2.56075 21.9749 2.29292 21.7071C2.02509 21.4393 1.93157 21.0431 2.05134 20.6838L3.30088 16.9352C2.47283 15.4784 2.00003 13.7931 2.00003 12ZM12 4C7.58175 4 4.00003 7.58172 4.00003 12C4.00003 13.5758 4.45461 15.0424 5.2394 16.2793C5.40047 16.5332 5.43878 16.846 5.3437 17.1313L4.58117 19.4189L6.86877 18.6563C7.15399 18.5613 7.46686 18.5996 7.72073 18.7606C8.95767 19.5454 10.4242 20 12 20C16.4183 20 20 16.4183 20 12C20 7.58172 16.4183 4 12 4ZM12 8C12.5523 8 13 8.44772 13 9V11H15C15.5523 11 16 11.4477 16 12C16 12.5523 15.5523 13 15 13H13V15C13 15.5523 12.5523 16 12 16C11.4477 16 11 15.5523 11 15V13H9.00003C8.44774 13 8.00003 12.5523 8.00003 12C8.00003 11.4477 8.44774 11 9.00003 11H11V9C11 8.44772 11.4477 8 12 8Z" fill="white"/>
</svg>
