<svg width="24" height="24" viewBox="0 0 24 24" fill="none" xmlns="http://www.w3.org/2000/svg">
<path fill-rule="evenodd" clip-rule="evenodd" d="M2 6C2 4.89543 2.89543 4 4 4H20C21.1046 4 22 4.89543 22 6V16C22 17.1046 21.1046 18 20 18H8.35078L5.24939 20.4811C3.93986 21.5287 2 20.5964 2 18.9194V6ZM20 6H4V18.9194L7.10139 16.4383C7.45602 16.1546 7.89664 16 8.35078 16H20V6ZM7 11C7 10.4477 7.44772 10 8 10H8.002C8.55428 10 9.002 10.4477 9.002 11V11.002C9.002 11.5543 8.55428 12.002 8.002 12.002H8C7.44772 12.002 7 11.5543 7 11.002V11ZM11 11C11 10.4477 11.4477 10 12 10H12.002C12.5543 10 13.002 10.4477 13.002 11V11.002C13.002 11.5543 12.5543 12.002 12.002 12.002H12C11.4477 12.002 11 11.5543 11 11.002V11ZM15 11C15 10.4477 15.4477 10 16 10H16.002C16.5543 10 17.002 10.4477 17.002 11V11.002C17.002 11.5543 16.5543 12.002 16.002 12.002H16C15.4477 12.002 15 11.5543 15 11.002V11Z" fill="white"/>
</svg>
