<svg width="24" height="24" viewBox="0 0 24 24" fill="none" xmlns="http://www.w3.org/2000/svg">
<path fill-rule="evenodd" clip-rule="evenodd" d="M2.00003 12C2.00003 6.47715 6.47718 2 12 2C17.5229 2 22 6.47715 22 12C22 17.5228 17.5229 22 12 22C10.2069 22 8.52163 21.5272 7.06485 20.6992L3.31625 21.9487C2.95692 22.0685 2.56075 21.9749 2.29292 21.7071C2.02509 21.4393 1.93157 21.0431 2.05134 20.6838L3.30088 16.9352C2.47283 15.4784 2.00003 13.7931 2.00003 12ZM12 4C7.58175 4 4.00003 7.58172 4.00003 12C4.00003 13.5758 4.45461 15.0424 5.2394 16.2793C5.40047 16.5332 5.43878 16.846 5.3437 17.1313L4.58117 19.4189L6.86877 18.6563C7.15399 18.5613 7.46686 18.5996 7.72073 18.7606C8.95767 19.5454 10.4242 20 12 20C16.4183 20 20 16.4183 20 12C20 7.58172 16.4183 4 12 4ZM7.00003 12C7.00003 11.4477 7.44774 11 8.00003 11H8.00203C8.55431 11 9.00203 11.4477 9.00203 12V12.002C9.00203 12.5543 8.55431 13.002 8.00203 13.002H8.00003C7.44774 13.002 7.00003 12.5543 7.00003 12.002V12ZM11 12C11 11.4477 11.4477 11 12 11H12.002C12.5543 11 13.002 11.4477 13.002 12V12.002C13.002 12.5543 12.5543 13.002 12.002 13.002H12C11.4477 13.002 11 12.5543 11 12.002V12ZM15 12C15 11.4477 15.4477 11 16 11H16.002C16.5543 11 17.002 11.4477 17.002 12V12.002C17.002 12.5543 16.5543 13.002 16.002 13.002H16C15.4477 13.002 15 12.5543 15 12.002V12Z" fill="white"/>
</svg>
