<svg width="24" height="24" viewBox="0 0 24 24" fill="none" xmlns="http://www.w3.org/2000/svg">
<path fill-rule="evenodd" clip-rule="evenodd" d="M11.0333 2.67183C11.7634 2.11976 12.7751 2.13377 13.4896 2.70585L21.625 9.21949C21.862 9.40927 22 9.69646 22 10.0001V20.0001C22 21.1047 21.1046 22.0001 20 22.0001H4C2.89543 22.0001 2 21.1047 2 20.0001V10.0001C2 9.68674 2.1469 9.39149 2.39685 9.20248L11.0333 2.67183ZM4 11.8399L11.7133 16.8392C12.0522 17.0588 12.49 17.0531 12.823 16.8245L20 11.8992V20.0001H4V11.8399ZM19.3228 9.93828L12.2413 14.7981L4.74134 9.93706L12.2396 4.26709L19.3228 9.93828Z" fill="white"/>
</svg>
