<svg width="24" height="24" viewBox="0 0 24 24" fill="none" xmlns="http://www.w3.org/2000/svg">
<path fill-rule="evenodd" clip-rule="evenodd" d="M2 4.89474C2 3.29602 3.29602 2 4.89474 2H7.64593C8.87265 2 9.97577 2.74685 10.4314 3.88583L11.4856 6.52149C11.8949 7.54459 11.7103 8.7097 11.0049 9.55621L10.4375 10.2371C10.1064 10.6344 10.1329 11.2187 10.4986 11.5844L12.4156 13.5014C12.7813 13.8671 13.3656 13.8936 13.7629 13.5625L14.4438 12.9951C15.2903 12.2897 16.4554 12.1051 17.4785 12.5144L20.1142 13.5686C21.2531 14.0242 22 15.1274 22 16.3541V19.1053C22 20.704 20.704 22 19.1053 22C9.65829 22 2 14.3417 2 4.89474ZM4.89474 4C4.40059 4 4 4.40059 4 4.89474C4 13.2371 10.7629 20 19.1053 20C19.5994 20 20 19.5994 20 19.1053V16.3541C20 15.9452 19.751 15.5775 19.3714 15.4256L16.7357 14.3713C16.3947 14.2349 16.0063 14.2964 15.7242 14.5316L15.0433 15.099C13.8513 16.0923 12.0986 16.0128 11.0014 14.9156L9.08437 12.9986C7.98722 11.9014 7.90771 10.1487 8.90103 8.95672L9.46842 8.27585C9.70356 7.99367 9.76509 7.6053 9.62867 7.26427L8.57441 4.62861C8.42255 4.24895 8.05484 4 7.64593 4H4.89474Z" fill="white"/>
</svg>
