<svg width="24" height="24" viewBox="0 0 24 24" fill="none" xmlns="http://www.w3.org/2000/svg">
<path fill-rule="evenodd" clip-rule="evenodd" d="M3.1188 5.80954C3.496 5.30033 4.09221 5 4.72591 5H19.274C19.9077 5 20.5039 5.30032 20.8811 5.80955L21.6219 6.80954C22.5996 8.12948 21.6574 10 20.0148 10H20V18C20 19.1046 19.1045 20 18 20H5.99997C4.8954 20 3.99997 19.1046 3.99997 18V10H3.98517C2.34256 10 1.40033 8.12948 2.37806 6.80954L3.1188 5.80954ZM20.0148 8L19.274 7H4.72591L3.98517 8L20.0148 8ZM5.99997 10V18H18V10H5.99997ZM8.99997 14C8.99997 13.4477 9.44768 13 9.99997 13H14C14.5523 13 15 13.4477 15 14C15 14.5523 14.5523 15 14 15H9.99997C9.44768 15 8.99997 14.5523 8.99997 14Z" fill="white"/>
</svg>
