<svg width="24" height="24" viewBox="0 0 24 24" fill="none" xmlns="http://www.w3.org/2000/svg">
<path fill-rule="evenodd" clip-rule="evenodd" d="M5.02547 8.07886C6.39612 5.64586 9.00497 4 12 4C15.7489 4 18.8942 6.57778 19.7624 10.0578C22.162 10.4249 24 12.4978 24 15C24 17.7614 21.7614 20 19 20H6C2.68629 20 0 17.3137 0 14C0 11.018 2.17484 8.54474 5.02547 8.07886ZM12 6C9.60438 6 7.53466 7.40395 6.5725 9.43836C6.41724 9.76665 6.0962 9.98496 5.73382 10.0087C3.64927 10.1451 2 11.8804 2 14C2 16.2091 3.79086 18 6 18H19C20.6569 18 22 16.6569 22 15C22 13.3431 20.6569 12 19 12C18.9823 12 18.9645 12.0002 18.9465 12.0005C18.4424 12.0092 18.0106 11.6413 17.9393 11.1421C17.5237 8.23512 15.022 6 12 6ZM12 8C12.5523 8 13 8.44772 13 9V13.1315L14.4453 12.1679C14.9048 11.8616 15.5257 11.9858 15.8321 12.4453C16.1384 12.9048 16.0142 13.5257 15.5547 13.8321L12.5547 15.8321C12.2188 16.056 11.7812 16.056 11.4453 15.8321L8.4453 13.8321C7.98577 13.5257 7.8616 12.9048 8.16795 12.4453C8.4743 11.9858 9.09517 11.8616 9.5547 12.1679L11 13.1315V9C11 8.44772 11.4477 8 12 8Z" fill="white"/>
</svg>
