<svg width="24" height="24" viewBox="0 0 24 24" fill="none" xmlns="http://www.w3.org/2000/svg">
<path fill-rule="evenodd" clip-rule="evenodd" d="M4.29289 4.29289C4.68342 3.90237 5.31658 3.90237 5.70711 4.29289L21.7071 20.2929C22.0976 20.6834 22.0976 21.3166 21.7071 21.7071C21.3166 22.0976 20.6834 22.0976 20.2929 21.7071L18.5858 20H6C2.68629 20 0 17.3137 0 14C0 11.018 2.17483 8.54476 5.02544 8.07886C5.21973 7.73393 5.43879 7.40497 5.68018 7.09439L4.29289 5.70711C3.90237 5.31658 3.90237 4.68342 4.29289 4.29289ZM7.1092 8.52341C6.90449 8.81079 6.72457 9.11682 6.5725 9.43836C6.41724 9.76665 6.0962 9.98496 5.73382 10.0087C3.64927 10.1451 2 11.8804 2 14C2 16.2091 3.79086 18 6 18H16.5858L7.1092 8.52341ZM9.71475 4.33143C10.4401 4.11557 11.2074 4 12 4C15.7489 4 18.8942 6.57778 19.7624 10.0578C22.162 10.4249 24 12.4978 24 15C24 16.1815 23.589 17.2697 22.9029 18.1255C22.5575 18.5564 21.9281 18.6257 21.4972 18.2802C21.0663 17.9348 20.997 17.3054 21.3424 16.8745C21.7543 16.3607 22 15.7104 22 15C22 13.3431 20.6569 12 19 12C18.9823 12 18.9645 12.0002 18.9465 12.0005C18.4424 12.0092 18.0106 11.6413 17.9393 11.1421C17.5237 8.23512 15.022 6 12 6C11.4026 6 10.8274 6.08699 10.2852 6.24833C9.75591 6.40587 9.19909 6.10447 9.04155 5.57513C8.88401 5.04579 9.18541 4.48896 9.71475 4.33143Z" fill="white"/>
</svg>
