<svg width="24" height="24" viewBox="0 0 24 24" fill="none" xmlns="http://www.w3.org/2000/svg">
<path fill-rule="evenodd" clip-rule="evenodd" d="M5.02547 8.07886C6.39612 5.64586 9.00497 4 12 4C15.7489 4 18.8942 6.57778 19.7624 10.0578C22.162 10.4249 24 12.4978 24 15C24 17.7614 21.7614 20 19 20H6C2.68629 20 0 17.3137 0 14C0 11.018 2.17484 8.54474 5.02547 8.07886ZM12 6C9.60438 6 7.53466 7.40395 6.5725 9.43836C6.41724 9.76665 6.0962 9.98496 5.73382 10.0087C3.64927 10.1451 2 11.8804 2 14C2 16.2091 3.79086 18 6 18H19C20.6569 18 22 16.6569 22 15C22 13.3431 20.6569 12 19 12C18.9823 12 18.9645 12.0002 18.9465 12.0005C18.4424 12.0092 18.0106 11.6413 17.9393 11.1421C17.5237 8.23512 15.022 6 12 6ZM14.7071 10.2929C15.0976 10.6834 15.0976 11.3166 14.7071 11.7071L13.4142 13L14.7071 14.2929C15.0976 14.6834 15.0976 15.3166 14.7071 15.7071C14.3166 16.0976 13.6834 16.0976 13.2929 15.7071L12 14.4142L10.7071 15.7071C10.3166 16.0976 9.68345 16.0976 9.29293 15.7071C8.9024 15.3165 8.9024 14.6834 9.29293 14.2929L10.5858 13L9.29293 11.7071C8.9024 11.3166 8.9024 10.6834 9.29293 10.2929C9.68345 9.9024 10.3166 9.9024 10.7071 10.2929L12 11.5858L13.2929 10.2929C13.6834 9.90237 14.3166 9.90237 14.7071 10.2929Z" fill="white"/>
</svg>
