<svg width="24" height="24" viewBox="0 0 24 24" fill="none" xmlns="http://www.w3.org/2000/svg">
<path fill-rule="evenodd" clip-rule="evenodd" d="M5.12955 4.00772C5.48564 3.38457 6.14832 3 6.86604 3H17.134C17.8517 3 18.5144 3.38457 18.8705 4.00772L20.8682 7.50386C20.9546 7.65496 21 7.82597 21 8V19C21 20.1046 20.1046 21 19 21H5C3.89543 21 3 20.1046 3 19V8C3 7.82597 3.04542 7.65496 3.13176 7.50386L5.12955 4.00772ZM17.134 5L6.86604 5L5.72318 7H18.2768L17.134 5ZM19 9H5V19H19V9ZM12 10C12.5523 10 13 10.4477 13 11V15.1315L14.4453 14.1679C14.9048 13.8616 15.5257 13.9858 15.8321 14.4453C16.1384 14.9048 16.0142 15.5257 15.5547 15.8321L12.5547 17.8321C12.2188 18.056 11.7812 18.056 11.4453 17.8321L8.4453 15.8321C7.98577 15.5257 7.8616 14.9048 8.16795 14.4453C8.4743 13.9858 9.09517 13.8616 9.5547 14.1679L11 15.1315V11C11 10.4477 11.4477 10 12 10Z" fill="white"/>
</svg>
