<svg width="24" height="24" viewBox="0 0 24 24" fill="none" xmlns="http://www.w3.org/2000/svg">
<path fill-rule="evenodd" clip-rule="evenodd" d="M12.9981 2L6 2C4.89543 2 4 2.89543 4 4L4 20C4 21.1046 4.89543 22 6 22H18C19.1046 22 20 21.1046 20 20V8.79187C20 8.28803 19.8098 7.80275 19.4675 7.43305L15.0306 2.64119C14.6521 2.23239 14.1202 2 13.5631 2L13.0019 2C13.0012 2 13.0006 2 13 2C12.9994 2 12.9988 2 12.9981 2ZM17.2668 8L14 8V4.47187L17.2668 8ZM18 10L18 20H6L6 4L12 4V8C12 9.10457 12.8954 10 14 10L18 10ZM12 11C12.5523 11 13 11.4477 13 12V14H15C15.5523 14 16 14.4477 16 15C16 15.5523 15.5523 16 15 16H13V18C13 18.5523 12.5523 19 12 19C11.4477 19 11 18.5523 11 18V16H9C8.44772 16 8 15.5523 8 15C8 14.4477 8.44772 14 9 14H11V12C11 11.4477 11.4477 11 12 11Z" fill="white"/>
</svg>
