<svg width="24" height="24" viewBox="0 0 24 24" fill="none" xmlns="http://www.w3.org/2000/svg">
<path fill-rule="evenodd" clip-rule="evenodd" d="M12.9981 2L6 2C4.89543 2 4 2.89543 4 4L4 20C4 21.1046 4.89543 22 6 22H18C19.1046 22 20 21.1046 20 20V8.79187C20 8.28803 19.8098 7.80275 19.4675 7.43305L15.0306 2.64119C14.6521 2.23239 14.1202 2 13.5631 2L13.0019 2C13.0012 2 13.0006 2 13 2C12.9994 2 12.9988 2 12.9981 2ZM17.2668 8L14 8V4.47187L17.2668 8ZM18 10L18 20H6L6 4L12 4V8C12 9.10457 12.8954 10 14 10L18 10ZM11.5 13C10.6716 13 10 13.6716 10 14.5C10 15.3284 10.6716 16 11.5 16C12.3284 16 13 15.3284 13 14.5C13 13.6716 12.3284 13 11.5 13ZM8 14.5C8 12.567 9.56701 11 11.5 11C13.433 11 15 12.567 15 14.5C15 15.1028 14.8476 15.67 14.5792 16.1653L15.707 17.293C16.0975 17.6835 16.0975 18.3167 15.707 18.7072C15.3165 19.0977 14.6833 19.0977 14.2928 18.7072L13.1649 17.5794C12.6698 17.8477 12.1027 18 11.5 18C9.56701 18 8 16.433 8 14.5Z" fill="white"/>
</svg>
