<svg width="24" height="24" viewBox="0 0 24 24" fill="none" xmlns="http://www.w3.org/2000/svg">
<path fill-rule="evenodd" clip-rule="evenodd" d="M12.9981 2L6 2C4.89543 2 4 2.89543 4 4L4 20C4 21.1046 4.89543 22 6 22H18C19.1046 22 20 21.1046 20 20V8.79187C20 8.28803 19.8098 7.80275 19.4675 7.43305L15.0306 2.64119C14.6521 2.23239 14.1202 2 13.5631 2L13.0019 2C13.0012 2 13.0006 2 13 2C12.9994 2 12.9988 2 12.9981 2ZM17.2668 8L14 8V4.47187L17.2668 8ZM18 10L18 20H6L6 4L12 4V8C12 9.10457 12.8954 10 14 10L18 10ZM12 11C12.5523 11 13 11.4477 13 12V16.1315L14.4453 15.1679C14.9048 14.8616 15.5257 14.9858 15.8321 15.4453C16.1384 15.9048 16.0142 16.5257 15.5547 16.8321L12.5547 18.8321C12.2188 19.056 11.7812 19.056 11.4453 18.8321L8.4453 16.8321C7.98577 16.5257 7.8616 15.9048 8.16795 15.4453C8.4743 14.9858 9.09517 14.8616 9.5547 15.1679L11 16.1315V12C11 11.4477 11.4477 11 12 11Z" fill="white"/>
</svg>
