<svg width="24" height="24" viewBox="0 0 24 24" fill="none" xmlns="http://www.w3.org/2000/svg">
<path fill-rule="evenodd" clip-rule="evenodd" d="M12.9981 2L6 2C4.89543 2 4 2.89543 4 4L4 20C4 21.1046 4.89543 22 6 22H18C19.1046 22 20 21.1046 20 20V8.79187C20 8.28803 19.8098 7.80275 19.4675 7.43305L15.0306 2.64119C14.6521 2.23239 14.1202 2 13.5631 2L13.0019 2C13.0012 2 13.0006 2 13 2C12.9994 2 12.9988 2 12.9981 2ZM17.2668 8L14 8V4.47187L17.2668 8ZM18 10L18 20H6L6 4L12 4V8C12 9.10457 12.8954 10 14 10L18 10ZM14.7071 12.2929C15.0976 12.6834 15.0976 13.3166 14.7071 13.7071L13.4142 15L14.7071 16.2929C15.0976 16.6834 15.0976 17.3166 14.7071 17.7071C14.3166 18.0977 13.6834 18.0977 13.2929 17.7071L12 16.4142L10.7071 17.7071C10.3166 18.0976 9.68342 18.0976 9.2929 17.7071C8.90237 17.3165 8.90237 16.6834 9.2929 16.2929L10.5857 15L9.2929 13.7072C8.90237 13.3166 8.90237 12.6835 9.2929 12.293C9.68342 11.9024 10.3166 11.9024 10.7071 12.293L12 13.5858L13.2929 12.2929C13.6834 11.9024 14.3166 11.9024 14.7071 12.2929Z" fill="white"/>
</svg>
