<svg width="24" height="24" viewBox="0 0 24 24" fill="none" xmlns="http://www.w3.org/2000/svg">
<path fill-rule="evenodd" clip-rule="evenodd" d="M15.9988 2H11C9.89543 2 9 2.89543 9 4L9 5C8.99955 5 8.99909 5 8.99864 5L4 5C2.89543 5 2 5.89543 2 7L2 20C2 21.1046 2.89543 22 4 22L13 22C14.1046 22 15 21.1046 15 20V19H20C21.1046 19 22 18.1046 22 17V7.41421C22 6.88378 21.7893 6.37507 21.4142 6L18 2.58579C17.6249 2.21071 17.1162 2 16.5858 2H16.0012C16.0008 2 16.0004 2 16 2C15.9996 2 15.9992 2 15.9988 2ZM19.5858 7L17 7V4.41421L19.5858 7ZM20 9V17L15 17V10.4142C15 9.88378 14.7893 9.37507 14.4142 9L11 5.58579L11 4L15 4V7C15 8.10457 15.8954 9 17 9L20 9ZM8 7L4 7L4 20L13 20V18.002C13 18.0013 13 18.0007 13 18C13 17.9993 13 17.9987 13 17.998V12H10C8.89543 12 8 11.1046 8 10V7ZM12.5858 10L10 10V7.41421L12.5858 10Z" fill="white"/>
</svg>
