<svg width="24" height="24" viewBox="0 0 24 24" fill="none" xmlns="http://www.w3.org/2000/svg">
<path fill-rule="evenodd" clip-rule="evenodd" d="M12.9981 2L6 2C4.89543 2 4 2.89543 4 4L4 20C4 21.1046 4.89543 22 6 22H18C19.1046 22 20 21.1046 20 20V8.79187C20 8.28803 19.8098 7.80275 19.4675 7.43305L15.0306 2.64119C14.6521 2.23239 14.1202 2 13.5631 2L13.0019 2C13.0012 2 13.0006 2 13 2C12.9994 2 12.9988 2 12.9981 2ZM17.2668 8L14 8V4.47187L17.2668 8ZM18 10L18 20H6L6 4L12 4V8C12 9.10457 12.8954 10 14 10L18 10ZM15.7071 12.2929C16.0976 12.6834 16.0976 13.3166 15.7071 13.7071L11.7071 17.7071C11.3166 18.0976 10.6834 18.0976 10.2929 17.7071L8.2929 15.7071C7.90237 15.3166 7.90237 14.6834 8.2929 14.2929C8.68342 13.9024 9.31658 13.9024 9.70711 14.2929L11 15.5858L14.2929 12.2929C14.6834 11.9024 15.3166 11.9024 15.7071 12.2929Z" fill="white"/>
</svg>
