<svg width="24" height="24" viewBox="0 0 24 24" fill="none" xmlns="http://www.w3.org/2000/svg">
<path fill-rule="evenodd" clip-rule="evenodd" d="M13.9982 2H7C5.89543 2 5 2.89543 5 4V11C5 11.5523 5.44771 12 6 12C6.55228 12 7 11.5523 7 11V4L13 4V8C13 9.10457 13.8954 10 15 10L19 10V20H13C12.4477 20 12 20.4477 12 21C12 21.5523 12.4477 22 13 22H19C20.1046 22 21 21.1046 21 20V8.79187C21 8.28803 20.8098 7.80275 20.4675 7.43305L16.0306 2.64119C15.6521 2.23239 15.1202 2 14.5631 2H14.0018C14.0012 2 14.0006 2 14 2C13.9994 2 13.9988 2 13.9982 2ZM18.2668 8L15 4.47187V8L18.2668 8ZM11.5 10C11.7652 10 12.0196 10.1054 12.2071 10.2929L14.7071 12.7929C15.0976 13.1834 15.0976 13.8166 14.7071 14.2071L7.20711 21.7071C7.01957 21.8946 6.76522 22 6.5 22H4C3.44772 22 3 21.5523 3 21V18.5C3 18.2348 3.10536 17.9804 3.29289 17.7929L10.7929 10.2929C10.9804 10.1054 11.2348 10 11.5 10ZM5 18.9142V20H6.08579L9.83579 16.25L8.75 15.1642L5 18.9142ZM10.1642 13.75L11.25 14.8358L12.5858 13.5L11.5 12.4142L10.1642 13.75Z" fill="white"/>
</svg>
