<svg width="24" height="24" viewBox="0 0 24 24" fill="none" xmlns="http://www.w3.org/2000/svg">
<path fill-rule="evenodd" clip-rule="evenodd" d="M12.9981 2L6 2C4.89543 2 4 2.89543 4 4L4 20C4 21.1046 4.89543 22 6 22H18C19.1046 22 20 21.1046 20 20V8.79187C20 8.28803 19.8098 7.80275 19.4675 7.43305L15.0306 2.64119C14.6521 2.23239 14.1202 2 13.5631 2L13.0019 2C13.0012 2 13.0006 2 13 2C12.9994 2 12.9988 2 12.9981 2ZM17.2668 8L14 8V4.47187L17.2668 8ZM18 10L18 20H6L6 4L12 4V8C12 9.10457 12.8954 10 14 10L18 10ZM10.7071 12.2929C11.0976 12.6834 11.0976 13.3166 10.7071 13.7071L9.41422 15L10.7071 16.2929C11.0976 16.6834 11.0976 17.3166 10.7071 17.7071C10.3166 18.0976 9.68342 18.0976 9.2929 17.7071L7.2929 15.7071C7.10536 15.5196 7 15.2652 7 15C7 14.7348 7.10536 14.4804 7.2929 14.2929L9.2929 12.2929C9.68342 11.9024 10.3166 11.9024 10.7071 12.2929ZM13.2929 13.7071C12.9024 13.3166 12.9024 12.6834 13.2929 12.2929C13.6834 11.9024 14.3166 11.9024 14.7071 12.2929L16.7071 14.2929C17.0976 14.6834 17.0976 15.3166 16.7071 15.7071L14.7071 17.7071C14.3166 18.0976 13.6834 18.0976 13.2929 17.7071C12.9024 17.3166 12.9024 16.6834 13.2929 16.2929L14.5858 15L13.2929 13.7071Z" fill="white"/>
</svg>
