<svg width="24" height="24" viewBox="0 0 24 24" fill="none" xmlns="http://www.w3.org/2000/svg">
<path fill-rule="evenodd" clip-rule="evenodd" d="M2 5C2 3.89543 2.89543 3 4 3H9.58579C10.1162 3 10.6249 3.21071 11 3.58579L12.4142 5L20 5C21.1046 5 22 5.89543 22 7L22 19C22 20.1046 21.1046 21 20 21H4C2.89543 21 2 20.1046 2 19L2 5L3 5L2 5ZM4 7L4 19H20L20 7L4 7ZM10.7071 10.2929C11.0976 10.6834 11.0976 11.3166 10.7071 11.7071L9.41422 13L10.7071 14.2929C11.0976 14.6834 11.0976 15.3166 10.7071 15.7071C10.3166 16.0976 9.68342 16.0976 9.2929 15.7071L7.2929 13.7071C6.90237 13.3166 6.90237 12.6834 7.2929 12.2929L9.2929 10.2929C9.68342 9.90237 10.3166 9.90237 10.7071 10.2929ZM13.2929 10.2929C13.6834 9.90237 14.3166 9.90237 14.7071 10.2929L16.7071 12.2929C17.0976 12.6834 17.0976 13.3166 16.7071 13.7071L14.7071 15.7071C14.3166 16.0976 13.6834 16.0976 13.2929 15.7071C12.9024 15.3166 12.9024 14.6834 13.2929 14.2929L14.5858 13L13.2929 11.7071C12.9024 11.3166 12.9024 10.6834 13.2929 10.2929Z" fill="white"/>
</svg>
