<svg width="24" height="24" viewBox="0 0 24 24" fill="none" xmlns="http://www.w3.org/2000/svg">
<path fill-rule="evenodd" clip-rule="evenodd" d="M2 5C2 3.89543 2.89543 3 4 3H9.58579C10.1162 3 10.6249 3.21071 11 3.58579L12.4142 5H20C21.1046 5 22 5.89543 22 7V8C22 8.55229 21.5523 9 21 9C20.4477 9 20 8.55229 20 8V7H4V19H7C7.55229 19 8 19.4477 8 20C8 20.5523 7.55229 21 7 21H4C2.89543 21 2 20.1046 2 19L2 5L3 5L2 5ZM18.5 10C18.7652 10 19.0196 10.1054 19.2071 10.2929L21.7071 12.7929C22.0976 13.1834 22.0976 13.8166 21.7071 14.2071L14.2071 21.7071C14.0196 21.8946 13.7652 22 13.5 22H11C10.4477 22 10 21.5523 10 21V18.5C10 18.2348 10.1054 17.9804 10.2929 17.7929L17.7929 10.2929C17.9804 10.1054 18.2348 10 18.5 10ZM12 18.9142V20H13.0858L16.8358 16.25L15.75 15.1642L12 18.9142ZM17.1642 13.75L18.25 14.8358L19.5858 13.5L18.5 12.4142L17.1642 13.75Z" fill="white"/>
</svg>
