<svg width="24" height="24" viewBox="0 0 24 24" fill="none" xmlns="http://www.w3.org/2000/svg">
<path fill-rule="evenodd" clip-rule="evenodd" d="M2 5C2 3.89543 2.89543 3 4 3H9.58579C10.1162 3 10.6249 3.21071 11 3.58579L12.4142 5H20C21.1046 5 22 5.89543 22 7V12.0261C23.1545 12.2132 23.9318 13.3789 23.5973 14.5494L22.1687 19.5494C22.1271 19.6952 22.0699 19.8333 21.9993 19.9621C21.9998 19.9746 22 19.9873 22 20C22 20.5523 21.5523 21 21 21H4C2.89543 21 2 20.1046 2 19L2 5L3 5L2 5ZM4 12.86V7H20V12H5C4.55352 12 4.16113 12.296 4.03848 12.7253L4 12.86ZM5.7543 14L4.32573 19L20.2457 19L21.6743 14H5.7543Z" fill="white"/>
</svg>
