<svg width="24" height="24" viewBox="0 0 24 24" fill="none" xmlns="http://www.w3.org/2000/svg">
<path fill-rule="evenodd" clip-rule="evenodd" d="M6 4C6 2.89543 6.89543 2 8 2H11.9554C12.5725 2 13.1552 2.28495 13.5341 2.77212L14.4891 4H20C21.1046 4 22 4.89543 22 6V14C22 15.1046 21.1046 16 20 16H18L18 20C18 21.1046 17.1046 22 16 22H4C2.89543 22 2 21.1046 2 20L2 10C2 8.89543 2.89543 8 4 8H6L6 4ZM8 8.0005C8.60056 8.01388 9.1643 8.29671 9.53407 8.77212L10.4891 10L16 10C17.1046 10 18 10.8954 18 12V14H20V6H14.0103C14.0039 6.00006 13.9975 6.00006 13.9911 6H8V8.0005ZM16 14.9982V12H10.0101C10.0038 12.0001 9.99755 12.0001 9.99126 12L4 12L4 20H16L16 15.0018C16 15.0012 16 15.0006 16 15C16 14.9994 16 14.9988 16 14.9982Z" fill="white"/>
</svg>
