<svg width="24" height="24" viewBox="0 0 24 24" fill="none" xmlns="http://www.w3.org/2000/svg">
<path fill-rule="evenodd" clip-rule="evenodd" d="M2 5C2 3.89543 2.89543 3 4 3H9.58579C10.1162 3 10.6249 3.21071 11 3.58579L12.4142 5L20 5C21.1046 5 22 5.89543 22 7L22 19C22 20.1046 21.1046 21 20 21H4C2.89543 21 2 20.1046 2 19L2 5L3 5L2 5ZM4 7L4 19H20L20 7L4 7ZM12 9C12.5523 9 13 9.44772 13 10V14.1315L14.4453 13.1679C14.9048 12.8616 15.5257 12.9858 15.8321 13.4453C16.1384 13.9048 16.0142 14.5257 15.5547 14.8321L12.5547 16.8321C12.2188 17.056 11.7812 17.056 11.4453 16.8321L8.4453 14.8321C7.98577 14.5257 7.8616 13.9048 8.16795 13.4453C8.4743 12.9858 9.09517 12.8616 9.5547 13.1679L11 14.1315V10C11 9.44772 11.4477 9 12 9Z" fill="white"/>
</svg>
