<svg width="24" height="24" viewBox="0 0 24 24" fill="none" xmlns="http://www.w3.org/2000/svg">
<path fill-rule="evenodd" clip-rule="evenodd" d="M2 5C2 3.89543 2.89543 3 4 3H9.58579C10.1162 3 10.6249 3.21071 11 3.58579L12.4142 5L20 5C21.1046 5 22 5.89543 22 7L22 19C22 20.1046 21.1046 21 20 21H4C2.89543 21 2 20.1046 2 19L2 5L3 5L2 5ZM4 7L4 19H20L20 7L4 7ZM11 11.8685L9.5547 12.832C9.09517 13.1384 8.4743 13.0142 8.16795 12.5547C7.8616 12.0952 7.98577 11.4743 8.4453 11.1679L11.4453 9.16795C11.7812 8.94402 12.2188 8.94402 12.5547 9.16795L15.5547 11.1679C16.0142 11.4743 16.1384 12.0952 15.8321 12.5547C15.5257 13.0142 14.9048 13.1384 14.4453 12.8321L13 11.8685V16C13 16.5523 12.5523 17 12 17C11.4477 17 11 16.5523 11 16V11.8685Z" fill="white"/>
</svg>
