<svg width="24" height="24" viewBox="0 0 24 24" fill="none" xmlns="http://www.w3.org/2000/svg">
<path fill-rule="evenodd" clip-rule="evenodd" d="M2 5C2 3.89543 2.89543 3 4 3H9.58579C10.1162 3 10.6249 3.21071 11 3.58579L12.4142 5L20 5C21.1046 5 22 5.89543 22 7L22 19C22 20.1046 21.1046 21 20 21H4C2.89543 21 2 20.1046 2 19L2 5L3 5L2 5ZM4 7L4 19H20L20 7L4 7ZM11.5 11C10.6716 11 10 11.6716 10 12.5C10 13.3284 10.6716 14 11.5 14C12.3284 14 13 13.3284 13 12.5C13 11.6716 12.3284 11 11.5 11ZM8 12.5C8 10.567 9.56701 9 11.5 9C13.433 9 15 10.567 15 12.5C15 13.1028 14.8476 13.6701 14.5792 14.1653L15.707 15.293C16.0975 15.6835 16.0975 16.3167 15.707 16.7072C15.3165 17.0977 14.6833 17.0977 14.2928 16.7072L13.1649 15.5794C12.6698 15.8477 12.1027 16 11.5 16C9.56701 16 8 14.433 8 12.5Z" fill="white"/>
</svg>
