<svg width="24" height="24" viewBox="0 0 24 24" fill="none" xmlns="http://www.w3.org/2000/svg">
<path fill-rule="evenodd" clip-rule="evenodd" d="M18.2929 1.29289C18.6834 0.902369 19.3166 0.902369 19.7071 1.29289L22.7071 4.29289C23.0976 4.68342 23.0976 5.31658 22.7071 5.70711L13.7071 14.7071C13.5196 14.8946 13.2652 15 13 15H10C9.44772 15 9 14.5523 9 14V11C9 10.7348 9.10536 10.4804 9.29289 10.2929L15.2926 4.29319L18.2929 1.29289ZM16 6.41421L11 11.4142V13H12.5858L17.5858 8L16 6.41421ZM19 6.58579L17.4142 5L19 3.41421L20.5858 5L19 6.58579ZM3 5C3 3.89543 3.89543 3 5 3H10C10.5523 3 11 3.44772 11 4C11 4.55228 10.5523 5 10 5H5V19H19V14C19 13.4477 19.4477 13 20 13C20.5523 13 21 13.4477 21 14V19C21 20.1046 20.1046 21 19 21H5C3.89543 21 3 20.1046 3 19V5Z" fill="white"/>
</svg>
