<svg width="24" height="24" viewBox="0 0 24 24" fill="none" xmlns="http://www.w3.org/2000/svg">
<path fill-rule="evenodd" clip-rule="evenodd" d="M3 5C3 3.89543 3.89543 3 5 3H19C20.1046 3 21 3.89543 21 5V19C21 20.1046 20.1046 21 19 21H5C3.89543 21 3 20.1046 3 19V5ZM9 19H19V5H9V19ZM7 5V19H5V5H7ZM11 8C11 7.44772 11.4477 7 12 7H16C16.5523 7 17 7.44772 17 8C17 8.55228 16.5523 9 16 9H12C11.4477 9 11 8.55228 11 8ZM11 11C11 10.4477 11.4477 10 12 10H16C16.5523 10 17 10.4477 17 11C17 11.5523 16.5523 12 16 12H12C11.4477 12 11 11.5523 11 11Z" fill="white"/>
</svg>
