<svg width="24" height="24" viewBox="0 0 24 24" fill="none" xmlns="http://www.w3.org/2000/svg">
<path fill-rule="evenodd" clip-rule="evenodd" d="M3 5C3 3.89543 3.89543 3 5 3L5 19H10C10.5523 19 11 19.4477 11 20C11 20.5523 10.5523 21 10 21H5C3.89543 21 3 20.1046 3 19V5ZM21 5L5 5L5 3H19C20.1046 3 21 3.89543 21 5ZM21 5L19 5V10C19 10.5523 19.4477 11 20 11C20.5523 11 21 10.5523 21 10V5ZM13.5 11C12.1193 11 11 12.1193 11 13.5C11 14.8807 12.1193 16 13.5 16C14.8807 16 16 14.8807 16 13.5C16 12.1193 14.8807 11 13.5 11ZM9 13.5C9 11.0147 11.0147 9 13.5 9C15.9853 9 18 11.0147 18 13.5C18 14.3805 17.7471 15.202 17.31 15.8957L19.7071 18.2929C20.0976 18.6834 20.0976 19.3166 19.7071 19.7071C19.3166 20.0976 18.6834 20.0976 18.2929 19.7071L15.8957 17.31C15.202 17.7471 14.3805 18 13.5 18C11.0147 18 9 15.9853 9 13.5Z" fill="white"/>
</svg>
