<svg width="24" height="24" viewBox="0 0 24 24" fill="none" xmlns="http://www.w3.org/2000/svg">
<path fill-rule="evenodd" clip-rule="evenodd" d="M6 5C6 3.89543 6.89543 3 8 3H19C20.1046 3 21 3.89543 21 5V18.9999H22C22.5523 18.9999 23 19.4477 23 19.9999C23 20.5522 22.5523 20.9999 22 20.9999H19.0145C19.0097 21 19.0048 21 19 21H14.875C14.8716 21 14.8682 21 14.8647 20.9999H2C1.44772 20.9999 1 20.5522 1 19.9999C1 19.4477 1.44772 18.9999 2 18.9999H3V13.387C3 12.8194 3.24117 12.2786 3.66339 11.8992L6 9.80004V5ZM7.67122 10.9872C7.66912 10.9891 7.66701 10.991 7.6649 10.9929L5 13.387V18.9999H14V13.387L9.5 9.34424L7.67122 10.9872ZM16 18.9999V13.387C16 12.8194 15.7588 12.2786 15.3366 11.8992L10.8366 7.85646C10.0764 7.1735 8.9236 7.1735 8.16339 7.85646L8 8.00325V5H19V18.9999H16Z" fill="white"/>
</svg>
