<svg width="24" height="24" viewBox="0 0 24 24" fill="none" xmlns="http://www.w3.org/2000/svg">
<path fill-rule="evenodd" clip-rule="evenodd" d="M3 5C3 3.89543 3.89543 3 5 3H11C12.1046 3 13 3.89543 13 5V8.00325L13.1634 7.85646C13.9236 7.1735 15.0764 7.1735 15.8366 7.85646L20.3366 11.8992C20.7588 12.2786 21 12.8194 21 13.387V18.9999C21 19 21 18.9999 21 18.9999L22 19C22.5523 19 23 19.4477 23 20C23 20.5523 22.5523 21 22 21H2C1.44772 21 1 20.5523 1 20C1 19.4477 1.44772 19 2 19H3V5ZM13 19L19 18.9999V13.387L14.5 9.34424L13 10.6918V19ZM11 10.2421C11 10.2449 11 10.2477 11 10.2505V19H5V5H11V10.2421Z" fill="white"/>
</svg>
