<svg width="24" height="24" viewBox="0 0 24 24" fill="none" xmlns="http://www.w3.org/2000/svg">
<path fill-rule="evenodd" clip-rule="evenodd" d="M3 5C3 3.89543 3.89543 3 5 3H11C12.1046 3 13 3.89543 13 5V8.00325L13.1634 7.85646C13.9236 7.1735 15.0764 7.1735 15.8366 7.85646L20.3366 11.8992C20.7588 12.2786 21 12.8194 21 13.387V18.9999H22C22.5523 18.9999 23 19.4477 23 19.9999C23 20.5522 22.5523 20.9999 22 20.9999L5.00001 21C4.99517 21 4.99033 21 4.9855 20.9999H2C1.44772 20.9999 1 20.5522 1 19.9999C1 19.4477 1.44772 18.9999 2 18.9999H3V5ZM10 18.9999H19V13.387L14.5 9.34424L12.6712 10.9872C12.6691 10.9891 12.667 10.991 12.6649 10.9929L10 13.387V18.9999ZM11 9.80004V5H5V18.9999H8V13.387C8 12.8194 8.24117 12.2786 8.66339 11.8992L11 9.80004Z" fill="white"/>
</svg>
