<svg width="24" height="24" viewBox="0 0 24 24" fill="none" xmlns="http://www.w3.org/2000/svg">
<path fill-rule="evenodd" clip-rule="evenodd" d="M15.9709 4.5985C17.0318 4.71293 18.1357 4.50155 19.384 3.52546C19.6853 3.28991 20.0945 3.24678 20.4382 3.41435C20.7819 3.58191 21 3.93083 21 4.31323V15.6866C21 15.9943 20.8584 16.2849 20.616 16.4744C18.9552 17.773 17.3318 18.1303 15.7564 17.9604C14.2804 17.8012 12.8849 17.1775 11.6593 16.6297C11.6368 16.6197 11.6144 16.6096 11.5921 16.5997C10.2883 16.0171 9.1624 15.5236 8.02913 15.4014C7.07826 15.2988 6.09291 15.458 5 16.1948V20.9999C5 21.5522 4.55228 21.9999 4 21.9999C3.44772 21.9999 3 21.5522 3 20.9999V4.31323C3 4.00554 3.14164 3.71499 3.38403 3.52546C5.0448 2.22687 6.66819 1.86957 8.24359 2.03948C9.71962 2.19867 11.1151 2.82238 12.3407 3.37016C12.3632 3.38021 12.3856 3.39023 12.4079 3.40022C13.7117 3.98276 14.8376 4.47628 15.9709 4.5985ZM5 13.9128C6.10079 13.4231 7.18306 13.2985 8.24359 13.4129C9.71962 13.5721 11.1151 14.1958 12.3407 14.7436C12.3632 14.7536 12.3856 14.7636 12.4079 14.7736C13.7117 15.3562 14.8376 15.8497 15.9709 15.9719C16.9217 16.0745 17.9071 15.9153 19 15.1785V6.08705C17.8992 6.57682 16.8169 6.70135 15.7564 6.58697C14.2804 6.42778 12.8849 5.80407 11.6593 5.2563C11.6368 5.24625 11.6144 5.23623 11.5921 5.22623C10.2883 4.64369 9.1624 4.15018 8.02913 4.02795C7.07826 3.9254 6.09291 4.08455 5 4.82136V13.9128Z" fill="white"/>
</svg>
