<svg width="24" height="24" viewBox="0 0 24 24" fill="none" xmlns="http://www.w3.org/2000/svg">
<path fill-rule="evenodd" clip-rule="evenodd" d="M4.06189 11H19.9381C19.446 7.05369 16.0796 4 12 4C7.92038 4 4.55399 7.05369 4.06189 11ZM19.9381 13H4.06189C4.55399 16.9463 7.92038 20 12 20C16.0796 20 19.446 16.9463 19.9381 13ZM2 12C2 6.47715 6.47715 2 12 2C17.5228 2 22 6.47715 22 12C22 17.5228 17.5228 22 12 22C6.47715 22 2 17.5228 2 12Z" fill="white"/>
<path fill-rule="evenodd" clip-rule="evenodd" d="M10.8274 5.95227C10.3268 7.45402 10 9.59229 10 12C10 14.4077 10.3268 16.546 10.8274 18.0477C11.0794 18.8038 11.3575 19.3436 11.6177 19.6738C11.7455 19.8359 11.8494 19.9225 11.9186 19.9649C11.9515 19.9852 11.9736 19.9935 11.9847 19.9969C11.9948 20 11.999 20 11.9999 20H12C12.0007 20 12.0049 20.0001 12.0153 19.9969C12.0264 19.9935 12.0485 19.9852 12.0814 19.9649C12.1506 19.9225 12.2545 19.8359 12.3823 19.6738C12.6425 19.3436 12.9206 18.8038 13.1726 18.0477C13.6732 16.546 14 14.4077 14 12C14 9.59229 13.6732 7.45402 13.1726 5.95227C12.9206 5.19616 12.6425 4.65642 12.3823 4.32624C12.2545 4.16408 12.1506 4.07752 12.0814 4.03507C12.0485 4.01483 12.0264 4.00645 12.0153 4.00305C12.0052 3.99998 12.001 4 12.0001 4L12 4L11.9999 4C11.999 4 11.9948 3.99998 11.9847 4.00305C11.9736 4.00645 11.9515 4.01483 11.9186 4.03507C11.8494 4.07752 11.7455 4.16408 11.6177 4.32624C11.3575 4.65642 11.0794 5.19616 10.8274 5.95227ZM10.0469 3.08829C10.4956 2.51889 11.1481 2 12 2C12.8519 2 13.5044 2.51889 13.9531 3.08829C14.4108 3.66896 14.7791 4.44724 15.07 5.31981C15.6552 7.07541 16 9.43715 16 12C16 14.5629 15.6552 16.9246 15.07 18.6802C14.7791 19.5528 14.4108 20.331 13.9531 20.9117C13.5044 21.4811 12.8519 22 12 22C11.1481 22 10.4956 21.4811 10.0469 20.9117C9.58923 20.331 9.22085 19.5528 8.93 18.6802C8.3448 16.9246 8 14.5629 8 12C8 9.43715 8.3448 7.07541 8.93 5.31981C9.22085 4.44724 9.58923 3.66896 10.0469 3.08829Z" fill="white"/>
</svg>
