<svg width="24" height="24" viewBox="0 0 24 24" fill="none" xmlns="http://www.w3.org/2000/svg">
<path fill-rule="evenodd" clip-rule="evenodd" d="M10.683 2.49729C11.437 1.83749 12.563 1.83749 13.317 2.49729L20.317 8.62229C20.751 9.00207 21 9.55072 21 10.1274V18.9999C21 20.1045 20.1046 20.9999 19 20.9999H5C3.89543 20.9999 3 20.1045 3 18.9999V10.1274C3 9.55072 3.24896 9.00206 3.68299 8.62229L10.683 2.49729ZM12 4.00244L5 10.1274V18.9999H19V10.1274L12 4.00244ZM14.7071 10.2929C15.0976 10.6834 15.0976 11.3166 14.7071 11.7071L13.4142 13L14.7071 14.2929C15.0976 14.6834 15.0976 15.3166 14.7071 15.7071C14.3166 16.0976 13.6834 16.0976 13.2929 15.7071L12 14.4142L10.7071 15.7071C10.3166 16.0976 9.68345 16.0976 9.29293 15.7071C8.9024 15.3165 8.9024 14.6834 9.29293 14.2929L10.5858 13L9.29293 11.7071C8.9024 11.3166 8.9024 10.6834 9.29293 10.2929C9.68345 9.9024 10.3166 9.9024 10.7071 10.2929L12 11.5858L13.2929 10.2929C13.6834 9.90237 14.3166 9.90237 14.7071 10.2929Z" fill="white"/>
</svg>
