<svg width="24" height="24" viewBox="0 0 24 24" fill="none" xmlns="http://www.w3.org/2000/svg">
<path fill-rule="evenodd" clip-rule="evenodd" d="M10.683 2.49729C11.437 1.83749 12.563 1.83749 13.317 2.49729L20.317 8.62229C20.751 9.00206 21 9.55072 21 10.1274V18.9999C21 18.9999 21 19 21 19H22C22.5523 19 23 19.4477 23 20C23 20.5523 22.5523 21 22 21H2C1.44772 21 1 20.5523 1 20C1 19.4477 1.44772 19 2 19H3C3 19 3 18.9999 3 18.9999V10.1274C3 9.55072 3.24896 9.00206 3.68299 8.62229L10.683 2.49729ZM11 19H13C13 19 13 18.9999 13 18.9999V14.9999H11V18.9999C11 18.9999 11 19 11 19ZM12 4.00244L5 10.1274V18.9999H9V14.9999C9 13.8953 9.89543 12.9999 11 12.9999H13C14.1046 12.9999 15 13.8953 15 14.9999V18.9999H19V10.1274L12 4.00244Z" fill="white"/>
</svg>
