<svg width="24" height="24" viewBox="0 0 24 24" fill="none" xmlns="http://www.w3.org/2000/svg">
<path fill-rule="evenodd" clip-rule="evenodd" d="M10.683 2.49729C11.437 1.83749 12.563 1.83749 13.317 2.49729L20.317 8.62229C20.751 9.00207 21 9.55072 21 10.1274V18.9999C21 20.1045 20.1046 20.9999 19 20.9999H5C3.89543 20.9999 3 20.1045 3 18.9999V10.1274C3 9.55072 3.24896 9.00206 3.68299 8.62229L10.683 2.49729ZM12 4.00244L5 10.1274V18.9999H19V10.1274L12 4.00244ZM15.7071 10.2929C16.0976 10.6834 16.0976 11.3166 15.7071 11.7071L11.7071 15.7071C11.3166 16.0976 10.6834 16.0976 10.2929 15.7071L8.29289 13.7071C7.90237 13.3166 7.90237 12.6834 8.29289 12.2929C8.68342 11.9024 9.31658 11.9024 9.70711 12.2929L11 13.5858L14.2929 10.2929C14.6834 9.90237 15.3166 9.90237 15.7071 10.2929Z" fill="white"/>
</svg>
