<svg width="24" height="24" viewBox="0 0 24 24" fill="none" xmlns="http://www.w3.org/2000/svg">
<path fill-rule="evenodd" clip-rule="evenodd" d="M10.683 2.49729C11.437 1.83749 12.563 1.83749 13.317 2.49729L20.317 8.62229C20.751 9.00207 21 9.55072 21 10.1274V18.9999C21 20.1045 20.1046 20.9999 19 20.9999H5C3.89543 20.9999 3 20.1045 3 18.9999V10.1274C3 9.55072 3.24896 9.00206 3.68299 8.62229L10.683 2.49729ZM12 4.00244L5 10.1274V18.9999H19V10.1274L12 4.00244ZM8 13C8 12.4477 8.44772 12 9 12H15C15.5523 12 16 12.4477 16 13C16 13.5523 15.5523 14 15 14H9C8.44772 14 8 13.5523 8 13Z" fill="white"/>
</svg>
