<svg width="24" height="24" viewBox="0 0 24 24" fill="none" xmlns="http://www.w3.org/2000/svg">
<path fill-rule="evenodd" clip-rule="evenodd" d="M10.683 2.49729C11.437 1.83749 12.563 1.83749 13.317 2.49729L20.317 8.62229C20.751 9.00207 21 9.55072 21 10.1274V18.9999C21 20.1045 20.1046 20.9999 19 20.9999H15C13.8954 20.9999 13 20.1045 13 18.9999V14.9999H11V18.9999C11 20.1045 10.1046 20.9999 9 20.9999H5C3.89543 20.9999 3 20.1045 3 18.9999V10.1274C3 9.55072 3.24896 9.00206 3.68299 8.62229L10.683 2.49729ZM12 4.00244L5 10.1274V18.9999H9V14.9999C9 13.8953 9.89543 12.9999 11 12.9999H13C14.1046 12.9999 15 13.8953 15 14.9999V18.9999H19V10.1274L12 4.00244Z" fill="white"/>
</svg>
