<svg width="24" height="24" viewBox="0 0 24 24" fill="none" xmlns="http://www.w3.org/2000/svg">
<path fill-rule="evenodd" clip-rule="evenodd" d="M10 7C10 6.44772 10.4477 6 11 6H19C19.5523 6 20 6.44772 20 7C20 7.55228 19.5523 8 19 8H11C10.4477 8 10 7.55228 10 7ZM4 12C4 11.4477 4.44772 11 5 11H19C19.5523 11 20 11.4477 20 12C20 12.5523 19.5523 13 19 13H5C4.44772 13 4 12.5523 4 12ZM4 17C4 16.4477 4.44772 16 5 16H13C13.5523 16 14 16.4477 14 17C14 17.5523 13.5523 18 13 18H5C4.44772 18 4 17.5523 4 17Z" fill="white"/>
</svg>
