<svg width="24" height="24" viewBox="0 0 24 24" fill="none" xmlns="http://www.w3.org/2000/svg">
<path fill-rule="evenodd" clip-rule="evenodd" d="M2 6C2 4.89543 2.89543 4 4 4H9C10.1947 4 11.2671 4.52376 12 5.35418C12.7329 4.52376 13.8053 4 15 4H20C21.1046 4 22 4.89543 22 6V16C22 17.1046 21.1046 18 20 18H15.6056C14.9368 18 14.3124 18.3342 13.9415 18.8906L12.8321 20.5547C12.6466 20.8329 12.3344 21 12 21C11.6656 21 11.3534 20.8329 11.1679 20.5547L10.0585 18.8906C9.68762 18.3342 9.06316 18 8.39445 18H4C2.89543 18 2 17.1046 2 16V6ZM11 8C11 6.89543 10.1046 6 9 6L4 6V16H8.39445C9.36215 16 10.2835 16.3499 11 16.9649V8ZM13 16.9649C13.7165 16.3499 14.6379 16 15.6056 16H20V6H15C13.8954 6 13 6.89543 13 8V16.9649Z" fill="white"/>
</svg>
