<svg width="24" height="24" viewBox="0 0 24 24" fill="none" xmlns="http://www.w3.org/2000/svg">
<path fill-rule="evenodd" clip-rule="evenodd" d="M3.00003 4C3.55231 4 4.00003 4.44772 4.00003 5V12.865L8.35984 9.23178C8.75717 8.90067 9.34141 8.92718 9.70713 9.29289L13.0456 12.6314L20.3415 6.24742C20.7572 5.88374 21.3889 5.92586 21.7526 6.3415C22.1163 6.75713 22.0742 7.38889 21.6585 7.75258L13.6585 14.7526C13.2623 15.0993 12.6652 15.0794 12.2929 14.7071L8.93866 11.3528L4.00003 15.4684V19H21C21.5523 19 22 19.4477 22 20C22 20.5523 21.5523 21 21 21H3.00003C2.44774 21 2.00003 20.5523 2.00003 20V15.0076C1.99999 15.0029 1.99999 14.9982 2.00003 14.9934V5C2.00003 4.44772 2.44774 4 3.00003 4Z" fill="white"/>
</svg>
