<svg width="24" height="24" viewBox="0 0 24 24" fill="none" xmlns="http://www.w3.org/2000/svg">
<path fill-rule="evenodd" clip-rule="evenodd" d="M3.29289 2.29289C3.48043 2.10536 3.73478 2 4 2L12 2C13.1046 2 14 2.89543 14 4V8H19C20.1046 8 21 8.89543 21 10V14C21 15.1046 20.1046 16 19 16H17V20C17 21.1046 16.1046 22 15 22H4C3.44772 22 3 21.5523 3 21L3 3C3 2.73478 3.10536 2.48043 3.29289 2.29289ZM15 16H5V20H15V16ZM5 14H19V10H13.001C13.0007 10 13.0013 10 13.001 10H5V14ZM5 8L12 8V4L5 4L5 8Z" fill="white"/>
</svg>
