<svg width="24" height="24" viewBox="0 0 24 24" fill="none" xmlns="http://www.w3.org/2000/svg">
<path fill-rule="evenodd" clip-rule="evenodd" d="M23.2635 5.63615C23.654 6.02668 23.654 6.65984 23.2635 7.05037L12.6569 17.657C12.4693 17.8445 12.215 17.9499 11.9497 17.9499C11.6845 17.9499 11.4302 17.8445 11.2426 17.657L6.29289 12.7072C5.90237 12.3167 5.90237 11.6835 6.29289 11.293C6.68342 10.9025 7.31658 10.9025 7.70711 11.293L11.9497 15.5357L21.8492 5.63615C22.2398 5.24563 22.8729 5.24563 23.2635 5.63615ZM18.3137 5.68645C18.7043 6.07697 18.7043 6.71014 18.3137 7.10066L13.0104 12.404C12.6199 12.7945 11.9868 12.7945 11.5962 12.404C11.2057 12.0134 11.2057 11.3803 11.5962 10.9897L16.8995 5.68645C17.2901 5.29592 17.9232 5.29592 18.3137 5.68645ZM1.34319 11.3433C1.73371 10.9528 2.36688 10.9528 2.7574 11.3433L7.70715 16.293C8.09767 16.6836 8.09767 17.3167 7.70715 17.7073C7.31662 18.0978 6.68346 18.0978 6.29293 17.7073L1.34319 12.7575C0.952662 12.367 0.952662 11.7338 1.34319 11.3433Z" fill="white"/>
</svg>
