<svg width="24" height="24" viewBox="0 0 24 24" fill="none" xmlns="http://www.w3.org/2000/svg">
<path fill-rule="evenodd" clip-rule="evenodd" d="M3 5C3 3.89543 3.89543 3 5 3H19C20.1046 3 21 3.89543 21 5V19C21 20.1046 20.1046 21 19 21H5C3.89543 21 3 20.1046 3 19V5ZM19 5H5V19H19V5ZM16.6402 8.23178C17.0645 8.58534 17.1218 9.21591 16.7682 9.64018L11.7682 15.6402C11.5884 15.856 11.326 15.9862 11.0453 15.999C10.7646 16.0117 10.4916 15.9058 10.2929 15.7071L7.29289 12.7071C6.90237 12.3166 6.90237 11.6834 7.29289 11.2929C7.68342 10.9024 8.31658 10.9024 8.70711 11.2929L10.9328 13.5186L15.2318 8.35982C15.5853 7.93554 16.2159 7.87821 16.6402 8.23178Z" fill="white"/>
</svg>
