<svg width="24" height="24" viewBox="0 0 24 24" fill="none" xmlns="http://www.w3.org/2000/svg">
<path fill-rule="evenodd" clip-rule="evenodd" d="M2 6C2 4.89543 2.89543 4 4 4H20C21.1046 4 22 4.89543 22 6V18C22 19.1046 21.1046 20 20 20H4C2.89543 20 2 19.1046 2 18V6ZM20 6L4 6V18L20 18V6ZM11.5 13C11.2239 13 11 13.2239 11 13.5C11 13.7761 11.2239 14 11.5 14C12.0523 14 12.5 14.4477 12.5 15C12.5 15.5523 12.0523 16 11.5 16C10.1193 16 9 14.8807 9 13.5C9 12.1193 10.1193 11 11.5 11C12.0523 11 12.5 11.4477 12.5 12C12.5 12.5523 12.0523 13 11.5 13ZM15.5 13C15.2239 13 15 13.2239 15 13.5C15 13.7761 15.2239 14 15.5 14C15.7761 14 16 13.7761 16 13.5C16 13.2239 15.7761 13 15.5 13ZM13 13.5C13 12.1193 14.1193 11 15.5 11C16.8807 11 18 12.1193 18 13.5C18 14.8807 16.8807 16 15.5 16C14.1193 16 13 14.8807 13 13.5Z" fill="white"/>
</svg>
