<svg width="24" height="24" viewBox="0 0 24 24" fill="none" xmlns="http://www.w3.org/2000/svg">
<path fill-rule="evenodd" clip-rule="evenodd" d="M3 5C3 3.89543 3.89543 3 5 3H19C20.1046 3 21 3.89543 21 5V19C21 20.1046 20.1046 21 19 21H5C3.89543 21 3 20.1046 3 19V17C3 16.4477 3.44772 16 4 16C4.55228 16 5 16.4477 5 17V19H19V5H5V7C5 7.55228 4.55228 8 4 8C3.44772 8 3 7.55228 3 7V5ZM11.2929 8.29289C11.6834 7.90237 12.3166 7.90237 12.7071 8.29289L15.7071 11.2929C15.8946 11.4804 16 11.7348 16 12C16 12.2652 15.8946 12.5196 15.7071 12.7071L12.7071 15.7071C12.3166 16.0976 11.6834 16.0976 11.2929 15.7071C10.9024 15.3166 10.9024 14.6834 11.2929 14.2929L12.5858 13L4 13C3.44772 13 3 12.5523 3 12C3 11.4477 3.44772 11 4 11L12.5858 11L11.2929 9.70711C10.9024 9.31658 10.9024 8.68342 11.2929 8.29289Z" fill="white"/>
</svg>
