<svg width="24" height="24" viewBox="0 0 24 24" fill="none" xmlns="http://www.w3.org/2000/svg">
<path fill-rule="evenodd" clip-rule="evenodd" d="M4.29289 0.292893C4.68342 -0.0976311 5.31658 -0.0976311 5.70711 0.292893L19.7071 14.2929C20.0976 14.6834 20.0976 15.3166 19.7071 15.7071C19.3166 16.0976 18.6834 16.0976 18.2929 15.7071L15.5 12.9142L15 13.4142V18.382C15 19.1395 14.572 19.832 13.8944 20.1708L11.8944 21.1708C10.5646 21.8357 9 20.8687 9 19.382V13.4142L3.58579 8C3.21071 7.62493 3 7.11622 3 6.58579V5C3 3.89543 3.89543 3 5 3H5.58579L4.29289 1.70711C3.90237 1.31658 3.90237 0.683417 4.29289 0.292893ZM7.58244 4.99665C7.55525 4.99887 7.52776 5 7.5 5H5V6.58579L10.4142 12C10.7893 12.3751 11 12.8838 11 13.4142V19.382L13 18.382V13.4142C13 12.8838 13.2107 12.3751 13.5858 12L14.0858 11.5L7.58244 4.99665ZM12 4C12 3.44772 12.4477 3 13 3H19C20.1046 3 21 3.89543 21 5V6.58579C21 7.11622 20.7893 7.62493 20.4142 8L18.7071 9.70711C18.3166 10.0976 17.6834 10.0976 17.2929 9.70711C16.9024 9.31658 16.9024 8.68342 17.2929 8.29289L19 6.58579V5H13C12.4477 5 12 4.55228 12 4Z" fill="white"/>
</svg>
