<svg width="24" height="24" viewBox="0 0 24 24" fill="none" xmlns="http://www.w3.org/2000/svg">
<path fill-rule="evenodd" clip-rule="evenodd" d="M3 5C3 3.89543 3.89543 3 5 3H19C20.1046 3 21 3.89543 21 5V6.58579C21 7.11622 20.7893 7.62493 20.4142 8L15 13.4142L15 18.382C15 19.1395 14.572 19.832 13.8944 20.1708L11.8944 21.1708C10.5646 21.8357 9 20.8687 9 19.382V13.4142L3.58579 8L4.29289 7.29289L3.58579 8C3.21071 7.62493 3 7.11622 3 6.58579V5ZM19 5H5V6.58579L10.4142 12C10.7893 12.3751 11 12.8838 11 13.4142V19.382L13 18.382V13.4142C13 12.8838 13.2107 12.3751 13.5858 12L19 6.58579V5Z" fill="white"/>
</svg>
