<svg width="24" height="24" viewBox="0 0 24 24" fill="none" xmlns="http://www.w3.org/2000/svg">
<path fill-rule="evenodd" clip-rule="evenodd" d="M7.10005 7H5.84715C4.86948 7 4.0351 7.70682 3.87437 8.6712L2.2077 18.6712C2.00452 19.8903 2.94461 21 4.18049 21H19.8196C21.0554 21 21.9955 19.8903 21.7924 18.6712L20.1257 8.6712C19.965 7.70683 19.1306 7 18.1529 7H16.9C16.4367 4.71776 14.419 3 12 3C9.58107 3 7.56332 4.71776 7.10005 7ZM9.17073 7H14.8293C14.4175 5.83481 13.3062 5 12 5C10.6938 5 9.58257 5.83481 9.17073 7ZM5.84715 9L4.18049 19H19.8196L18.1529 9L5.84715 9Z" fill="white"/>
</svg>
