<svg width="24" height="24" viewBox="0 0 24 24" fill="none" xmlns="http://www.w3.org/2000/svg">
<path fill-rule="evenodd" clip-rule="evenodd" d="M12.3591 5.95034C14.2571 3.57787 17.7959 3.38187 19.9442 5.53023C21.8683 7.45432 21.942 10.5504 20.1116 12.5638L12.7398 20.6728C12.5503 20.8813 12.2817 21.0001 11.9999 21.0001C11.7182 21.0001 11.4495 20.8813 11.26 20.6728L3.8882 12.5638C2.0578 10.5504 2.13148 7.45433 4.05557 5.53023C6.20393 3.38187 9.74274 3.57787 11.6407 5.95034L11.9999 6.39933L12.3591 5.95034ZM18.53 6.94445C17.2246 5.63897 15.0742 5.75807 13.9208 7.19973L12.7808 8.6248C12.591 8.86202 12.3037 9.00011 11.9999 9.00011C11.6961 9.00011 11.4088 8.86202 11.219 8.6248L10.079 7.19973C8.92565 5.75807 6.77526 5.63897 5.46978 6.94445C4.30059 8.11364 4.25582 9.99501 5.36808 11.2185L11.9999 18.5135L18.6317 11.2185C19.744 9.99501 19.6992 8.11364 18.53 6.94445Z" fill="white"/>
</svg>
