<svg width="24" height="24" viewBox="0 0 24 24" fill="none" xmlns="http://www.w3.org/2000/svg">
<path fill-rule="evenodd" clip-rule="evenodd" d="M12 5.22795C10.627 3.52598 8.53793 2.77807 6.60702 3.05701C5.38263 3.23389 4.21629 3.82551 3.35895 4.84725C2.49888 5.87225 2 7.26912 2 8.97231C2 12.4456 4.56031 15.4616 6.83471 17.4884C8.00373 18.5301 9.16813 19.3728 10.0381 19.9542C10.474 20.2456 10.8385 20.4729 11.0958 20.6286C11.2246 20.7064 11.3267 20.7664 11.3977 20.8075C11.4332 20.8281 11.461 20.844 11.4805 20.855L11.5034 20.868L11.51 20.8717L11.5121 20.8729C11.5124 20.8731 11.5134 20.8736 12 20L11.5134 20.8736C11.8159 21.0421 12.1841 21.0421 12.4866 20.8736L12 20C12.4866 20.8736 12.4863 20.8738 12.4866 20.8736L12.49 20.8717L12.4966 20.868L12.5195 20.855C12.539 20.844 12.5668 20.8281 12.6023 20.8075C12.6733 20.7664 12.7754 20.7064 12.9042 20.6286C13.1615 20.4729 13.526 20.2456 13.9619 19.9542C14.8319 19.3728 15.9963 18.5301 17.1653 17.4884C19.4397 15.4616 22 12.4456 22 8.97231C22 7.26912 21.5011 5.87225 20.641 4.84725C19.7837 3.82551 18.6174 3.23389 17.393 3.05701C15.4621 2.77807 13.373 3.52598 12 5.22795ZM12 18.8374C11.7769 18.7004 11.4868 18.5169 11.1494 18.2914C10.3319 17.745 9.24627 16.9585 8.1653 15.9952C5.93969 14.0119 4 11.5141 4 8.97231C4 7.66795 4.37612 6.74649 4.89105 6.13283C5.40871 5.5159 6.11737 5.14851 6.89298 5.03647C8.45319 4.81107 10.2609 5.62661 11.0797 7.5533C11.2365 7.92248 11.5989 8.16218 12 8.16218C12.4011 8.16218 12.7635 7.92248 12.9203 7.5533C13.7391 5.62661 15.5468 4.81107 17.107 5.03647C17.8826 5.14851 18.5913 5.5159 19.109 6.13283C19.6239 6.74649 20 7.66795 20 8.97231C20 11.5141 18.0603 14.0119 15.8347 15.9952C14.7537 16.9585 13.6681 17.745 12.8506 18.2914C12.5132 18.5169 12.2231 18.7004 12 18.8374Z" fill="white"/>
</svg>
