<svg width="24" height="24" viewBox="0 0 24 24" fill="none" xmlns="http://www.w3.org/2000/svg">
<path fill-rule="evenodd" clip-rule="evenodd" d="M8 3C8.55228 3 9 3.44772 9 4V6C9 6.55228 8.55228 7 8 7C7.44772 7 7 6.55228 7 6V4C7 3.44772 7.44772 3 8 3ZM17.6569 6.34303C16.4854 5.17146 14.5859 5.17146 13.4143 6.34303L12.0001 7.75725C11.6096 8.14777 10.9764 8.14777 10.5859 7.75725C10.1953 7.36672 10.1953 6.73356 10.5859 6.34304L12.0001 4.92882C13.9527 2.9762 17.1185 2.9762 19.0711 4.92882C21.0238 6.88144 21.0238 10.0473 19.0711 11.9999L17.6569 13.4141C17.2664 13.8046 16.6332 13.8046 16.2427 13.4141C15.8522 13.0236 15.8522 12.3904 16.2427 11.9999L17.6569 10.5857C18.8285 9.4141 18.8285 7.51461 17.6569 6.34303ZM3 8C3 7.44772 3.44772 7 4 7H6C6.55228 7 7 7.44772 7 8C7 8.55228 6.55228 9 6 9H4C3.44772 9 3 8.55228 3 8ZM7.75725 10.5859C8.14777 10.9764 8.14777 11.6096 7.75725 12.0001L6.34303 13.4143C5.17146 14.5859 5.17146 16.4854 6.34303 17.6569C7.51461 18.8285 9.4141 18.8285 10.5857 17.6569L11.9999 16.2427C12.3904 15.8522 13.0236 15.8522 13.4141 16.2427C13.8046 16.6332 13.8046 17.2664 13.4141 17.6569L11.9999 19.0711C10.0473 21.0238 6.88144 21.0238 4.92882 19.0711C2.9762 17.1185 2.9762 13.9527 4.92882 12.0001L6.34304 10.5859C6.73356 10.1953 7.36672 10.1953 7.75725 10.5859ZM17 16C17 15.4477 17.4477 15 18 15H20C20.5523 15 21 15.4477 21 16C21 16.5523 20.5523 17 20 17H18C17.4477 17 17 16.5523 17 16ZM16 17C16.5523 17 17 17.4477 17 18V20C17 20.5523 16.5523 21 16 21C15.4477 21 15 20.5523 15 20V18C15 17.4477 15.4477 17 16 17Z" fill="white"/>
</svg>
