<svg width="24" height="24" viewBox="0 0 24 24" fill="none" xmlns="http://www.w3.org/2000/svg">
<path fill-rule="evenodd" clip-rule="evenodd" d="M17.6569 6.34304C16.4854 5.17146 14.5859 5.17146 13.4143 6.34304L12.0001 7.75725C11.6096 8.14777 10.9764 8.14777 10.5859 7.75725C10.1953 7.36672 10.1953 6.73356 10.5859 6.34304L12.0001 4.92882L12.7072 5.63593L12.0001 4.92882C13.9527 2.9762 17.1185 2.9762 19.0711 4.92882C21.0238 6.88144 21.0238 10.0473 19.0711 11.9999L17.6569 13.4141C17.2664 13.8046 16.6332 13.8046 16.2427 13.4141C15.8522 13.0236 15.8522 12.3904 16.2427 11.9999L17.6569 10.5857C18.8285 9.4141 18.8285 7.51461 17.6569 6.34304ZM15.5358 8.46477C15.9264 8.85529 15.9264 9.48846 15.5358 9.87898L9.87898 15.5358C9.48846 15.9264 8.85529 15.9264 8.46477 15.5358C8.07424 15.1453 8.07424 14.5121 8.46477 14.1216L14.1216 8.46477C14.5121 8.07424 15.1453 8.07424 15.5358 8.46477ZM7.75725 10.5859C8.14777 10.9764 8.14777 11.6096 7.75725 12.0001L6.34303 13.4143C5.17146 14.5859 5.17146 16.4854 6.34304 17.6569C7.51461 18.8285 9.4141 18.8285 10.5857 17.6569L11.9999 16.2427C12.3904 15.8522 13.0236 15.8522 13.4141 16.2427C13.8046 16.6332 13.8046 17.2664 13.4141 17.6569L11.9999 19.0711C10.0473 21.0238 6.88144 21.0238 4.92882 19.0711C2.9762 17.1185 2.9762 13.9527 4.92882 12.0001L5.63593 12.7072L4.92882 12.0001L6.34304 10.5859C6.73356 10.1953 7.36672 10.1953 7.75725 10.5859Z" fill="white"/>
</svg>
