<svg width="24" height="24" viewBox="0 0 24 24" fill="none" xmlns="http://www.w3.org/2000/svg">
<path fill-rule="evenodd" clip-rule="evenodd" d="M11.9037 4C10.9188 4 10 4.88027 10 6.12V8L19 8C20.1046 8 21 8.89543 21 10L21 20C21 21.1046 20.1046 22 19 22H5C3.89543 22 3 21.1046 3 20L3 10C3 8.89543 3.89543 8 5 8L8 8V6.12C8 3.91347 9.68128 2 11.9037 2C13.0367 2 14.0446 2.50902 14.7462 3.29538C15.1139 3.70748 15.0779 4.33962 14.6658 4.70731C14.2537 5.07499 13.6215 5.03898 13.2538 4.62688C12.8984 4.22855 12.4186 4 11.9037 4ZM5 10L5 20H19L19 10L5 10Z" fill="white"/>
</svg>
