<svg width="24" height="24" viewBox="0 0 24 24" fill="none" xmlns="http://www.w3.org/2000/svg">
<path fill-rule="evenodd" clip-rule="evenodd" d="M12 4C10.8954 4 10 4.89543 10 6L10 8L14 8V6C14 4.89543 13.1046 4 12 4ZM8 6C8 3.79086 9.79086 2 12 2C14.2091 2 16 3.79086 16 6V8L19 8C20.1046 8 21 8.89543 21 10L21 20C21 21.1046 20.1046 22 19 22L5 22C3.89543 22 3 21.1046 3 20L3 10C3 8.89543 3.89543 8 5 8L8 8L8 6ZM9.22926 10L5 10L5 20L19 20L19 10L14.7704 10C14.77 10 14.7696 10 14.7692 10L9.23077 10C9.23027 10 9.22976 10 9.22926 10Z" fill="white"/>
</svg>
