<svg width="24" height="24" viewBox="0 0 24 24" fill="none" xmlns="http://www.w3.org/2000/svg">
<path fill-rule="evenodd" clip-rule="evenodd" d="M10.5856 1.3934C11.3666 0.612355 12.633 0.612355 13.414 1.3934L16.2425 4.22183C17.0235 5.00288 17.0235 6.26921 16.2425 7.05026L13.414 9.87868C12.633 10.6597 11.3666 10.6597 10.5856 9.87868L7.75717 7.05026C6.97612 6.26921 6.97612 5.00288 7.75717 4.22183L10.5856 1.3934ZM14.8282 5.63604L11.9998 2.80762L9.17139 5.63604L11.9998 8.46447L14.8282 5.63604ZM4.22183 7.75742C5.00288 6.97637 6.26921 6.97637 7.05026 7.75742L9.87868 10.5858C10.6597 11.3669 10.6597 12.6332 9.87868 13.4143L7.05026 16.2427C6.26921 17.0237 5.00288 17.0237 4.22183 16.2427L1.3934 13.4143C0.612355 12.6332 0.612355 11.3669 1.3934 10.5858L4.22183 7.75742ZM16.9494 7.75742C17.7304 6.97637 18.9967 6.97637 19.7778 7.75742L22.6062 10.5858C23.3873 11.3669 23.3873 12.6332 22.6062 13.4143L19.7778 16.2427C18.9967 17.0237 17.7304 17.0237 16.9494 16.2427L14.1209 13.4143C13.3399 12.6332 13.3399 11.3669 14.1209 10.5858L16.9494 7.75742ZM8.46447 12.0001L5.63604 9.17163L2.80762 12.0001L5.63604 14.8285L8.46447 12.0001ZM21.192 12.0001L18.3636 9.17163L15.5352 12.0001L18.3636 14.8285L21.192 12.0001ZM7.75717 19.7783C6.97613 18.9972 6.97612 17.7309 7.75717 16.9499L10.5856 14.1214C11.3666 13.3404 12.633 13.3404 13.414 14.1214L16.2425 16.9499C17.0235 17.7309 17.0235 18.9972 16.2425 19.7783L13.414 22.6067C12.633 23.3878 11.3666 23.3878 10.5856 22.6067L7.75717 19.7783ZM11.9998 15.5356L9.17139 18.3641L11.9998 21.1925L14.8282 18.3641L11.9998 15.5356Z" fill="white"/>
</svg>
