<svg width="24" height="24" viewBox="0 0 24 24" fill="none" xmlns="http://www.w3.org/2000/svg">
<path fill-rule="evenodd" clip-rule="evenodd" d="M2 7C2 6.44772 2.44772 6 3 6H8.43381C9.13633 6 9.78735 6.3686 10.1488 6.97101L15.5662 16L21 16C21.5523 16 22 16.4477 22 17C22 17.5523 21.5523 18 21 18H15.5662C14.8637 18 14.2127 17.6314 13.8512 17.029L8.43381 8H3C2.44772 8 2 7.55228 2 7ZM14 7C14 6.44772 14.4477 6 15 6H21C21.5523 6 22 6.44772 22 7C22 7.55228 21.5523 8 21 8H15C14.4477 8 14 7.55228 14 7Z" fill="white"/>
</svg>
