<svg width="24" height="24" viewBox="0 0 24 24" fill="none" xmlns="http://www.w3.org/2000/svg">
<path fill-rule="evenodd" clip-rule="evenodd" d="M11.0001 1.42261C11.6189 1.06535 12.3813 1.06535 13.0001 1.42261L12.5001 2.28864L13.0001 1.42261L20.6604 5.84526C21.2792 6.20253 21.6604 6.86278 21.6604 7.57731V16.4226C21.6604 17.1371 21.2792 17.7974 20.6604 18.1547L13.0001 22.5773C12.3813 22.9346 11.6189 22.9346 11.0001 22.5773L3.33984 18.1547C2.72104 17.7974 2.33984 17.1371 2.33984 16.4226V7.57731C2.33984 6.86278 2.72104 6.20253 3.33984 5.84526L11.0001 1.42261ZM19.6604 7.57731L12.0001 3.15466L4.33984 7.57731V16.4226L12.0001 20.8453L19.6604 16.4226V7.57731ZM12 9.99996C10.8954 9.99996 10 10.8954 10 12C10 13.1045 10.8954 14 12 14C13.1046 14 14 13.1045 14 12C14 10.8954 13.1046 9.99996 12 9.99996ZM8 12C8 9.79082 9.79086 7.99996 12 7.99996C14.2091 7.99996 16 9.79082 16 12C16 14.2091 14.2091 16 12 16C9.79086 16 8 14.2091 8 12Z" fill="white"/>
</svg>
