<svg width="24" height="24" viewBox="0 0 24 24" fill="none" xmlns="http://www.w3.org/2000/svg">
<path fill-rule="evenodd" clip-rule="evenodd" d="M7.86075 1.68136C8.49071 1.31574 9.26964 1.3215 9.89412 1.69641L11.4202 2.61258C11.5757 2.70592 11.7536 2.75522 11.9349 2.75522H12.0666C12.2475 2.75522 12.4251 2.70613 12.5803 2.61318L13.094 3.47113L12.5803 2.61318L14.0994 1.70359C14.7217 1.33098 15.497 1.32449 16.1254 1.68663L15.6261 2.55307L16.1254 1.68663L18.8621 3.26364C19.4921 3.6267 19.8755 4.3031 19.8632 5.03016L19.8333 6.80898C19.8302 6.99028 19.8765 7.16899 19.9672 7.32599L19.1013 7.82619L19.9672 7.326L20.033 7.43985C20.1235 7.59646 20.2547 7.72561 20.4128 7.81353L19.9266 8.68741L20.4128 7.81354L21.9639 8.67644C22.5969 9.02856 22.99 9.69536 22.9916 10.4197L22.9988 13.5715C23.0004 14.3002 22.6056 14.9721 21.9682 15.3254L20.4133 16.187C20.2546 16.275 20.1229 16.4044 20.0321 16.5615L19.9672 16.6738L19.1013 16.1737L19.9672 16.6739C19.8765 16.8309 19.8302 17.0096 19.8333 17.1909L19.8633 18.9718C19.8755 19.6966 19.4945 20.3713 18.8675 20.7352L16.1395 22.3185C15.5095 22.6841 14.7306 22.6783 14.1061 22.3034L12.5801 21.3873C12.4246 21.2939 12.2467 21.2446 12.0654 21.2446H11.9337C11.7527 21.2446 11.5752 21.2937 11.4199 21.3867L9.90085 22.2963C9.27855 22.6689 8.50328 22.6754 7.87484 22.3132L5.1382 20.7362C4.50813 20.3731 4.12478 19.6967 4.13706 18.9696L4.16699 17.1965C4.17003 17.0165 4.12443 16.839 4.03502 16.6828L3.96549 16.5613L4.83337 16.0646L3.96549 16.5613C3.87498 16.4032 3.74298 16.2728 3.58376 16.1842L2.03633 15.3234L2.52167 14.451L2.03633 15.3234C1.40339 14.9713 1.01027 14.3045 1.00863 13.5802L1.00147 10.4284C0.999815 9.69964 1.39464 9.0277 2.03203 8.67447L3.58692 7.8128L4.07164 8.68748L3.58692 7.8128C3.7456 7.72487 3.87738 7.59542 3.96812 7.43833L4.83403 7.93852L3.96812 7.43832L4.03301 7.326C4.1237 7.16899 4.17 6.99027 4.16695 6.80898L4.13699 5.02807C4.12479 4.30324 4.50578 3.62855 5.13276 3.26465L7.86075 1.68136ZM8.86469 3.41113L6.1367 4.99442L6.16667 6.77533C6.17582 7.31922 6.03692 7.85536 5.76484 8.32638L4.89892 7.82619L5.76483 8.32638L5.69995 8.43871C5.42771 8.90999 5.0324 9.29834 4.55635 9.56215L3.00146 10.4238L3.00862 13.5756L4.55605 14.4365C5.03372 14.7022 5.42971 15.0934 5.70126 15.5678L5.77078 15.6893C6.03903 16.1579 6.17582 16.6903 6.16671 17.2302L6.13677 19.0034L8.87341 20.5803L10.3925 19.6708C10.8582 19.3919 11.3908 19.2446 11.9337 19.2446H12.0654C12.6093 19.2446 13.1431 19.3925 13.6095 19.6725L15.1356 20.5887L17.8635 19.0054L17.8336 17.2245C17.8244 16.6806 17.9633 16.1445 18.2354 15.6735L18.3003 15.5611L19.1662 16.0613L18.3003 15.5611C18.5725 15.0898 18.9679 14.7015 19.4439 14.4377L20.9988 13.576L20.9916 10.4242L19.4405 9.56129C18.9663 9.29751 18.5726 8.91007 18.3012 8.44023L19.1671 7.94004L18.3012 8.44023L18.2354 8.32638C17.9633 7.85536 17.8244 7.31922 17.8336 6.77533L17.8635 4.99651L15.1268 3.41951L13.6078 4.32909C13.1421 4.60795 12.6094 4.75522 12.0666 4.75522H11.9349C11.3909 4.75522 10.8572 4.6073 10.3908 4.3273L8.86469 3.41113ZM12 9C10.3431 9 9 10.3431 9 12C9 13.6569 10.3431 15 12 15C13.6569 15 15 13.6569 15 12C15 10.3431 13.6569 9 12 9ZM7 12C7 9.23858 9.23858 7 12 7C14.7614 7 17 9.23858 17 12C17 14.7614 14.7614 17 12 17C9.23858 17 7 14.7614 7 12Z" fill="white"/>
</svg>
