<svg width="24" height="24" viewBox="0 0 24 24" fill="none" xmlns="http://www.w3.org/2000/svg">
<path fill-rule="evenodd" clip-rule="evenodd" d="M2 5C2 3.89543 2.89543 3 4 3H20C21.1046 3 22 3.89543 22 5V19C22 20.1046 21.1046 21 20 21H4C2.89543 21 2 20.1046 2 19V5ZM20 5H4V19H20V5ZM9 7C9.55228 7 10 7.44772 10 8C10 9.10457 10.8954 10 12 10C13.1046 10 14 9.10457 14 8C14 7.44772 14.4477 7 15 7C15.5523 7 16 7.44772 16 8C16 10.2091 14.2091 12 12 12C9.79086 12 8 10.2091 8 8C8 7.44772 8.44772 7 9 7Z" fill="white"/>
</svg>
