<svg width="24" height="24" viewBox="0 0 24 24" fill="none" xmlns="http://www.w3.org/2000/svg">
<path fill-rule="evenodd" clip-rule="evenodd" d="M7.10005 7H4.18049C2.94461 7 2.00452 8.10974 2.2077 9.3288L3.87437 19.3288C4.0351 20.2932 4.86948 21 5.84715 21H18.1529C19.1306 21 19.965 20.2932 20.1257 19.3288L21.7924 9.3288C21.9955 8.10974 21.0554 7 19.8196 7H16.9C16.4367 4.71776 14.419 3 12 3C9.58107 3 7.56332 4.71776 7.10005 7ZM9.17073 7H14.8293C14.4175 5.83481 13.3062 5 12 5C10.6938 5 9.58257 5.83481 9.17073 7ZM4.18049 9L5.84715 19H18.1529L19.8196 9H4.18049Z" fill="white"/>
</svg>
