<svg width="24" height="24" viewBox="0 0 24 24" fill="none" xmlns="http://www.w3.org/2000/svg">
<path fill-rule="evenodd" clip-rule="evenodd" d="M2 3C2 2.44772 2.44772 2 3 2H4.19158C5.13466 2 5.94959 2.6588 6.14719 3.58094L6.45127 5H19.6708C21.0016 5 21.9613 6.27559 21.5924 7.55432L19.8616 13.5543C19.6147 14.4105 18.8311 15 17.94 15H8.59413L8.80842 16H17C18.6569 16 20 17.3431 20 19C20 20.6569 18.6569 22 17 22C15.3431 22 14 20.6569 14 19C14 18.6494 14.0602 18.3128 14.1707 18H10.8293C10.9398 18.3128 11 18.6494 11 19C11 20.6569 9.65685 22 8 22C6.34315 22 5 20.6569 5 19C5 17.764 5.7475 16.7025 6.8151 16.2431L4.19158 4H3C2.44772 4 2 3.55228 2 3ZM17 18C16.4477 18 16 18.4477 16 19C16 19.5523 16.4477 20 17 20C17.5523 20 18 19.5523 18 19C18 18.4477 17.5523 18 17 18ZM8.16556 13H17.94L19.6708 7H6.87984L8.16556 13ZM8 18C7.44772 18 7 18.4477 7 19C7 19.5523 7.44772 20 8 20C8.55228 20 9 19.5523 9 19C9 18.4477 8.55228 18 8 18Z" fill="white"/>
</svg>
