<svg width="24" height="24" viewBox="0 0 24 24" fill="none" xmlns="http://www.w3.org/2000/svg">
<path fill-rule="evenodd" clip-rule="evenodd" d="M10.6377 2.56558C11.1738 1.40327 12.8257 1.40327 13.3618 2.56558L15.7769 7.80134L21.5027 8.48023C22.7737 8.63094 23.2842 10.202 22.3445 11.0711L18.1112 14.9858L19.235 20.6412C19.4844 21.8966 18.148 22.8676 17.031 22.2424L11.9997 19.4261L6.96845 22.2424C5.85153 22.8676 4.51509 21.8966 4.76454 20.6412L5.88825 14.9858L1.65503 11.0711L2.33398 10.3369L1.65503 11.0711C0.71528 10.202 1.22575 8.63094 2.49684 8.48023L8.22264 7.80134L10.6377 2.56558ZM11.9997 4.3876L9.92153 8.89318C9.70302 9.36689 9.2541 9.69306 8.73605 9.75448L3.80878 10.3387L7.45164 13.7075L6.81409 14.3969L7.45164 13.7075C7.83464 14.0617 8.00612 14.5894 7.90445 15.1011L6.93745 19.9677L11.2671 17.5442C11.7223 17.2894 12.2772 17.2894 12.7324 17.5442L17.062 19.9677L16.095 15.1011C15.9934 14.5894 16.1649 14.0617 16.5479 13.7075L20.1907 10.3387L15.2634 9.75448C14.7454 9.69306 14.2965 9.36689 14.078 8.89318L14.986 8.47434L14.078 8.89318L11.9997 4.3876Z" fill="white"/>
</svg>
