<svg width="24" height="24" viewBox="0 0 24 24" fill="none" xmlns="http://www.w3.org/2000/svg">
<path fill-rule="evenodd" clip-rule="evenodd" d="M11.6312 2.74919C12.2223 2.69545 12.8068 2.90705 13.2265 3.32676L20.6735 10.7737C21.4545 11.5548 21.4545 12.8211 20.6735 13.6022L13.6024 20.6732C12.8214 21.4543 11.555 21.4543 10.774 20.6732L3.32701 13.2263C2.9073 12.8065 2.6957 12.2221 2.74943 11.631L3.33869 5.14916C3.4261 4.18766 4.1879 3.42586 5.1494 3.33845L11.6312 2.74919ZM11.8123 4.74098L5.33048 5.33023L4.74122 11.812L12.1882 19.259L19.2593 12.188L11.8123 4.74098ZM7.59165 7.59165C8.3727 6.8106 9.63903 6.8106 10.4201 7.59165C11.2011 8.3727 11.2011 9.63903 10.4201 10.4201C9.63903 11.2011 8.3727 11.2011 7.59165 10.4201C6.8106 9.63903 6.8106 8.3727 7.59165 7.59165Z" fill="white"/>
</svg>
