<svg width="24" height="24" viewBox="0 0 24 24" fill="none" xmlns="http://www.w3.org/2000/svg">
<path fill-rule="evenodd" clip-rule="evenodd" d="M7 4C7 2.89543 7.89543 2 9 2H15C16.1046 2 17 2.89543 17 4V5H20C20.5523 5 21 5.44772 21 6C21 6.55228 20.5523 7 20 7H19V20C19 21.1046 18.1046 22 17 22H7C5.89543 22 5 21.1046 5 20V7H4C3.44772 7 3 6.55228 3 6C3 5.44772 3.44772 5 4 5H7V4ZM9 5H15V4H9V5ZM7 7V20H17V7H7ZM10 9C10.5523 9 11 9.44772 11 10V17C11 17.5523 10.5523 18 10 18C9.44772 18 9 17.5523 9 17V10C9 9.44772 9.44772 9 10 9ZM14 9C14.5523 9 15 9.44772 15 10V17C15 17.5523 14.5523 18 14 18C13.4477 18 13 17.5523 13 17V10C13 9.44772 13.4477 9 14 9Z" fill="white"/>
</svg>
