<svg width="24" height="24" viewBox="0 0 24 24" fill="none" xmlns="http://www.w3.org/2000/svg">
<path fill-rule="evenodd" clip-rule="evenodd" d="M13 7C13 6.44772 13.4477 6 14 6H20C20.5523 6 21 6.44772 21 7V13C21 13.5523 20.5523 14 20 14C19.4477 14 19 13.5523 19 13V9.44093L13.328 15.2016C13.14 15.3925 12.8833 15.5 12.6154 15.5C12.3475 15.5 12.0908 15.3925 11.9028 15.2016L9.53846 12.8003L4.71257 17.7016C4.32508 18.0951 3.69194 18.1001 3.2984 17.7126C2.90486 17.3251 2.89995 16.6919 3.28743 16.2984L8.82589 10.6734C9.01386 10.4825 9.27056 10.375 9.53846 10.375C9.80637 10.375 10.0631 10.4825 10.251 10.6734L12.6154 13.0747L17.612 8H14C13.4477 8 13 7.55228 13 7Z" fill="white"/>
</svg>
