<svg width="24" height="24" viewBox="0 0 24 24" fill="none" xmlns="http://www.w3.org/2000/svg">
<path fill-rule="evenodd" clip-rule="evenodd" d="M3.2984 6.28743C3.69194 5.89995 4.32508 5.90486 4.71257 6.2984L9.53846 11.1997L11.9028 8.7984C12.0908 8.6075 12.3475 8.5 12.6154 8.5C12.8833 8.5 13.14 8.6075 13.328 8.7984L19 14.5591V11C19 10.4477 19.4477 10 20 10C20.5523 10 21 10.4477 21 11V17C21 17.5523 20.5523 18 20 18H14C13.4477 18 13 17.5523 13 17C13 16.4477 13.4477 16 14 16H17.612L12.6154 10.9253L10.251 13.3266C10.0631 13.5175 9.80637 13.625 9.53846 13.625C9.27056 13.625 9.01386 13.5175 8.82589 13.3266L3.28743 7.7016C2.89995 7.30806 2.90486 6.67492 3.2984 6.28743Z" fill="white"/>
</svg>
