<svg width="24" height="24" viewBox="0 0 24 24" fill="none" xmlns="http://www.w3.org/2000/svg">
<path fill-rule="evenodd" clip-rule="evenodd" d="M2 6C2 4.89543 2.89543 4 4 4H20C21.1046 4 22 4.89543 22 6V16C22 17.1046 21.1046 18 20 18H18C17.4477 18 17 17.5523 17 17C17 16.4477 17.4477 16 18 16H20V6L4 6V16H6C6.55228 16 7 16.4477 7 17C7 17.5523 6.55228 18 6 18H4C2.89543 18 2 17.1046 2 16V6ZM12 14C12.3038 14 12.5911 14.1381 12.7809 14.3753L16.7809 19.3753C17.021 19.6755 17.0678 20.0867 16.9013 20.4332C16.7348 20.7797 16.3844 21 16 21H8C7.61559 21 7.26522 20.7797 7.0987 20.4332C6.93218 20.0867 6.979 19.6755 7.21913 19.3753L11.2191 14.3753C11.4089 14.1381 11.6962 14 12 14ZM10.0806 19H13.9194L12 16.6008L10.0806 19Z" fill="white"/>
</svg>
