<svg width="24" height="24" viewBox="0 0 24 24" fill="none" xmlns="http://www.w3.org/2000/svg">
<path fill-rule="evenodd" clip-rule="evenodd" d="M2 6C2 4.89543 2.89543 4 4 4H20C21.1046 4 22 4.89543 22 6V18C22 19.1046 21.1046 20 20 20H15C14.4477 20 14 19.5523 14 19C14 18.4477 14.4477 18 15 18H20V6H4V7.33333C4 7.88562 3.55228 8.33333 3 8.33333C2.44772 8.33333 2 7.88562 2 7.33333V6ZM2 11C2 10.4477 2.44772 10 3 10C7.97056 10 12 14.0294 12 19C12 19.5523 11.5523 20 11 20C10.4477 20 10 19.5523 10 19C10 15.134 6.86599 12 3 12C2.44772 12 2 11.5523 2 11ZM2 14C2 13.4477 2.44772 13 3 13C6.31371 13 9 15.6863 9 19C9 19.5523 8.55229 20 8 20C7.44772 20 7 19.5523 7 19C7 16.7909 5.20914 15 3 15C2.44772 15 2 14.5523 2 14ZM2 17C2 16.4477 2.44772 16 3 16C4.65685 16 6 17.3431 6 19C6 19.5523 5.55229 20 5 20C4.44772 20 4 19.5523 4 19C4 18.4477 3.55229 18 3 18C2.44772 18 2 17.5523 2 17Z" fill="white"/>
</svg>
