<svg width="24" height="24" viewBox="0 0 24 24" fill="none" xmlns="http://www.w3.org/2000/svg">
<path fill-rule="evenodd" clip-rule="evenodd" d="M4.06189 12H7C8.10457 12 9 12.8954 9 14V19C9 20.1046 8.10457 21 7 21H4C2.89543 21 2 20.1046 2 19V13C2 7.47715 6.47715 3 12 3C17.5228 3 22 7.47715 22 13V19C22 20.1046 21.1046 21 20 21H17C15.8954 21 15 20.1046 15 19V14C15 12.8954 15.8954 12 17 12H19.9381C19.446 8.05369 16.0796 5 12 5C7.92038 5 4.55399 8.05369 4.06189 12ZM20 14H17V19H20V14ZM4 14V19H7V14H4Z" fill="white"/>
</svg>
