<svg width="24" height="24" viewBox="0 0 24 24" fill="none" xmlns="http://www.w3.org/2000/svg">
<path fill-rule="evenodd" clip-rule="evenodd" d="M2.00002 4C2.00002 2.89543 2.89545 2 4.00002 2H20C21.1046 2 22 2.89543 22 4V17.9907C22.0001 17.9965 22.0001 18.0023 22 18.008V20C22 21.1046 21.1046 22 20 22H4.00002C2.89545 22 2.00002 21.1046 2.00002 20V17.0056C1.99999 17.0015 1.99999 16.9975 2.00002 16.9935V4ZM4.00002 17.3699V20H20V18.3508L16.9171 14.4971L15.4814 15.9328C14.6498 16.7644 13.2837 16.7024 12.5308 15.799L8.98926 11.5491L4.00002 17.3699ZM20 15.1492L18.4788 13.2477C17.7342 12.3169 16.3458 12.24 15.5029 13.0829L14.0672 14.5186L10.5257 10.2688C9.73333 9.31792 8.27625 9.30781 7.47075 10.2476L4.00002 14.2967V4L20 4V15.1492ZM13 8C13 6.89543 13.8954 6 15 6C16.1046 6 17 6.89543 17 8C17 9.10457 16.1046 10 15 10C13.8954 10 13 9.10457 13 8Z" fill="white"/>
</svg>
