<svg width="24" height="24" viewBox="0 0 24 24" fill="none" xmlns="http://www.w3.org/2000/svg">
<path fill-rule="evenodd" clip-rule="evenodd" d="M2.00002 5C2.00002 3.89543 2.89545 3 4.00002 3H20C21.1046 3 22 3.89543 22 5V17.9907C22.0001 17.9965 22.0001 18.0023 22 18.008V19C22 20.1046 21.1046 21 20 21H4.00002C2.89545 21 2.00002 20.1046 2.00002 19V17.0056C1.99999 17.0015 1.99999 16.9975 2.00002 16.9935V5ZM4.00002 17.3699V19H20V18.3508L16.9171 14.4971L15.4814 15.9328C14.6498 16.7644 13.2837 16.7024 12.5308 15.799L8.98926 11.5491L4.00002 17.3699ZM20 15.1492L18.4788 13.2477C17.7342 12.3169 16.3458 12.24 15.5029 13.0829L14.0672 14.5186L10.5257 10.2688C9.73333 9.31792 8.27625 9.30781 7.47075 10.2476L4.00002 14.2967V5H20V15.1492ZM13 9C13 7.89543 13.8954 7 15 7C16.1046 7 17 7.89543 17 9C17 10.1046 16.1046 11 15 11C13.8954 11 13 10.1046 13 9Z" fill="white"/>
</svg>
