<svg width="24" height="24" viewBox="0 0 24 24" fill="none" xmlns="http://www.w3.org/2000/svg">
<path fill-rule="evenodd" clip-rule="evenodd" d="M5.50194 4.13286C5.81243 3.95452 6.19458 3.9558 6.50387 4.13622L17 10.259V5C17 4.44772 17.4477 4 18 4C18.5523 4 19 4.44772 19 5V19C19 19.5523 18.5523 20 18 20C17.4477 20 17 19.5523 17 19V13.741L6.50387 19.8638C6.19458 20.0442 5.81243 20.0455 5.50194 19.8671C5.19145 19.6888 5 19.3581 5 19V5C5 4.64193 5.19145 4.3112 5.50194 4.13286ZM16.0154 12L7 6.74104V17.259L16.0154 12Z" fill="white"/>
</svg>
