<svg width="24" height="24" viewBox="0 0 24 24" fill="none" xmlns="http://www.w3.org/2000/svg">
<path fill-rule="evenodd" clip-rule="evenodd" d="M6 4C6.55229 4 7 4.44772 7 5V10.259L17.4961 4.13622C17.8054 3.9558 18.1876 3.95452 18.4981 4.13286C18.8086 4.3112 19 4.64193 19 5V19C19 19.3581 18.8086 19.6888 18.4981 19.8671C18.1876 20.0455 17.8054 20.0442 17.4961 19.8638L7 13.741V19C7 19.5523 6.55229 20 6 20C5.44772 20 5 19.5523 5 19V12.001C5 12.0007 5 12.0003 5 12C5 11.9997 5 11.9993 5 11.999V5C5 4.44772 5.44772 4 6 4ZM7.98464 12L17 17.259V6.74104L7.98464 12Z" fill="white"/>
</svg>
